G04*
G04 #@! TF.GenerationSoftware,Altium Limited,Altium Designer,21.3.2 (30)*
G04*
G04 Layer_Physical_Order=4*
G04 Layer_Color=16711680*
%FSLAX25Y25*%
%MOIN*%
G70*
G04*
G04 #@! TF.SameCoordinates,35EDE252-B6D9-4C08-81A6-3FFBFD5BE296*
G04*
G04*
G04 #@! TF.FilePolarity,Positive*
G04*
G01*
G75*
%ADD11C,0.00787*%
%ADD13C,0.01000*%
%ADD17C,0.01181*%
%ADD45C,0.05906*%
%ADD46C,0.07480*%
%ADD47C,0.11811*%
%ADD55C,0.01968*%
%ADD56C,0.01575*%
%ADD57C,0.06000*%
%ADD58R,0.05906X0.05906*%
%ADD59R,0.05906X0.05906*%
%ADD60C,0.12992*%
%ADD61C,0.05000*%
%ADD62C,0.01968*%
%ADD63C,0.01378*%
%ADD64C,0.01102*%
G36*
X-11811Y2322D02*
X253796Y2322D01*
X253867Y2114D01*
X253879Y1822D01*
X253294Y1431D01*
X252855Y774D01*
X252801Y500D01*
X256648D01*
X256593Y774D01*
X256155Y1431D01*
X255570Y1822D01*
X255582Y2114D01*
X255653Y2322D01*
X408949Y2322D01*
X409449Y2322D01*
X409449Y2322D01*
X409943Y2307D01*
X411663Y2172D01*
X413824Y1654D01*
X415876Y803D01*
X417770Y-357D01*
X419460Y-1800D01*
X420902Y-3489D01*
X422063Y-5384D01*
X422913Y-7436D01*
X423432Y-9596D01*
X423567Y-11317D01*
X423582Y-11811D01*
X423582Y-11811D01*
X423582Y-12311D01*
X423582Y-263284D01*
X423582Y-263285D01*
X423582Y-263779D01*
X423567Y-264274D01*
X423432Y-265994D01*
X422913Y-268154D01*
X422063Y-270207D01*
X420902Y-272101D01*
X419460Y-273790D01*
X417770Y-275233D01*
X415876Y-276394D01*
X413824Y-277244D01*
X411663Y-277763D01*
X409538Y-277930D01*
X409449Y-277912D01*
X115354D01*
X-11811Y-277912D01*
X-11900Y-277930D01*
X-14026Y-277763D01*
X-16186Y-277244D01*
X-18238Y-276394D01*
X-20132Y-275233D01*
X-21822Y-273790D01*
X-23265Y-272101D01*
X-24425Y-270207D01*
X-25275Y-268154D01*
X-25794Y-265994D01*
X-25961Y-263868D01*
X-25944Y-263779D01*
Y-11811D01*
X-25961Y-11722D01*
X-25794Y-9596D01*
X-25275Y-7436D01*
X-24425Y-5384D01*
X-23265Y-3489D01*
X-21822Y-1800D01*
X-20132Y-357D01*
X-18238Y803D01*
X-16186Y1654D01*
X-14026Y2172D01*
X-11900Y2339D01*
X-11811Y2322D01*
D02*
G37*
%LPC*%
G36*
X75827Y1663D02*
X74887Y1539D01*
X74011Y1176D01*
X73259Y599D01*
X72682Y-153D01*
X72319Y-1029D01*
X72196Y-1969D01*
X72319Y-2908D01*
X72682Y-3784D01*
X73259Y-4536D01*
X74011Y-5113D01*
X74386Y-5268D01*
X74286Y-5768D01*
X20906D01*
X20476Y-5854D01*
X20112Y-6097D01*
X20112Y-6097D01*
X17460Y-8749D01*
X16767Y-8461D01*
X15827Y-8337D01*
X14887Y-8461D01*
X14011Y-8824D01*
X13259Y-9401D01*
X12682Y-10153D01*
X12319Y-11029D01*
X12196Y-11969D01*
X12319Y-12908D01*
X12682Y-13784D01*
X13259Y-14536D01*
X14011Y-15113D01*
X14887Y-15476D01*
X15827Y-15600D01*
X16767Y-15476D01*
X17642Y-15113D01*
X18394Y-14536D01*
X18971Y-13784D01*
X19334Y-12908D01*
X19458Y-11969D01*
X19334Y-11029D01*
X19047Y-10335D01*
X21370Y-8011D01*
X74667D01*
X74766Y-8511D01*
X74011Y-8824D01*
X73259Y-9401D01*
X72682Y-10153D01*
X72319Y-11029D01*
X72196Y-11969D01*
X72319Y-12908D01*
X72682Y-13784D01*
X73259Y-14536D01*
X74011Y-15113D01*
X74887Y-15476D01*
X75827Y-15600D01*
X76767Y-15476D01*
X77642Y-15113D01*
X78394Y-14536D01*
X78971Y-13784D01*
X79334Y-12908D01*
X79458Y-11969D01*
X79334Y-11029D01*
X78971Y-10153D01*
X78394Y-9401D01*
X77642Y-8824D01*
X76888Y-8511D01*
X76987Y-8011D01*
X84835D01*
X84899Y-8507D01*
X84035Y-8865D01*
X83293Y-9435D01*
X82723Y-10177D01*
X82366Y-11041D01*
X82243Y-11969D01*
X82366Y-12896D01*
X82723Y-13760D01*
X83293Y-14502D01*
X84035Y-15072D01*
X84899Y-15430D01*
X85827Y-15552D01*
X86754Y-15430D01*
X87618Y-15072D01*
X88361Y-14502D01*
X88930Y-13760D01*
X89288Y-12896D01*
X89410Y-11969D01*
X89288Y-11041D01*
X88930Y-10177D01*
X88361Y-9435D01*
X87618Y-8865D01*
X86754Y-8507D01*
X86818Y-8011D01*
X111220D01*
X111221Y-8011D01*
X111650Y-7926D01*
X112013Y-7683D01*
X114638Y-5059D01*
X120122D01*
X120155Y-5559D01*
X119733Y-5614D01*
X118677Y-6051D01*
X117771Y-6747D01*
X117075Y-7654D01*
X116638Y-8709D01*
X116489Y-9843D01*
X116638Y-10976D01*
X117075Y-12031D01*
X117771Y-12938D01*
X118677Y-13634D01*
X119733Y-14071D01*
X120866Y-14220D01*
X121999Y-14071D01*
X123055Y-13634D01*
X123962Y-12938D01*
X124657Y-12031D01*
X125095Y-10976D01*
X125244Y-9843D01*
X125095Y-8709D01*
X124657Y-7654D01*
X123962Y-6747D01*
X123055Y-6051D01*
X121999Y-5614D01*
X121577Y-5559D01*
X121610Y-5059D01*
X183746D01*
X183953Y-5559D01*
X162957Y-26555D01*
X107097D01*
X106942Y-26055D01*
X107434Y-25414D01*
X107792Y-24550D01*
X107914Y-23622D01*
X107792Y-22695D01*
X107434Y-21830D01*
X106865Y-21088D01*
X106122Y-20519D01*
X105258Y-20161D01*
X104331Y-20039D01*
X103403Y-20161D01*
X102539Y-20519D01*
X101797Y-21088D01*
X101227Y-21830D01*
X100869Y-22695D01*
X100747Y-23622D01*
X100869Y-24550D01*
X101227Y-25414D01*
X101720Y-26055D01*
X101565Y-26555D01*
X72825D01*
X72438Y-26632D01*
X72109Y-26852D01*
X70150Y-28811D01*
X69930Y-29140D01*
X69853Y-29528D01*
Y-47008D01*
X69930Y-47396D01*
X70150Y-47724D01*
X72652Y-50226D01*
X72319Y-51029D01*
X72196Y-51968D01*
X72319Y-52908D01*
X72682Y-53784D01*
X73259Y-54536D01*
X74011Y-55113D01*
X74887Y-55476D01*
X75827Y-55600D01*
X76767Y-55476D01*
X77642Y-55113D01*
X78394Y-54536D01*
X78971Y-53784D01*
X79334Y-52908D01*
X79458Y-51968D01*
X79334Y-51029D01*
X78971Y-50153D01*
X78394Y-49401D01*
X77642Y-48824D01*
X76767Y-48461D01*
X75827Y-48337D01*
X74887Y-48461D01*
X74085Y-48794D01*
X71879Y-46588D01*
Y-43152D01*
X72379Y-43053D01*
X72682Y-43784D01*
X73259Y-44536D01*
X74011Y-45113D01*
X74887Y-45476D01*
X75827Y-45600D01*
X76767Y-45476D01*
X77642Y-45113D01*
X78394Y-44536D01*
X78971Y-43784D01*
X79334Y-42908D01*
X79458Y-41969D01*
X79334Y-41029D01*
X78971Y-40153D01*
X78394Y-39401D01*
X77642Y-38824D01*
X76767Y-38461D01*
X75827Y-38337D01*
X74887Y-38461D01*
X74011Y-38824D01*
X73259Y-39401D01*
X72682Y-40153D01*
X72379Y-40884D01*
X71879Y-40785D01*
Y-33152D01*
X72379Y-33053D01*
X72682Y-33784D01*
X73259Y-34536D01*
X74011Y-35113D01*
X74887Y-35476D01*
X75827Y-35600D01*
X76767Y-35476D01*
X77642Y-35113D01*
X78394Y-34536D01*
X78971Y-33784D01*
X79334Y-32908D01*
X79458Y-31969D01*
X79334Y-31029D01*
X78971Y-30153D01*
X78394Y-29401D01*
X77978Y-29082D01*
X78148Y-28582D01*
X83583D01*
X83753Y-29082D01*
X83293Y-29435D01*
X82723Y-30177D01*
X82366Y-31041D01*
X82243Y-31969D01*
X82366Y-32896D01*
X82723Y-33760D01*
X83293Y-34502D01*
X84035Y-35072D01*
X84899Y-35430D01*
X85827Y-35552D01*
X86754Y-35430D01*
X87618Y-35072D01*
X88361Y-34502D01*
X88930Y-33760D01*
X89086Y-33383D01*
X110910D01*
X119866Y-42339D01*
X120325Y-42645D01*
X120866Y-42753D01*
X162651D01*
X162768Y-42831D01*
X163386Y-42954D01*
X164004Y-42831D01*
X164528Y-42481D01*
X164878Y-41957D01*
X165001Y-41339D01*
X164878Y-40720D01*
X164528Y-40196D01*
X164004Y-39846D01*
X163386Y-39723D01*
X162768Y-39846D01*
X162651Y-39924D01*
X121452D01*
X112496Y-30968D01*
X112037Y-30662D01*
X111496Y-30554D01*
X89086D01*
X88930Y-30177D01*
X88361Y-29435D01*
X87901Y-29082D01*
X88070Y-28582D01*
X163376D01*
X163764Y-28505D01*
X164093Y-28285D01*
X185459Y-6919D01*
X206903D01*
X207023Y-7185D01*
X207041Y-7419D01*
X206364Y-7939D01*
X205794Y-8681D01*
X205436Y-9545D01*
X205314Y-10472D01*
X205436Y-11400D01*
X205794Y-12264D01*
X206364Y-13006D01*
X207106Y-13576D01*
X207970Y-13934D01*
X208898Y-14056D01*
X209825Y-13934D01*
X210689Y-13576D01*
X211432Y-13006D01*
X212001Y-12264D01*
X212359Y-11400D01*
X212481Y-10472D01*
X212359Y-9545D01*
X212001Y-8681D01*
X211432Y-7939D01*
X210754Y-7419D01*
X210772Y-7185D01*
X210892Y-6919D01*
X216214D01*
X216384Y-7419D01*
X216078Y-7653D01*
X215445Y-8479D01*
X215047Y-9441D01*
X214977Y-9972D01*
X218898D01*
X222819D01*
X222749Y-9441D01*
X222350Y-8479D01*
X221717Y-7653D01*
X221411Y-7419D01*
X221581Y-6919D01*
X297000D01*
X297086Y-7048D01*
X297610Y-7398D01*
X298228Y-7521D01*
X298847Y-7398D01*
X299371Y-7048D01*
X299721Y-6524D01*
X299844Y-5906D01*
X299721Y-5287D01*
X299371Y-4763D01*
X298847Y-4413D01*
X298228Y-4290D01*
X297610Y-4413D01*
X297086Y-4763D01*
X297000Y-4892D01*
X279099D01*
X278892Y-4392D01*
X280711Y-2573D01*
X281273Y-2718D01*
X281535Y-3111D01*
X282059Y-3461D01*
X282677Y-3584D01*
X283295Y-3461D01*
X283819Y-3111D01*
X284170Y-2587D01*
X284293Y-1969D01*
X284224Y-1622D01*
X284572Y-1122D01*
X290448D01*
X290716Y-1622D01*
X290634Y-1744D01*
X290511Y-2362D01*
X290634Y-2980D01*
X290984Y-3504D01*
X291508Y-3855D01*
X292126Y-3977D01*
X292744Y-3855D01*
X293268Y-3504D01*
X293618Y-2980D01*
X293741Y-2362D01*
X293618Y-1744D01*
X293536Y-1622D01*
X293804Y-1122D01*
X353175D01*
X353188Y-1142D01*
X353713Y-1492D01*
X354331Y-1615D01*
X354949Y-1492D01*
X355473Y-1142D01*
X355823Y-618D01*
X355946Y0D01*
X355823Y618D01*
X355473Y1142D01*
X354949Y1492D01*
X354331Y1615D01*
X353713Y1492D01*
X353188Y1142D01*
X353175Y1122D01*
X284015D01*
X283970Y1152D01*
X283541Y1237D01*
X283540Y1237D01*
X281814D01*
X281814Y1237D01*
X281385Y1152D01*
X281021Y909D01*
X281021Y909D01*
X277296Y-2816D01*
X114173D01*
X114173Y-2815D01*
X113744Y-2901D01*
X113380Y-3144D01*
X113380Y-3144D01*
X110756Y-5768D01*
X89777D01*
X89380Y-5521D01*
X89380Y-5268D01*
Y1584D01*
X82274D01*
Y-5268D01*
X82274Y-5521D01*
X81876Y-5768D01*
X77367D01*
X77268Y-5268D01*
X77642Y-5113D01*
X78394Y-4536D01*
X78971Y-3784D01*
X79334Y-2908D01*
X79458Y-1969D01*
X79334Y-1029D01*
X78971Y-153D01*
X78394Y599D01*
X77642Y1176D01*
X76767Y1539D01*
X75827Y1663D01*
D02*
G37*
G36*
X256648Y-500D02*
X255224D01*
Y-1924D01*
X255499Y-1869D01*
X256155Y-1431D01*
X256593Y-774D01*
X256648Y-500D01*
D02*
G37*
G36*
X254224D02*
X252801D01*
X252855Y-774D01*
X253294Y-1431D01*
X253950Y-1869D01*
X254224Y-1924D01*
Y-500D01*
D02*
G37*
G36*
X9380Y1584D02*
X2274D01*
Y-5521D01*
X9380D01*
Y1584D01*
D02*
G37*
G36*
X15827Y1663D02*
X14887Y1539D01*
X14011Y1176D01*
X13259Y599D01*
X12682Y-153D01*
X12319Y-1029D01*
X12196Y-1969D01*
X12319Y-2908D01*
X12682Y-3784D01*
X13259Y-4536D01*
X14011Y-5113D01*
X14887Y-5476D01*
X15827Y-5600D01*
X16767Y-5476D01*
X17642Y-5113D01*
X18394Y-4536D01*
X18971Y-3784D01*
X19334Y-2908D01*
X19458Y-1969D01*
X19334Y-1029D01*
X18971Y-153D01*
X18394Y599D01*
X17642Y1176D01*
X16767Y1539D01*
X15827Y1663D01*
D02*
G37*
G36*
X311024Y-2322D02*
X310405Y-2445D01*
X309881Y-2795D01*
X309531Y-3319D01*
X309434Y-3810D01*
X290048Y-23196D01*
X263633D01*
X263217Y-22917D01*
X262598Y-22794D01*
X261980Y-22917D01*
X261456Y-23267D01*
X261106Y-23791D01*
X260983Y-24409D01*
X261106Y-25028D01*
X261456Y-25552D01*
X261980Y-25902D01*
X262598Y-26025D01*
X263217Y-25902D01*
X263633Y-25623D01*
X290551D01*
X290551Y-25623D01*
X291016Y-25531D01*
X291409Y-25268D01*
X309426Y-7251D01*
X309814Y-7570D01*
X309630Y-7846D01*
X309507Y-8465D01*
X309630Y-9083D01*
X309980Y-9607D01*
X310504Y-9957D01*
X311122Y-10080D01*
X311740Y-9957D01*
X312264Y-9607D01*
X312614Y-9083D01*
X312737Y-8465D01*
X312614Y-7846D01*
X312264Y-7322D01*
X311740Y-6972D01*
X311122Y-6849D01*
X310504Y-6972D01*
X310227Y-7157D01*
X309909Y-6769D01*
X311150Y-5527D01*
X311642Y-5429D01*
X312166Y-5079D01*
X312516Y-4555D01*
X312639Y-3937D01*
X312516Y-3319D01*
X312166Y-2795D01*
X311642Y-2445D01*
X311024Y-2322D01*
D02*
G37*
G36*
X301181Y-7046D02*
X300563Y-7169D01*
X300039Y-7519D01*
X299689Y-8043D01*
X299566Y-8661D01*
X299689Y-9280D01*
X300039Y-9804D01*
X300563Y-10154D01*
X301181Y-10277D01*
X301799Y-10154D01*
X302323Y-9804D01*
X302673Y-9280D01*
X302796Y-8661D01*
X302673Y-8043D01*
X302323Y-7519D01*
X301799Y-7169D01*
X301181Y-7046D01*
D02*
G37*
G36*
X166531Y-5727D02*
X165722Y-5834D01*
X164968Y-6146D01*
X164320Y-6643D01*
X163823Y-7291D01*
X163511Y-8045D01*
X163405Y-8854D01*
X163511Y-9663D01*
X163823Y-10418D01*
X164320Y-11065D01*
X164968Y-11562D01*
X165722Y-11874D01*
X166531Y-11981D01*
X167341Y-11874D01*
X168095Y-11562D01*
X168742Y-11065D01*
X169239Y-10418D01*
X169552Y-9663D01*
X169658Y-8854D01*
X169552Y-8045D01*
X169239Y-7291D01*
X168742Y-6643D01*
X168095Y-6146D01*
X167341Y-5834D01*
X166531Y-5727D01*
D02*
G37*
G36*
X225590Y-9408D02*
X224972Y-9531D01*
X224448Y-9881D01*
X224098Y-10406D01*
X223975Y-11024D01*
X224098Y-11642D01*
X224448Y-12166D01*
X224972Y-12516D01*
X225590Y-12639D01*
X226209Y-12516D01*
X226733Y-12166D01*
X227083Y-11642D01*
X227206Y-11024D01*
X227083Y-10406D01*
X226733Y-9881D01*
X226209Y-9531D01*
X225590Y-9408D01*
D02*
G37*
G36*
X222819Y-10972D02*
X219398D01*
Y-14393D01*
X219930Y-14323D01*
X220891Y-13925D01*
X221717Y-13292D01*
X222350Y-12466D01*
X222749Y-11504D01*
X222819Y-10972D01*
D02*
G37*
G36*
X218398D02*
X214977D01*
X215047Y-11504D01*
X215445Y-12466D01*
X216078Y-13292D01*
X216904Y-13925D01*
X217866Y-14323D01*
X218398Y-14393D01*
Y-10972D01*
D02*
G37*
G36*
X5827Y-8385D02*
X4899Y-8507D01*
X4035Y-8865D01*
X3293Y-9435D01*
X2723Y-10177D01*
X2365Y-11041D01*
X2243Y-11969D01*
X2365Y-12896D01*
X2723Y-13760D01*
X3293Y-14502D01*
X4035Y-15072D01*
X4899Y-15430D01*
X5827Y-15552D01*
X6754Y-15430D01*
X7619Y-15072D01*
X8361Y-14502D01*
X8930Y-13760D01*
X9288Y-12896D01*
X9410Y-11969D01*
X9288Y-11041D01*
X8930Y-10177D01*
X8361Y-9435D01*
X7619Y-8865D01*
X6754Y-8507D01*
X5827Y-8385D01*
D02*
G37*
G36*
X147852Y-10668D02*
X147043Y-10775D01*
X146289Y-11087D01*
X145641Y-11584D01*
X145144Y-12232D01*
X144832Y-12986D01*
X144725Y-13795D01*
X144832Y-14604D01*
X145144Y-15359D01*
X145641Y-16006D01*
X146289Y-16503D01*
X147043Y-16815D01*
X147852Y-16922D01*
X148661Y-16815D01*
X149415Y-16503D01*
X150063Y-16006D01*
X150560Y-15359D01*
X150872Y-14604D01*
X150979Y-13795D01*
X150872Y-12986D01*
X150560Y-12232D01*
X150063Y-11584D01*
X149415Y-11087D01*
X148661Y-10775D01*
X147852Y-10668D01*
D02*
G37*
G36*
X167333Y-13707D02*
X166715Y-13830D01*
X166191Y-14180D01*
X165841Y-14704D01*
X165718Y-15322D01*
X165841Y-15941D01*
X166191Y-16465D01*
X166715Y-16815D01*
X167333Y-16938D01*
X167951Y-16815D01*
X168475Y-16465D01*
X168825Y-15941D01*
X168948Y-15322D01*
X168825Y-14704D01*
X168475Y-14180D01*
X167951Y-13830D01*
X167333Y-13707D01*
D02*
G37*
G36*
X342717Y-15362D02*
X342267Y-15451D01*
X341887Y-15706D01*
X341632Y-16086D01*
X341543Y-16535D01*
X341632Y-16985D01*
X341296Y-17374D01*
X341203Y-17424D01*
X341197Y-17420D01*
X340748Y-17330D01*
X340299Y-17420D01*
X339918Y-17674D01*
X339664Y-18055D01*
X339574Y-18504D01*
X339664Y-18953D01*
X339327Y-19343D01*
X339235Y-19392D01*
X339229Y-19388D01*
X338779Y-19299D01*
X338330Y-19388D01*
X337950Y-19643D01*
X337695Y-20023D01*
X337606Y-20472D01*
X337695Y-20922D01*
X337359Y-21311D01*
X337266Y-21361D01*
X337260Y-21357D01*
X336811Y-21267D01*
X336362Y-21357D01*
X335981Y-21611D01*
X335727Y-21992D01*
X335637Y-22441D01*
X335727Y-22890D01*
X335798Y-22997D01*
Y-43503D01*
X335499Y-43642D01*
X335298Y-43689D01*
X334912Y-43431D01*
X334409Y-43332D01*
X333907Y-43431D01*
X333480Y-43716D01*
X333195Y-44143D01*
X333095Y-44646D01*
X333195Y-45149D01*
X333480Y-45575D01*
X333907Y-45860D01*
X334409Y-45960D01*
X334912Y-45860D01*
X335298Y-45602D01*
X335499Y-45649D01*
X335798Y-45788D01*
Y-69129D01*
X335727Y-69236D01*
X335637Y-69685D01*
X335727Y-70134D01*
X335798Y-70241D01*
Y-90748D01*
X335499Y-90886D01*
X335298Y-90933D01*
X334912Y-90676D01*
X334409Y-90575D01*
X333907Y-90676D01*
X333480Y-90961D01*
X333195Y-91387D01*
X333095Y-91890D01*
X333195Y-92393D01*
X333480Y-92819D01*
X333907Y-93104D01*
X334409Y-93204D01*
X334912Y-93104D01*
X335298Y-92846D01*
X335499Y-92894D01*
X335798Y-93032D01*
Y-103818D01*
X335298Y-103970D01*
X335181Y-103795D01*
X334755Y-103510D01*
X334252Y-103410D01*
X333749Y-103510D01*
X333323Y-103795D01*
X333038Y-104221D01*
X332938Y-104724D01*
X333038Y-105227D01*
X333323Y-105654D01*
X333749Y-105939D01*
X334252Y-106039D01*
X334755Y-105939D01*
X335181Y-105654D01*
X335298Y-105479D01*
X335798Y-105631D01*
Y-116373D01*
X335727Y-116480D01*
X335637Y-116929D01*
X335727Y-117378D01*
X335798Y-117485D01*
Y-137992D01*
X335499Y-138130D01*
X335298Y-138177D01*
X334912Y-137920D01*
X334409Y-137820D01*
X333907Y-137920D01*
X333480Y-138205D01*
X333195Y-138631D01*
X333095Y-139134D01*
X333195Y-139637D01*
X333480Y-140063D01*
X333907Y-140348D01*
X334409Y-140448D01*
X334912Y-140348D01*
X335298Y-140091D01*
X335499Y-140138D01*
X335798Y-140276D01*
Y-163618D01*
X335727Y-163724D01*
X335637Y-164173D01*
X335727Y-164622D01*
X335981Y-165003D01*
X336362Y-165258D01*
X336488Y-165283D01*
X361606Y-190401D01*
X361935Y-190621D01*
X362323Y-190698D01*
X388909D01*
X389100Y-191160D01*
X386234Y-194026D01*
X362821D01*
X327606Y-158810D01*
X327580Y-158685D01*
X327509Y-158578D01*
Y-112445D01*
X327580Y-112339D01*
X327670Y-111890D01*
X327580Y-111441D01*
X327509Y-111334D01*
Y-65201D01*
X327580Y-65095D01*
X327670Y-64646D01*
X327580Y-64196D01*
X327509Y-64090D01*
Y-17957D01*
X327580Y-17851D01*
X327670Y-17402D01*
X327580Y-16952D01*
X327326Y-16572D01*
X326945Y-16317D01*
X326496Y-16228D01*
X326047Y-16317D01*
X325666Y-16572D01*
X325412Y-16952D01*
X325322Y-17402D01*
X325412Y-17851D01*
X325075Y-18240D01*
X324983Y-18290D01*
X324977Y-18286D01*
X324528Y-18196D01*
X324078Y-18286D01*
X323698Y-18540D01*
X323443Y-18921D01*
X323354Y-19370D01*
X323443Y-19819D01*
X323107Y-20209D01*
X323014Y-20258D01*
X323008Y-20254D01*
X322559Y-20165D01*
X322110Y-20254D01*
X321729Y-20509D01*
X321475Y-20889D01*
X321385Y-21339D01*
X321475Y-21788D01*
X321138Y-22177D01*
X321046Y-22227D01*
X321040Y-22223D01*
X320590Y-22133D01*
X320141Y-22223D01*
X319761Y-22477D01*
X319506Y-22858D01*
X319417Y-23307D01*
X319506Y-23756D01*
X319170Y-24146D01*
X319077Y-24195D01*
X319071Y-24191D01*
X318622Y-24102D01*
X318173Y-24191D01*
X317792Y-24446D01*
X317538Y-24826D01*
X317448Y-25276D01*
X317538Y-25725D01*
X317201Y-26114D01*
X317109Y-26164D01*
X317103Y-26160D01*
X316653Y-26070D01*
X316204Y-26160D01*
X315824Y-26414D01*
X315569Y-26795D01*
X315480Y-27244D01*
X315569Y-27693D01*
X315233Y-28083D01*
X315140Y-28132D01*
X315134Y-28128D01*
X314685Y-28039D01*
X314236Y-28128D01*
X313855Y-28383D01*
X313601Y-28763D01*
X313511Y-29213D01*
X313601Y-29662D01*
X313264Y-30051D01*
X313172Y-30101D01*
X313166Y-30097D01*
X312717Y-30007D01*
X312267Y-30097D01*
X311887Y-30351D01*
X311632Y-30732D01*
X311543Y-31181D01*
X311632Y-31630D01*
X311296Y-32020D01*
X311203Y-32069D01*
X311197Y-32065D01*
X310748Y-31976D01*
X310299Y-32065D01*
X309918Y-32320D01*
X309664Y-32700D01*
X309574Y-33150D01*
X309664Y-33599D01*
X309327Y-33988D01*
X309235Y-34038D01*
X309229Y-34034D01*
X308780Y-33944D01*
X308330Y-34034D01*
X307950Y-34288D01*
X307695Y-34669D01*
X307606Y-35118D01*
X307695Y-35567D01*
X307359Y-35957D01*
X307266Y-36006D01*
X307260Y-36002D01*
X306811Y-35913D01*
X306362Y-36002D01*
X305981Y-36257D01*
X305727Y-36637D01*
X305637Y-37087D01*
X305727Y-37536D01*
X305390Y-37925D01*
X305298Y-37975D01*
X305292Y-37971D01*
X304842Y-37881D01*
X304393Y-37971D01*
X304013Y-38225D01*
X303758Y-38606D01*
X303669Y-39055D01*
X303758Y-39504D01*
X303829Y-39611D01*
Y-51270D01*
X303329Y-51618D01*
X303150Y-51582D01*
X302748Y-51181D01*
X302659Y-50732D01*
X302405Y-50351D01*
X302024Y-50097D01*
X301575Y-50007D01*
X301174Y-49606D01*
X301084Y-49157D01*
X300830Y-48776D01*
X300449Y-48522D01*
X300000Y-48433D01*
X299599Y-48031D01*
X299510Y-47582D01*
X299255Y-47201D01*
X298874Y-46947D01*
X298425Y-46858D01*
X298024Y-46457D01*
X297935Y-46007D01*
X297680Y-45627D01*
X297300Y-45372D01*
X296850Y-45283D01*
X296401Y-45372D01*
X296020Y-45627D01*
X295766Y-46007D01*
X295677Y-46457D01*
X295766Y-46906D01*
X295837Y-47012D01*
Y-57056D01*
X295337Y-57323D01*
X295106Y-57169D01*
X294488Y-57046D01*
X293870Y-57169D01*
X293679Y-57297D01*
X292478D01*
X278024Y-42843D01*
X277630Y-42579D01*
X277165Y-42487D01*
X277165Y-42487D01*
X257728D01*
X257311Y-42208D01*
X256693Y-42085D01*
X256075Y-42208D01*
X255551Y-42559D01*
X255201Y-43083D01*
X255078Y-43701D01*
X255201Y-44319D01*
X255551Y-44843D01*
X256075Y-45193D01*
X256693Y-45316D01*
X257311Y-45193D01*
X257728Y-44915D01*
X276663D01*
X291117Y-59369D01*
X291511Y-59632D01*
X291975Y-59725D01*
X291975Y-59725D01*
X293293D01*
X293346Y-59804D01*
X293870Y-60154D01*
X294488Y-60277D01*
X295106Y-60154D01*
X295337Y-60000D01*
X295837Y-60267D01*
Y-63054D01*
X295420Y-63329D01*
X295337Y-63343D01*
X294882Y-63253D01*
X294379Y-63353D01*
X293953Y-63638D01*
X293668Y-64064D01*
X293568Y-64567D01*
X293668Y-65070D01*
X293953Y-65496D01*
X294379Y-65781D01*
X294882Y-65881D01*
X295337Y-65791D01*
X295420Y-65804D01*
X295837Y-66080D01*
Y-76388D01*
X295337Y-76791D01*
X295276Y-76779D01*
X294826Y-76868D01*
X294720Y-76940D01*
X242235D01*
X242088Y-76440D01*
X242619Y-76084D01*
X243058Y-75428D01*
X243113Y-75153D01*
X239265D01*
X239320Y-75428D01*
X239758Y-76084D01*
X240290Y-76440D01*
X240143Y-76940D01*
X195789D01*
X176204Y-57354D01*
X175875Y-57135D01*
X175488Y-57058D01*
X142717D01*
X142329Y-57135D01*
X142000Y-57354D01*
X138399Y-60955D01*
X89253D01*
X88930Y-60177D01*
X88361Y-59435D01*
X87618Y-58865D01*
X86754Y-58507D01*
X85827Y-58385D01*
X84899Y-58507D01*
X84035Y-58865D01*
X83293Y-59435D01*
X82723Y-60177D01*
X82366Y-61041D01*
X82243Y-61968D01*
X82366Y-62896D01*
X82723Y-63760D01*
X83293Y-64502D01*
X84035Y-65072D01*
X84899Y-65430D01*
X85827Y-65552D01*
X86754Y-65430D01*
X87618Y-65072D01*
X88361Y-64502D01*
X88930Y-63760D01*
X89253Y-62982D01*
X138819D01*
X139207Y-62905D01*
X139535Y-62685D01*
X143136Y-59084D01*
X175068D01*
X194653Y-78669D01*
X194982Y-78889D01*
X195370Y-78966D01*
X294720D01*
X294826Y-79037D01*
X295276Y-79127D01*
X295337Y-79114D01*
X295837Y-79518D01*
Y-93145D01*
X295766Y-93252D01*
X295677Y-93701D01*
X295766Y-94150D01*
X295837Y-94257D01*
Y-96901D01*
X295375Y-97092D01*
X280244Y-81961D01*
X279915Y-81741D01*
X279528Y-81664D01*
X150233D01*
X150102Y-81164D01*
X150636Y-80754D01*
X151133Y-80107D01*
X151445Y-79353D01*
X151552Y-78543D01*
X151445Y-77734D01*
X151133Y-76980D01*
X150636Y-76332D01*
X149989Y-75836D01*
X149234Y-75523D01*
X148425Y-75417D01*
X147616Y-75523D01*
X146862Y-75836D01*
X146214Y-76332D01*
X145717Y-76980D01*
X145405Y-77734D01*
X145298Y-78543D01*
X145405Y-79353D01*
X145717Y-80107D01*
X146214Y-80754D01*
X146748Y-81164D01*
X146618Y-81664D01*
X97441D01*
X97053Y-81741D01*
X96724Y-81961D01*
X93736Y-84949D01*
X88512D01*
X88508Y-84937D01*
X88402Y-84449D01*
X88930Y-83760D01*
X89288Y-82896D01*
X89410Y-81968D01*
X89288Y-81041D01*
X88930Y-80177D01*
X88361Y-79435D01*
X87618Y-78865D01*
X86754Y-78507D01*
X85827Y-78385D01*
X84899Y-78507D01*
X84035Y-78865D01*
X83293Y-79435D01*
X82723Y-80177D01*
X82366Y-81041D01*
X82243Y-81968D01*
X82366Y-82896D01*
X82723Y-83760D01*
X83252Y-84449D01*
X83145Y-84937D01*
X83141Y-84949D01*
X78603D01*
X78461Y-84449D01*
X78971Y-83784D01*
X79334Y-82908D01*
X79458Y-81968D01*
X79334Y-81029D01*
X78971Y-80153D01*
X78394Y-79401D01*
X77642Y-78824D01*
X76767Y-78461D01*
X75827Y-78337D01*
X74887Y-78461D01*
X74011Y-78824D01*
X73259Y-79401D01*
X72682Y-80153D01*
X72319Y-81029D01*
X72196Y-81968D01*
X72319Y-82908D01*
X72682Y-83784D01*
X73192Y-84449D01*
X73051Y-84949D01*
X49776D01*
X46079Y-81252D01*
X45750Y-81032D01*
X45362Y-80955D01*
X19304D01*
X18971Y-80153D01*
X18394Y-79401D01*
X17642Y-78824D01*
X16767Y-78461D01*
X15827Y-78337D01*
X14887Y-78461D01*
X14011Y-78824D01*
X13259Y-79401D01*
X12682Y-80153D01*
X12319Y-81029D01*
X12196Y-81968D01*
X12319Y-82908D01*
X12682Y-83784D01*
X13259Y-84536D01*
X14011Y-85113D01*
X14887Y-85476D01*
X15827Y-85600D01*
X16767Y-85476D01*
X17642Y-85113D01*
X18394Y-84536D01*
X18971Y-83784D01*
X19304Y-82982D01*
X44943D01*
X48627Y-86666D01*
X48640Y-86681D01*
Y-87256D01*
X48627Y-87271D01*
X44943Y-90955D01*
X19304D01*
X18971Y-90153D01*
X18394Y-89401D01*
X17642Y-88824D01*
X16767Y-88461D01*
X15827Y-88337D01*
X14887Y-88461D01*
X14011Y-88824D01*
X13259Y-89401D01*
X12682Y-90153D01*
X12319Y-91029D01*
X12196Y-91969D01*
X12319Y-92908D01*
X12682Y-93784D01*
X13259Y-94536D01*
X14011Y-95113D01*
X14887Y-95476D01*
X15827Y-95600D01*
X16767Y-95476D01*
X17642Y-95113D01*
X18394Y-94536D01*
X18971Y-93784D01*
X19304Y-92982D01*
X45362D01*
X45750Y-92905D01*
X46079Y-92685D01*
X49776Y-88988D01*
X73051D01*
X73192Y-89488D01*
X72682Y-90153D01*
X72319Y-91029D01*
X72196Y-91969D01*
X72319Y-92908D01*
X72682Y-93784D01*
X73259Y-94536D01*
X74011Y-95113D01*
X74887Y-95476D01*
X75827Y-95600D01*
X76767Y-95476D01*
X77642Y-95113D01*
X78394Y-94536D01*
X78971Y-93784D01*
X79334Y-92908D01*
X79458Y-91969D01*
X79334Y-91029D01*
X78971Y-90153D01*
X78461Y-89488D01*
X78603Y-88988D01*
X83141D01*
X83145Y-89000D01*
X83252Y-89488D01*
X82723Y-90177D01*
X82366Y-91041D01*
X82243Y-91969D01*
X82366Y-92896D01*
X82723Y-93760D01*
X83293Y-94502D01*
X84035Y-95072D01*
X84899Y-95430D01*
X85827Y-95552D01*
X86754Y-95430D01*
X87618Y-95072D01*
X88361Y-94502D01*
X88930Y-93760D01*
X89288Y-92896D01*
X89410Y-91969D01*
X89288Y-91041D01*
X88930Y-90177D01*
X88402Y-89488D01*
X88508Y-89000D01*
X88512Y-88988D01*
X91492D01*
X98093Y-95589D01*
X98422Y-95809D01*
X98809Y-95886D01*
X153805D01*
X154146Y-96350D01*
X158059D01*
X158400Y-95886D01*
X178114D01*
X200071Y-117842D01*
X200400Y-118062D01*
X200787Y-118139D01*
X271234D01*
X272716Y-119621D01*
X272397Y-120010D01*
X272361Y-119986D01*
X272157Y-119849D01*
X271654Y-119749D01*
X271151Y-119849D01*
X270850Y-120050D01*
X184320D01*
X184134Y-119865D01*
X183806Y-119645D01*
X183418Y-119568D01*
X168824D01*
X168588Y-119068D01*
X168815Y-118728D01*
X168938Y-118110D01*
X168815Y-117492D01*
X168465Y-116968D01*
X167941Y-116618D01*
X167323Y-116495D01*
X166705Y-116618D01*
X166588Y-116696D01*
X117121D01*
X101394Y-100968D01*
X100935Y-100662D01*
X100394Y-100554D01*
X89086D01*
X88930Y-100177D01*
X88361Y-99435D01*
X87618Y-98865D01*
X86754Y-98507D01*
X85827Y-98385D01*
X84899Y-98507D01*
X84035Y-98865D01*
X83293Y-99435D01*
X82723Y-100177D01*
X82366Y-101041D01*
X82243Y-101969D01*
X82366Y-102896D01*
X82723Y-103760D01*
X83293Y-104502D01*
X84035Y-105072D01*
X84899Y-105430D01*
X85827Y-105552D01*
X86754Y-105430D01*
X87618Y-105072D01*
X88361Y-104502D01*
X88930Y-103760D01*
X89086Y-103383D01*
X99808D01*
X115493Y-119068D01*
X115471Y-119247D01*
X115320Y-119568D01*
X110174D01*
X101858Y-111252D01*
X101530Y-111032D01*
X101142Y-110955D01*
X89253D01*
X88930Y-110177D01*
X88361Y-109435D01*
X87618Y-108865D01*
X86754Y-108507D01*
X85827Y-108385D01*
X84899Y-108507D01*
X84035Y-108865D01*
X83293Y-109435D01*
X82723Y-110177D01*
X82366Y-111041D01*
X82243Y-111969D01*
X82366Y-112896D01*
X82723Y-113760D01*
X83293Y-114502D01*
X84035Y-115072D01*
X84899Y-115430D01*
X85827Y-115552D01*
X86754Y-115430D01*
X87618Y-115072D01*
X88361Y-114502D01*
X88930Y-113760D01*
X89253Y-112982D01*
X100722D01*
X109038Y-121298D01*
X109367Y-121517D01*
X109754Y-121594D01*
X182998D01*
X183184Y-121779D01*
X183512Y-121999D01*
X183900Y-122076D01*
X270850D01*
X271151Y-122277D01*
X271654Y-122377D01*
X272157Y-122277D01*
X272583Y-121992D01*
X272868Y-121566D01*
X272968Y-121063D01*
X272868Y-120560D01*
X272731Y-120355D01*
X272707Y-120319D01*
X273095Y-120000D01*
X275562Y-122467D01*
Y-139563D01*
X275062Y-139770D01*
X274665Y-139374D01*
Y-133991D01*
X274736Y-133884D01*
X274826Y-133435D01*
X274736Y-132986D01*
X274482Y-132605D01*
X274101Y-132351D01*
X273652Y-132261D01*
X273203Y-132351D01*
X272822Y-132605D01*
X272567Y-132986D01*
X272478Y-133435D01*
X272567Y-133884D01*
X272639Y-133991D01*
Y-139794D01*
X272716Y-140181D01*
X272935Y-140510D01*
X273593Y-141168D01*
Y-142561D01*
X273093Y-142713D01*
X272987Y-142553D01*
X272606Y-142299D01*
X272157Y-142210D01*
X271708Y-142299D01*
X271601Y-142370D01*
X268437D01*
X267945Y-141961D01*
Y-139138D01*
X268016Y-139032D01*
X268106Y-138583D01*
X268016Y-138134D01*
X267762Y-137753D01*
X267381Y-137498D01*
X266932Y-137409D01*
X266483Y-137498D01*
X266102Y-137753D01*
X265848Y-138134D01*
X265758Y-138583D01*
X265848Y-139032D01*
X265919Y-139138D01*
Y-142097D01*
X259824Y-148192D01*
X253945D01*
X253557Y-148269D01*
X253228Y-148489D01*
X250572Y-151145D01*
X132879D01*
X102987Y-121252D01*
X102658Y-121032D01*
X102271Y-120955D01*
X89253D01*
X88930Y-120177D01*
X88361Y-119435D01*
X87618Y-118865D01*
X86754Y-118507D01*
X85827Y-118385D01*
X84899Y-118507D01*
X84035Y-118865D01*
X83293Y-119435D01*
X82723Y-120177D01*
X82366Y-121041D01*
X82243Y-121968D01*
X82366Y-122896D01*
X82723Y-123760D01*
X83293Y-124502D01*
X84035Y-125072D01*
X84899Y-125430D01*
X85827Y-125552D01*
X86754Y-125430D01*
X87618Y-125072D01*
X88361Y-124502D01*
X88930Y-123760D01*
X89253Y-122982D01*
X101851D01*
X113309Y-134440D01*
X113118Y-134902D01*
X88593D01*
X88438Y-134402D01*
X88930Y-133760D01*
X89288Y-132896D01*
X89410Y-131968D01*
X89288Y-131041D01*
X88930Y-130177D01*
X88361Y-129435D01*
X87618Y-128865D01*
X86754Y-128507D01*
X85827Y-128385D01*
X84899Y-128507D01*
X84035Y-128865D01*
X83293Y-129435D01*
X82723Y-130177D01*
X82366Y-131041D01*
X82243Y-131968D01*
X82366Y-132896D01*
X82723Y-133760D01*
X83252Y-134449D01*
X83145Y-134937D01*
X83141Y-134949D01*
X78603D01*
X78461Y-134449D01*
X78971Y-133784D01*
X79334Y-132908D01*
X79458Y-131968D01*
X79334Y-131029D01*
X78971Y-130153D01*
X78394Y-129401D01*
X77642Y-128824D01*
X76767Y-128461D01*
X75827Y-128337D01*
X74887Y-128461D01*
X74011Y-128824D01*
X73259Y-129401D01*
X72682Y-130153D01*
X72319Y-131029D01*
X72196Y-131968D01*
X72319Y-132908D01*
X72682Y-133784D01*
X73192Y-134449D01*
X73051Y-134949D01*
X72262D01*
X70455Y-133142D01*
X70126Y-132922D01*
X69738Y-132845D01*
X65008D01*
X64922Y-132716D01*
X64398Y-132366D01*
X63779Y-132243D01*
X63161Y-132366D01*
X62637Y-132716D01*
X62551Y-132845D01*
X59475D01*
X47882Y-121252D01*
X47553Y-121032D01*
X47165Y-120955D01*
X19304D01*
X18971Y-120153D01*
X18394Y-119401D01*
X17642Y-118824D01*
X16767Y-118461D01*
X15827Y-118337D01*
X14887Y-118461D01*
X14011Y-118824D01*
X13259Y-119401D01*
X12682Y-120153D01*
X12319Y-121029D01*
X12196Y-121968D01*
X12319Y-122908D01*
X12682Y-123784D01*
X13259Y-124536D01*
X14011Y-125113D01*
X14887Y-125476D01*
X15827Y-125600D01*
X16767Y-125476D01*
X17642Y-125113D01*
X18394Y-124536D01*
X18971Y-123784D01*
X19304Y-122982D01*
X46746D01*
X58339Y-134575D01*
X58667Y-134794D01*
X59055Y-134871D01*
X62551D01*
X62637Y-135001D01*
X63161Y-135351D01*
X63779Y-135474D01*
X64398Y-135351D01*
X64922Y-135001D01*
X65008Y-134871D01*
X69318D01*
X70373Y-135926D01*
X70182Y-136388D01*
X21679D01*
X19002Y-133711D01*
X19334Y-132908D01*
X19458Y-131968D01*
X19334Y-131029D01*
X18971Y-130153D01*
X18394Y-129401D01*
X17642Y-128824D01*
X16767Y-128461D01*
X15827Y-128337D01*
X14887Y-128461D01*
X14011Y-128824D01*
X13259Y-129401D01*
X12682Y-130153D01*
X12319Y-131029D01*
X12196Y-131968D01*
X12319Y-132908D01*
X12682Y-133784D01*
X13259Y-134536D01*
X14011Y-135113D01*
X14887Y-135476D01*
X15827Y-135600D01*
X16767Y-135476D01*
X17569Y-135143D01*
X20543Y-138118D01*
X20872Y-138338D01*
X21260Y-138415D01*
X73753D01*
X73893Y-138915D01*
X73259Y-139401D01*
X72682Y-140153D01*
X72319Y-141029D01*
X72196Y-141969D01*
X72319Y-142908D01*
X72682Y-143784D01*
X73192Y-144449D01*
X73051Y-144949D01*
X21833D01*
X21445Y-145026D01*
X21117Y-145246D01*
X17569Y-148793D01*
X16767Y-148461D01*
X15827Y-148337D01*
X14887Y-148461D01*
X14011Y-148824D01*
X13259Y-149401D01*
X12682Y-150153D01*
X12319Y-151029D01*
X12196Y-151969D01*
X12319Y-152908D01*
X12682Y-153784D01*
X13259Y-154536D01*
X14011Y-155113D01*
X14887Y-155476D01*
X15827Y-155600D01*
X16767Y-155476D01*
X17642Y-155113D01*
X18394Y-154536D01*
X18971Y-153784D01*
X19334Y-152908D01*
X19458Y-151969D01*
X19334Y-151029D01*
X19002Y-150226D01*
X22253Y-146975D01*
X28734D01*
X28925Y-147437D01*
X17569Y-158793D01*
X16767Y-158461D01*
X15827Y-158337D01*
X14887Y-158461D01*
X14011Y-158824D01*
X13259Y-159401D01*
X12682Y-160153D01*
X12319Y-161029D01*
X12196Y-161969D01*
X12319Y-162908D01*
X12682Y-163784D01*
X13259Y-164536D01*
X14011Y-165113D01*
X14887Y-165476D01*
X15827Y-165600D01*
X16767Y-165476D01*
X17642Y-165113D01*
X18394Y-164536D01*
X18971Y-163784D01*
X19334Y-162908D01*
X19458Y-161969D01*
X19334Y-161029D01*
X19002Y-160226D01*
X30865Y-148363D01*
X73819D01*
X73956Y-148692D01*
X73961Y-148863D01*
X73259Y-149401D01*
X72682Y-150153D01*
X72319Y-151029D01*
X72196Y-151969D01*
X72319Y-152908D01*
X72682Y-153784D01*
X73192Y-154449D01*
X73051Y-154949D01*
X31833D01*
X31445Y-155026D01*
X31117Y-155246D01*
X17569Y-168793D01*
X16767Y-168461D01*
X15827Y-168337D01*
X14887Y-168461D01*
X14011Y-168824D01*
X13259Y-169401D01*
X12682Y-170153D01*
X12319Y-171029D01*
X12196Y-171968D01*
X12319Y-172908D01*
X12682Y-173784D01*
X13259Y-174536D01*
X14011Y-175113D01*
X14887Y-175476D01*
X15827Y-175600D01*
X16767Y-175476D01*
X17642Y-175113D01*
X18394Y-174536D01*
X18971Y-173784D01*
X19334Y-172908D01*
X19458Y-171968D01*
X19334Y-171029D01*
X19002Y-170226D01*
X32253Y-156975D01*
X38734D01*
X38925Y-157437D01*
X17569Y-178794D01*
X16767Y-178461D01*
X15827Y-178337D01*
X14887Y-178461D01*
X14011Y-178824D01*
X13259Y-179401D01*
X12682Y-180153D01*
X12319Y-181029D01*
X12196Y-181968D01*
X12319Y-182908D01*
X12682Y-183784D01*
X13259Y-184536D01*
X14011Y-185113D01*
X14887Y-185476D01*
X15827Y-185600D01*
X16767Y-185476D01*
X17642Y-185113D01*
X18394Y-184536D01*
X18971Y-183784D01*
X19334Y-182908D01*
X19458Y-181968D01*
X19334Y-181029D01*
X19002Y-180226D01*
X40735Y-158493D01*
X73620D01*
X73790Y-158993D01*
X73259Y-159401D01*
X72682Y-160153D01*
X72319Y-161029D01*
X72196Y-161969D01*
X72319Y-162908D01*
X72682Y-163784D01*
X73192Y-164449D01*
X73051Y-164949D01*
X68941D01*
X68630Y-164638D01*
X68301Y-164418D01*
X67913Y-164341D01*
X42441D01*
X42053Y-164418D01*
X41725Y-164638D01*
X17569Y-188794D01*
X16767Y-188461D01*
X15827Y-188337D01*
X14887Y-188461D01*
X14011Y-188824D01*
X13259Y-189401D01*
X12682Y-190153D01*
X12319Y-191029D01*
X12196Y-191969D01*
X12319Y-192908D01*
X12682Y-193784D01*
X13259Y-194536D01*
X14011Y-195113D01*
X14887Y-195476D01*
X15827Y-195600D01*
X16767Y-195476D01*
X17642Y-195113D01*
X18394Y-194536D01*
X18971Y-193784D01*
X19334Y-192908D01*
X19458Y-191969D01*
X19334Y-191029D01*
X19002Y-190226D01*
X42861Y-166367D01*
X67494D01*
X67805Y-166679D01*
X68133Y-166898D01*
X68521Y-166975D01*
X104897D01*
X105285Y-166898D01*
X105476Y-166771D01*
X105849D01*
X105943Y-166898D01*
X106071Y-167271D01*
X105791Y-167689D01*
X105668Y-168307D01*
X105791Y-168925D01*
X106141Y-169449D01*
X116495Y-179803D01*
Y-205485D01*
X116319Y-205558D01*
X115576Y-206128D01*
X115007Y-206870D01*
X114649Y-207734D01*
X114527Y-208661D01*
X114649Y-209589D01*
X115007Y-210453D01*
X115576Y-211195D01*
X116319Y-211765D01*
X117183Y-212123D01*
X118110Y-212245D01*
X119038Y-212123D01*
X119902Y-211765D01*
X120644Y-211195D01*
X121214Y-210453D01*
X121572Y-209589D01*
X121694Y-208661D01*
X121572Y-207734D01*
X121214Y-206870D01*
X120644Y-206128D01*
X119902Y-205558D01*
X119726Y-205485D01*
Y-179134D01*
X119603Y-178516D01*
X119252Y-177992D01*
X108531Y-167271D01*
X108656Y-166854D01*
X108718Y-166771D01*
X165136D01*
X165154Y-166782D01*
X165542Y-166860D01*
X261096D01*
X261625Y-167389D01*
X261500Y-167632D01*
X261331Y-167801D01*
X261130Y-167761D01*
Y-169185D01*
X262554D01*
X262514Y-168984D01*
X262683Y-168815D01*
X262926Y-168690D01*
X287580Y-193343D01*
X287261Y-193732D01*
X286845Y-193454D01*
X286571Y-193399D01*
Y-194823D01*
X287995D01*
X287940Y-194549D01*
X287662Y-194133D01*
X288051Y-193814D01*
X289441Y-195205D01*
X289770Y-195424D01*
X290158Y-195501D01*
X302594D01*
X302700Y-195573D01*
X303150Y-195662D01*
X303599Y-195573D01*
X303980Y-195318D01*
X304234Y-194937D01*
X304323Y-194488D01*
X304234Y-194039D01*
X304163Y-193932D01*
Y-182273D01*
X304208Y-182225D01*
X304663Y-182041D01*
X347541Y-224919D01*
X347870Y-225138D01*
X348257Y-225216D01*
X403672D01*
X404059Y-225138D01*
X404388Y-224919D01*
X412959Y-216348D01*
X418632D01*
Y-209243D01*
X411526D01*
Y-214915D01*
X403252Y-223189D01*
X396771D01*
X396580Y-222727D01*
X403373Y-215934D01*
X404151Y-216257D01*
X405079Y-216379D01*
X406006Y-216257D01*
X406870Y-215899D01*
X407613Y-215329D01*
X408182Y-214587D01*
X408540Y-213723D01*
X408662Y-212795D01*
X408540Y-211868D01*
X408182Y-211004D01*
X407613Y-210261D01*
X406870Y-209692D01*
X406101Y-209373D01*
X406010Y-209068D01*
X406013Y-208831D01*
X406145Y-208742D01*
X411080Y-203808D01*
X411653D01*
X411975Y-204587D01*
X412545Y-205329D01*
X413287Y-205899D01*
X414151Y-206257D01*
X415079Y-206379D01*
X416006Y-206257D01*
X416870Y-205899D01*
X417613Y-205329D01*
X418182Y-204587D01*
X418540Y-203723D01*
X418662Y-202795D01*
X418540Y-201868D01*
X418182Y-201004D01*
X417613Y-200261D01*
X416870Y-199692D01*
X416006Y-199334D01*
X415079Y-199212D01*
X414151Y-199334D01*
X413287Y-199692D01*
X412545Y-200261D01*
X411975Y-201004D01*
X411653Y-201782D01*
X410660D01*
X410272Y-201859D01*
X409943Y-202079D01*
X409109Y-202914D01*
X408646Y-202670D01*
X408540Y-201868D01*
X408182Y-201004D01*
X407613Y-200261D01*
X406870Y-199692D01*
X406006Y-199334D01*
X405792Y-199306D01*
X405776Y-198799D01*
X406030Y-198749D01*
X406359Y-198529D01*
X411080Y-193808D01*
X411653D01*
X411975Y-194587D01*
X412545Y-195329D01*
X413287Y-195899D01*
X414151Y-196257D01*
X415079Y-196379D01*
X416006Y-196257D01*
X416870Y-195899D01*
X417613Y-195329D01*
X418182Y-194587D01*
X418540Y-193723D01*
X418662Y-192795D01*
X418540Y-191868D01*
X418182Y-191004D01*
X417613Y-190261D01*
X416870Y-189692D01*
X416006Y-189334D01*
X415079Y-189212D01*
X414151Y-189334D01*
X413287Y-189692D01*
X412545Y-190261D01*
X411975Y-191004D01*
X411653Y-191782D01*
X410660D01*
X410272Y-191859D01*
X409943Y-192079D01*
X409109Y-192914D01*
X408646Y-192670D01*
X408540Y-191868D01*
X408182Y-191004D01*
X407613Y-190261D01*
X406870Y-189692D01*
X406186Y-189409D01*
X406016Y-188872D01*
X411080Y-183808D01*
X411653D01*
X411975Y-184587D01*
X412545Y-185329D01*
X413287Y-185899D01*
X414151Y-186257D01*
X415079Y-186379D01*
X416006Y-186257D01*
X416870Y-185899D01*
X417613Y-185329D01*
X418182Y-184587D01*
X418540Y-183723D01*
X418662Y-182795D01*
X418540Y-181868D01*
X418182Y-181004D01*
X417613Y-180261D01*
X416870Y-179692D01*
X416006Y-179334D01*
X415079Y-179212D01*
X414151Y-179334D01*
X413287Y-179692D01*
X412545Y-180261D01*
X411975Y-181004D01*
X411653Y-181782D01*
X410660D01*
X410272Y-181859D01*
X409943Y-182079D01*
X409109Y-182914D01*
X408646Y-182670D01*
X408540Y-181868D01*
X408182Y-181004D01*
X407613Y-180261D01*
X406870Y-179692D01*
X406006Y-179334D01*
X405079Y-179212D01*
X404151Y-179334D01*
X403287Y-179692D01*
X402554Y-180254D01*
X402366Y-180229D01*
X402054Y-180123D01*
Y-177253D01*
X403373Y-175934D01*
X404151Y-176257D01*
X405079Y-176379D01*
X406006Y-176257D01*
X406870Y-175899D01*
X407613Y-175329D01*
X408182Y-174587D01*
X408540Y-173723D01*
X408662Y-172795D01*
X408540Y-171868D01*
X408182Y-171004D01*
X407613Y-170261D01*
X406870Y-169692D01*
X406006Y-169334D01*
X405079Y-169212D01*
X404151Y-169334D01*
X403414Y-169639D01*
X403131Y-169216D01*
X403816Y-168530D01*
X405938D01*
X406326Y-168453D01*
X406654Y-168234D01*
X411080Y-163808D01*
X411653D01*
X411975Y-164587D01*
X412545Y-165329D01*
X413287Y-165899D01*
X414151Y-166257D01*
X415079Y-166379D01*
X416006Y-166257D01*
X416870Y-165899D01*
X417613Y-165329D01*
X418182Y-164587D01*
X418540Y-163723D01*
X418662Y-162795D01*
X418540Y-161868D01*
X418182Y-161004D01*
X417613Y-160261D01*
X416870Y-159692D01*
X416006Y-159334D01*
X415079Y-159212D01*
X414151Y-159334D01*
X413287Y-159692D01*
X412545Y-160261D01*
X411975Y-161004D01*
X411653Y-161782D01*
X410660D01*
X410272Y-161859D01*
X409943Y-162079D01*
X409109Y-162914D01*
X408646Y-162670D01*
X408540Y-161868D01*
X408182Y-161004D01*
X407613Y-160261D01*
X406870Y-159692D01*
X406186Y-159409D01*
X406016Y-158872D01*
X411080Y-153808D01*
X411653D01*
X411975Y-154587D01*
X412545Y-155329D01*
X413287Y-155899D01*
X414151Y-156257D01*
X415079Y-156379D01*
X416006Y-156257D01*
X416870Y-155899D01*
X417613Y-155329D01*
X418182Y-154587D01*
X418540Y-153723D01*
X418662Y-152795D01*
X418540Y-151868D01*
X418182Y-151004D01*
X417613Y-150261D01*
X416870Y-149692D01*
X416006Y-149334D01*
X415079Y-149212D01*
X414151Y-149334D01*
X413287Y-149692D01*
X412545Y-150261D01*
X411975Y-151004D01*
X411653Y-151782D01*
X410660D01*
X410272Y-151859D01*
X409943Y-152079D01*
X409109Y-152914D01*
X408646Y-152670D01*
X408540Y-151868D01*
X408182Y-151004D01*
X407613Y-150261D01*
X406870Y-149692D01*
X406186Y-149409D01*
X406016Y-148872D01*
X411080Y-143808D01*
X411653D01*
X411975Y-144587D01*
X412545Y-145329D01*
X413287Y-145899D01*
X414151Y-146257D01*
X415079Y-146379D01*
X416006Y-146257D01*
X416870Y-145899D01*
X417613Y-145329D01*
X418182Y-144587D01*
X418540Y-143723D01*
X418662Y-142795D01*
X418540Y-141868D01*
X418182Y-141004D01*
X417613Y-140261D01*
X416870Y-139692D01*
X416006Y-139334D01*
X415079Y-139212D01*
X414151Y-139334D01*
X413287Y-139692D01*
X412545Y-140261D01*
X411975Y-141004D01*
X411653Y-141782D01*
X410660D01*
X410272Y-141859D01*
X409943Y-142079D01*
X409109Y-142914D01*
X408646Y-142670D01*
X408540Y-141868D01*
X408182Y-141004D01*
X407613Y-140261D01*
X406870Y-139692D01*
X406006Y-139334D01*
X405079Y-139212D01*
X404151Y-139334D01*
X403287Y-139692D01*
X402545Y-140261D01*
X401975Y-141004D01*
X401617Y-141868D01*
X401495Y-142795D01*
X401617Y-143723D01*
X401940Y-144501D01*
X392000Y-154441D01*
X391946Y-154522D01*
X391446Y-154370D01*
Y-134099D01*
X391517Y-133993D01*
X391607Y-133543D01*
X391517Y-133094D01*
X391446Y-132988D01*
Y-86855D01*
X391517Y-86748D01*
X391607Y-86299D01*
X391517Y-85850D01*
X391446Y-85743D01*
Y-39611D01*
X391517Y-39504D01*
X391607Y-39055D01*
X391517Y-38606D01*
X391263Y-38225D01*
X390882Y-37971D01*
X390433Y-37881D01*
X389984Y-37971D01*
X389978Y-37975D01*
X389885Y-37925D01*
X389549Y-37536D01*
X389638Y-37087D01*
X389549Y-36637D01*
X389295Y-36257D01*
X388914Y-36002D01*
X388465Y-35913D01*
X388015Y-36002D01*
X388009Y-36006D01*
X387917Y-35957D01*
X387580Y-35567D01*
X387670Y-35118D01*
X387580Y-34669D01*
X387326Y-34288D01*
X386945Y-34034D01*
X386496Y-33944D01*
X386047Y-34034D01*
X386041Y-34038D01*
X385948Y-33988D01*
X385612Y-33599D01*
X385701Y-33150D01*
X385612Y-32700D01*
X385357Y-32320D01*
X384977Y-32065D01*
X384527Y-31976D01*
X384078Y-32065D01*
X384072Y-32069D01*
X383980Y-32020D01*
X383643Y-31630D01*
X383733Y-31181D01*
X383643Y-30732D01*
X383389Y-30351D01*
X383008Y-30097D01*
X382559Y-30007D01*
X382110Y-30097D01*
X382104Y-30101D01*
X382011Y-30051D01*
X381675Y-29662D01*
X381764Y-29213D01*
X381675Y-28763D01*
X381420Y-28383D01*
X381040Y-28128D01*
X380591Y-28039D01*
X380141Y-28128D01*
X380135Y-28132D01*
X380043Y-28083D01*
X379706Y-27693D01*
X379796Y-27244D01*
X379706Y-26795D01*
X379452Y-26414D01*
X379071Y-26160D01*
X378622Y-26070D01*
X378173Y-26160D01*
X378167Y-26164D01*
X378074Y-26114D01*
X377738Y-25725D01*
X377827Y-25276D01*
X377738Y-24826D01*
X377484Y-24446D01*
X377103Y-24191D01*
X376654Y-24102D01*
X376204Y-24191D01*
X376198Y-24195D01*
X376106Y-24146D01*
X375769Y-23756D01*
X375859Y-23307D01*
X375769Y-22858D01*
X375515Y-22477D01*
X375134Y-22223D01*
X374685Y-22133D01*
X374236Y-22223D01*
X374230Y-22227D01*
X374137Y-22177D01*
X373801Y-21788D01*
X373890Y-21339D01*
X373801Y-20889D01*
X373547Y-20509D01*
X373166Y-20254D01*
X372716Y-20165D01*
X372267Y-20254D01*
X372261Y-20258D01*
X372169Y-20209D01*
X371832Y-19819D01*
X371922Y-19370D01*
X371832Y-18921D01*
X371578Y-18540D01*
X371197Y-18286D01*
X370748Y-18196D01*
X370299Y-18286D01*
X370293Y-18290D01*
X370200Y-18240D01*
X369864Y-17851D01*
X369953Y-17402D01*
X369864Y-16952D01*
X369609Y-16572D01*
X369229Y-16317D01*
X368779Y-16228D01*
X368330Y-16317D01*
X367950Y-16572D01*
X367695Y-16952D01*
X367606Y-17402D01*
X367695Y-17851D01*
X367766Y-17957D01*
Y-64090D01*
X367695Y-64196D01*
X367606Y-64646D01*
X367695Y-65095D01*
X367766Y-65201D01*
Y-111334D01*
X367695Y-111441D01*
X367606Y-111890D01*
X367695Y-112339D01*
X367766Y-112445D01*
Y-158578D01*
X367695Y-158685D01*
X367606Y-159134D01*
X367695Y-159583D01*
X367950Y-159964D01*
X368330Y-160218D01*
X368779Y-160308D01*
X369229Y-160218D01*
X369235Y-160214D01*
X369327Y-160264D01*
X369664Y-160653D01*
X369574Y-161102D01*
X369664Y-161551D01*
X369918Y-161932D01*
X370299Y-162187D01*
X370748Y-162276D01*
X371197Y-162187D01*
X371203Y-162183D01*
X371296Y-162232D01*
X371632Y-162622D01*
X371543Y-163071D01*
X371632Y-163520D01*
X371887Y-163901D01*
X372267Y-164155D01*
X372716Y-164245D01*
X373166Y-164155D01*
X373172Y-164151D01*
X373264Y-164200D01*
X373601Y-164590D01*
X373511Y-165039D01*
X373601Y-165489D01*
X373855Y-165869D01*
X374236Y-166124D01*
X374685Y-166213D01*
X375134Y-166124D01*
X375140Y-166120D01*
X375233Y-166169D01*
X375569Y-166559D01*
X375480Y-167008D01*
X375569Y-167457D01*
X375824Y-167838D01*
X376204Y-168092D01*
X376654Y-168182D01*
X377103Y-168092D01*
X377109Y-168088D01*
X377201Y-168138D01*
X377538Y-168527D01*
X377448Y-168976D01*
X377538Y-169425D01*
X377792Y-169806D01*
X378173Y-170061D01*
X378622Y-170150D01*
X379071Y-170061D01*
X379077Y-170057D01*
X379170Y-170106D01*
X379506Y-170496D01*
X379417Y-170945D01*
X379506Y-171394D01*
X379761Y-171775D01*
X380141Y-172029D01*
X380591Y-172119D01*
X381040Y-172029D01*
X381046Y-172025D01*
X381138Y-172074D01*
X381475Y-172464D01*
X381385Y-172913D01*
X381475Y-173363D01*
X381729Y-173743D01*
X382110Y-173998D01*
X382559Y-174087D01*
X383008Y-173998D01*
X383014Y-173994D01*
X383107Y-174043D01*
X383443Y-174433D01*
X383354Y-174882D01*
X383443Y-175331D01*
X383698Y-175712D01*
X384078Y-175966D01*
X384527Y-176056D01*
X384977Y-175966D01*
X384983Y-175962D01*
X385075Y-176012D01*
X385412Y-176401D01*
X385322Y-176850D01*
X385412Y-177300D01*
X385666Y-177680D01*
X386047Y-177935D01*
X386496Y-178024D01*
X386945Y-177935D01*
X386951Y-177931D01*
X387013Y-177964D01*
X387380Y-178315D01*
X387291Y-178764D01*
X387380Y-179213D01*
X387635Y-179594D01*
X388015Y-179848D01*
X388465Y-179938D01*
X388914Y-179848D01*
X388920Y-179844D01*
X389058Y-179918D01*
X389349Y-180338D01*
X389259Y-180787D01*
X389345Y-181219D01*
X389348Y-181238D01*
X389070Y-181719D01*
X370947D01*
X346779Y-157551D01*
X346451Y-157332D01*
X346063Y-157255D01*
X343730D01*
Y-111579D01*
X343801Y-111473D01*
X343890Y-111024D01*
X343801Y-110574D01*
X343730Y-110468D01*
Y-64335D01*
X343801Y-64229D01*
X343890Y-63779D01*
X343801Y-63330D01*
X343730Y-63224D01*
Y-17091D01*
X343801Y-16985D01*
X343890Y-16535D01*
X343801Y-16086D01*
X343547Y-15706D01*
X343166Y-15451D01*
X342717Y-15362D01*
D02*
G37*
G36*
X409449Y-5274D02*
X408174Y-5400D01*
X406947Y-5772D01*
X405817Y-6376D01*
X404826Y-7189D01*
X404013Y-8179D01*
X403409Y-9309D01*
X403037Y-10536D01*
X402912Y-11811D01*
X403037Y-13086D01*
X403409Y-14313D01*
X404013Y-15443D01*
X404826Y-16433D01*
X405817Y-17246D01*
X406947Y-17850D01*
X408174Y-18222D01*
X409449Y-18348D01*
X410724Y-18222D01*
X411950Y-17850D01*
X413081Y-17246D01*
X414071Y-16433D01*
X414884Y-15443D01*
X415488Y-14313D01*
X415860Y-13086D01*
X415986Y-11811D01*
X415860Y-10536D01*
X415488Y-9309D01*
X414884Y-8179D01*
X414071Y-7189D01*
X413081Y-6376D01*
X411950Y-5772D01*
X410724Y-5400D01*
X409449Y-5274D01*
D02*
G37*
G36*
X-11811D02*
X-13086Y-5400D01*
X-14313Y-5772D01*
X-15443Y-6376D01*
X-16433Y-7189D01*
X-17246Y-8179D01*
X-17850Y-9309D01*
X-18222Y-10536D01*
X-18348Y-11811D01*
X-18222Y-13086D01*
X-17850Y-14313D01*
X-17246Y-15443D01*
X-16433Y-16433D01*
X-15443Y-17246D01*
X-14313Y-17850D01*
X-13086Y-18222D01*
X-11811Y-18348D01*
X-10536Y-18222D01*
X-9309Y-17850D01*
X-8179Y-17246D01*
X-7189Y-16433D01*
X-6376Y-15443D01*
X-5772Y-14313D01*
X-5400Y-13086D01*
X-5274Y-11811D01*
X-5400Y-10536D01*
X-5772Y-9309D01*
X-6376Y-8179D01*
X-7189Y-7189D01*
X-8179Y-6376D01*
X-9309Y-5772D01*
X-10536Y-5400D01*
X-11811Y-5274D01*
D02*
G37*
G36*
X305512Y-16495D02*
X304894Y-16618D01*
X304370Y-16968D01*
X304019Y-17492D01*
X303896Y-18110D01*
X304019Y-18728D01*
X304370Y-19252D01*
X304894Y-19603D01*
X305512Y-19726D01*
X306130Y-19603D01*
X306654Y-19252D01*
X307004Y-18728D01*
X307127Y-18110D01*
X307004Y-17492D01*
X306654Y-16968D01*
X306130Y-16618D01*
X305512Y-16495D01*
D02*
G37*
G36*
X218898Y-16889D02*
X217970Y-17011D01*
X217106Y-17369D01*
X216364Y-17939D01*
X215794Y-18681D01*
X215436Y-19545D01*
X215314Y-20472D01*
X215436Y-21400D01*
X215794Y-22264D01*
X216364Y-23006D01*
X217106Y-23576D01*
X217970Y-23934D01*
X218898Y-24056D01*
X219825Y-23934D01*
X220689Y-23576D01*
X221431Y-23006D01*
X222001Y-22264D01*
X222359Y-21400D01*
X222481Y-20472D01*
X222359Y-19545D01*
X222001Y-18681D01*
X221431Y-17939D01*
X220689Y-17369D01*
X219825Y-17011D01*
X218898Y-16889D01*
D02*
G37*
G36*
X208898D02*
X207970Y-17011D01*
X207106Y-17369D01*
X206364Y-17939D01*
X205794Y-18681D01*
X205436Y-19545D01*
X205314Y-20472D01*
X205436Y-21400D01*
X205794Y-22264D01*
X206364Y-23006D01*
X207106Y-23576D01*
X207970Y-23934D01*
X208898Y-24056D01*
X209825Y-23934D01*
X210689Y-23576D01*
X211432Y-23006D01*
X212001Y-22264D01*
X212359Y-21400D01*
X212481Y-20472D01*
X212359Y-19545D01*
X212001Y-18681D01*
X211432Y-17939D01*
X210689Y-17369D01*
X209825Y-17011D01*
X208898Y-16889D01*
D02*
G37*
G36*
X184055Y-21023D02*
X183437Y-21146D01*
X182913Y-21496D01*
X182563Y-22020D01*
X182440Y-22638D01*
X182563Y-23256D01*
X182913Y-23780D01*
X183437Y-24130D01*
X184055Y-24253D01*
X184673Y-24130D01*
X185197Y-23780D01*
X185547Y-23256D01*
X185670Y-22638D01*
X185547Y-22020D01*
X185197Y-21496D01*
X184673Y-21146D01*
X184055Y-21023D01*
D02*
G37*
G36*
X85827Y-18385D02*
X84899Y-18507D01*
X84035Y-18865D01*
X83293Y-19435D01*
X82723Y-20177D01*
X82366Y-21041D01*
X82243Y-21969D01*
X82366Y-22896D01*
X82723Y-23760D01*
X83293Y-24502D01*
X84035Y-25072D01*
X84899Y-25430D01*
X85827Y-25552D01*
X86754Y-25430D01*
X87618Y-25072D01*
X88361Y-24502D01*
X88930Y-23760D01*
X89288Y-22896D01*
X89410Y-21969D01*
X89288Y-21041D01*
X88930Y-20177D01*
X88361Y-19435D01*
X87618Y-18865D01*
X86754Y-18507D01*
X85827Y-18385D01*
D02*
G37*
G36*
X5827D02*
X4899Y-18507D01*
X4035Y-18865D01*
X3293Y-19435D01*
X2723Y-20177D01*
X2365Y-21041D01*
X2243Y-21969D01*
X2365Y-22896D01*
X2723Y-23760D01*
X3293Y-24502D01*
X4035Y-25072D01*
X4899Y-25430D01*
X5827Y-25552D01*
X6754Y-25430D01*
X7619Y-25072D01*
X8361Y-24502D01*
X8930Y-23760D01*
X9288Y-22896D01*
X9410Y-21969D01*
X9288Y-21041D01*
X8930Y-20177D01*
X8361Y-19435D01*
X7619Y-18865D01*
X6754Y-18507D01*
X5827Y-18385D01*
D02*
G37*
G36*
X75827Y-18337D02*
X74887Y-18461D01*
X74011Y-18824D01*
X73259Y-19401D01*
X72682Y-20153D01*
X72319Y-21029D01*
X72196Y-21969D01*
X72319Y-22908D01*
X72682Y-23784D01*
X73259Y-24536D01*
X74011Y-25113D01*
X74887Y-25476D01*
X75827Y-25600D01*
X76767Y-25476D01*
X77642Y-25113D01*
X78394Y-24536D01*
X78971Y-23784D01*
X79334Y-22908D01*
X79458Y-21969D01*
X79334Y-21029D01*
X78971Y-20153D01*
X78394Y-19401D01*
X77642Y-18824D01*
X76767Y-18461D01*
X75827Y-18337D01*
D02*
G37*
G36*
X15827D02*
X14887Y-18461D01*
X14011Y-18824D01*
X13259Y-19401D01*
X12682Y-20153D01*
X12319Y-21029D01*
X12196Y-21969D01*
X12319Y-22908D01*
X12682Y-23784D01*
X13259Y-24536D01*
X14011Y-25113D01*
X14887Y-25476D01*
X15827Y-25600D01*
X16767Y-25476D01*
X17642Y-25113D01*
X18394Y-24536D01*
X18971Y-23784D01*
X19334Y-22908D01*
X19458Y-21969D01*
X19334Y-21029D01*
X18971Y-20153D01*
X18394Y-19401D01*
X17642Y-18824D01*
X16767Y-18461D01*
X15827Y-18337D01*
D02*
G37*
G36*
X232283Y-23582D02*
X231665Y-23705D01*
X231141Y-24055D01*
X230791Y-24579D01*
X230668Y-25197D01*
X230791Y-25815D01*
X231141Y-26339D01*
X231665Y-26689D01*
X232283Y-26812D01*
X232902Y-26689D01*
X233426Y-26339D01*
X233776Y-25815D01*
X233899Y-25197D01*
X233776Y-24579D01*
X233426Y-24055D01*
X232902Y-23705D01*
X232283Y-23582D01*
D02*
G37*
G36*
X181996Y-31541D02*
Y-32965D01*
X183420D01*
X183365Y-32690D01*
X182927Y-32034D01*
X182270Y-31595D01*
X181996Y-31541D01*
D02*
G37*
G36*
X180996D02*
X180722Y-31595D01*
X180066Y-32034D01*
X179627Y-32690D01*
X179572Y-32965D01*
X180996D01*
Y-31541D01*
D02*
G37*
G36*
X222450Y-26920D02*
X215345D01*
Y-34025D01*
X222450D01*
Y-26920D01*
D02*
G37*
G36*
X208898Y-26889D02*
X207970Y-27011D01*
X207106Y-27369D01*
X206364Y-27939D01*
X205794Y-28681D01*
X205436Y-29545D01*
X205314Y-30472D01*
X205436Y-31400D01*
X205794Y-32264D01*
X206364Y-33006D01*
X207106Y-33576D01*
X207970Y-33934D01*
X208898Y-34056D01*
X209825Y-33934D01*
X210689Y-33576D01*
X211432Y-33006D01*
X212001Y-32264D01*
X212359Y-31400D01*
X212481Y-30472D01*
X212359Y-29545D01*
X212001Y-28681D01*
X211432Y-27939D01*
X210689Y-27369D01*
X209825Y-27011D01*
X208898Y-26889D01*
D02*
G37*
G36*
X183420Y-33965D02*
X181996D01*
Y-35388D01*
X182270Y-35334D01*
X182927Y-34895D01*
X183365Y-34239D01*
X183420Y-33965D01*
D02*
G37*
G36*
X180996D02*
X179572D01*
X179627Y-34239D01*
X180066Y-34895D01*
X180722Y-35334D01*
X180996Y-35388D01*
Y-33965D01*
D02*
G37*
G36*
X308071Y-27370D02*
X307622Y-27459D01*
X307241Y-27713D01*
X306986Y-28094D01*
X306951Y-28271D01*
X299818Y-35404D01*
X244087D01*
X244032Y-35252D01*
X244004Y-34904D01*
X244449Y-34607D01*
X244799Y-34083D01*
X244922Y-33465D01*
X244799Y-32846D01*
X244449Y-32322D01*
X243925Y-31972D01*
X243307Y-31849D01*
X242689Y-31972D01*
X242165Y-32322D01*
X241815Y-32846D01*
X241692Y-33465D01*
X241815Y-34083D01*
X242165Y-34607D01*
X242610Y-34904D01*
X242582Y-35252D01*
X242527Y-35404D01*
X188976D01*
X188589Y-35481D01*
X188260Y-35701D01*
X173793Y-50168D01*
X160075D01*
X159945Y-49668D01*
X160479Y-49258D01*
X160976Y-48611D01*
X161288Y-47857D01*
X161395Y-47047D01*
X161288Y-46238D01*
X160976Y-45484D01*
X160479Y-44836D01*
X159831Y-44339D01*
X159077Y-44027D01*
X158268Y-43920D01*
X157458Y-44027D01*
X156704Y-44339D01*
X156057Y-44836D01*
X155560Y-45484D01*
X155247Y-46238D01*
X155141Y-47047D01*
X155247Y-47857D01*
X155560Y-48611D01*
X156057Y-49258D01*
X156591Y-49668D01*
X156460Y-50168D01*
X142359D01*
X142228Y-49668D01*
X142762Y-49258D01*
X143259Y-48611D01*
X143571Y-47857D01*
X143678Y-47047D01*
X143571Y-46238D01*
X143259Y-45484D01*
X142762Y-44836D01*
X142115Y-44339D01*
X141360Y-44027D01*
X140551Y-43920D01*
X139742Y-44027D01*
X138988Y-44339D01*
X138340Y-44836D01*
X137843Y-45484D01*
X137531Y-46238D01*
X137424Y-47047D01*
X137531Y-47857D01*
X137843Y-48611D01*
X138340Y-49258D01*
X138874Y-49668D01*
X138744Y-50168D01*
X132516D01*
X132386Y-49668D01*
X132920Y-49258D01*
X133416Y-48611D01*
X133729Y-47857D01*
X133835Y-47047D01*
X133729Y-46238D01*
X133416Y-45484D01*
X132920Y-44836D01*
X132272Y-44339D01*
X131518Y-44027D01*
X130709Y-43920D01*
X129899Y-44027D01*
X129145Y-44339D01*
X128498Y-44836D01*
X128001Y-45484D01*
X127688Y-46238D01*
X127582Y-47047D01*
X127688Y-47857D01*
X128001Y-48611D01*
X128498Y-49258D01*
X129032Y-49668D01*
X128901Y-50168D01*
X128372D01*
X124553Y-46348D01*
X124224Y-46128D01*
X123836Y-46051D01*
X91342D01*
X88966Y-43674D01*
X89288Y-42896D01*
X89410Y-41969D01*
X89288Y-41041D01*
X88930Y-40177D01*
X88361Y-39435D01*
X87618Y-38865D01*
X86754Y-38507D01*
X85827Y-38385D01*
X84899Y-38507D01*
X84035Y-38865D01*
X83293Y-39435D01*
X82723Y-40177D01*
X82366Y-41041D01*
X82243Y-41969D01*
X82366Y-42896D01*
X82723Y-43760D01*
X83293Y-44502D01*
X84035Y-45072D01*
X84899Y-45430D01*
X85827Y-45552D01*
X86754Y-45430D01*
X87533Y-45107D01*
X90206Y-47781D01*
X90535Y-48000D01*
X90923Y-48078D01*
X123416D01*
X127236Y-51898D01*
X127565Y-52117D01*
X127953Y-52194D01*
X174213D01*
X174600Y-52117D01*
X174929Y-51898D01*
X189396Y-37431D01*
X285585D01*
X285879Y-37931D01*
X285786Y-38395D01*
X285909Y-39013D01*
X286259Y-39538D01*
X286783Y-39888D01*
X287402Y-40011D01*
X288020Y-39888D01*
X288544Y-39538D01*
X288894Y-39013D01*
X289017Y-38395D01*
X288924Y-37931D01*
X289218Y-37431D01*
X300238D01*
X300626Y-37353D01*
X300955Y-37134D01*
X308446Y-29643D01*
X308520Y-29628D01*
X308901Y-29373D01*
X309155Y-28993D01*
X309245Y-28543D01*
X309155Y-28094D01*
X308901Y-27713D01*
X308520Y-27459D01*
X308071Y-27370D01*
D02*
G37*
G36*
X5827Y-28385D02*
X4899Y-28507D01*
X4035Y-28865D01*
X3293Y-29435D01*
X2723Y-30177D01*
X2365Y-31041D01*
X2243Y-31969D01*
X2365Y-32896D01*
X2723Y-33760D01*
X3293Y-34502D01*
X4035Y-35072D01*
X4899Y-35430D01*
X5827Y-35552D01*
X6754Y-35430D01*
X7619Y-35072D01*
X8361Y-34502D01*
X8930Y-33760D01*
X9288Y-32896D01*
X9410Y-31969D01*
X9288Y-31041D01*
X8930Y-30177D01*
X8361Y-29435D01*
X7619Y-28865D01*
X6754Y-28507D01*
X5827Y-28385D01*
D02*
G37*
G36*
X15827Y-28337D02*
X14887Y-28461D01*
X14011Y-28824D01*
X13259Y-29401D01*
X12682Y-30153D01*
X12319Y-31029D01*
X12196Y-31969D01*
X12319Y-32908D01*
X12682Y-33784D01*
X13259Y-34536D01*
X14011Y-35113D01*
X14887Y-35476D01*
X15827Y-35600D01*
X16767Y-35476D01*
X17642Y-35113D01*
X18394Y-34536D01*
X18971Y-33784D01*
X19334Y-32908D01*
X19458Y-31969D01*
X19334Y-31029D01*
X18971Y-30153D01*
X18394Y-29401D01*
X17642Y-28824D01*
X16767Y-28461D01*
X15827Y-28337D01*
D02*
G37*
G36*
X352559Y-2370D02*
X352110Y-2459D01*
X351729Y-2713D01*
X351475Y-3094D01*
X351385Y-3543D01*
X351475Y-3993D01*
X351546Y-4099D01*
Y-37826D01*
X351046Y-38093D01*
X351040Y-38089D01*
X350590Y-37999D01*
X350141Y-38089D01*
X349761Y-38343D01*
X349506Y-38724D01*
X349417Y-39173D01*
X349506Y-39622D01*
X349761Y-40003D01*
X350141Y-40258D01*
X350590Y-40347D01*
X351040Y-40258D01*
X351046Y-40253D01*
X351546Y-40521D01*
Y-50232D01*
X351475Y-50338D01*
X351385Y-50787D01*
X351475Y-51237D01*
X351546Y-51343D01*
Y-97476D01*
X351475Y-97582D01*
X351385Y-98032D01*
X351475Y-98481D01*
X351546Y-98587D01*
Y-128377D01*
X351046Y-128644D01*
X351040Y-128640D01*
X350590Y-128551D01*
X350141Y-128640D01*
X349761Y-128894D01*
X349506Y-129275D01*
X349417Y-129724D01*
X349506Y-130174D01*
X349761Y-130554D01*
X350141Y-130809D01*
X350590Y-130898D01*
X351040Y-130809D01*
X351046Y-130805D01*
X351546Y-131072D01*
Y-144720D01*
X351475Y-144826D01*
X351385Y-145276D01*
X351475Y-145725D01*
X351729Y-146106D01*
X352110Y-146360D01*
X352559Y-146449D01*
X352869Y-146388D01*
X353074Y-146417D01*
X353402Y-146698D01*
X353443Y-146906D01*
X353698Y-147287D01*
X354078Y-147541D01*
X354528Y-147630D01*
X354838Y-147569D01*
X355043Y-147598D01*
X355370Y-147879D01*
X355412Y-148087D01*
X355666Y-148468D01*
X356047Y-148722D01*
X356496Y-148811D01*
X356806Y-148750D01*
X357012Y-148779D01*
X357339Y-149060D01*
X357380Y-149268D01*
X357635Y-149649D01*
X358015Y-149903D01*
X358465Y-149993D01*
X358914Y-149903D01*
X359295Y-149649D01*
X359549Y-149268D01*
X359638Y-148819D01*
X359549Y-148370D01*
X359478Y-148263D01*
Y-102330D01*
X359575Y-102185D01*
X359664Y-101736D01*
X359575Y-101287D01*
X359478Y-101142D01*
Y-54887D01*
X359549Y-54780D01*
X359638Y-54331D01*
X359549Y-53882D01*
X359478Y-53775D01*
Y-7642D01*
X359549Y-7536D01*
X359638Y-7087D01*
X359549Y-6637D01*
X359295Y-6257D01*
X358914Y-6002D01*
X358465Y-5913D01*
X358155Y-5975D01*
X357949Y-5945D01*
X357622Y-5664D01*
X357580Y-5456D01*
X357326Y-5076D01*
X356945Y-4821D01*
X356496Y-4732D01*
X356186Y-4794D01*
X355981Y-4764D01*
X355653Y-4483D01*
X355612Y-4275D01*
X355358Y-3895D01*
X354977Y-3640D01*
X354528Y-3551D01*
X354218Y-3612D01*
X354012Y-3583D01*
X353685Y-3302D01*
X353643Y-3094D01*
X353389Y-2713D01*
X353008Y-2459D01*
X352559Y-2370D01*
D02*
G37*
G36*
X131102Y-32306D02*
X130293Y-32413D01*
X129539Y-32725D01*
X128891Y-33222D01*
X128394Y-33870D01*
X128082Y-34624D01*
X127976Y-35433D01*
X128082Y-36242D01*
X128394Y-36996D01*
X128891Y-37644D01*
X129539Y-38141D01*
X130293Y-38453D01*
X131102Y-38560D01*
X131912Y-38453D01*
X132666Y-38141D01*
X133313Y-37644D01*
X133810Y-36996D01*
X134123Y-36242D01*
X134229Y-35433D01*
X134123Y-34624D01*
X133810Y-33870D01*
X133313Y-33222D01*
X132666Y-32725D01*
X131912Y-32413D01*
X131102Y-32306D01*
D02*
G37*
G36*
X143701Y-35393D02*
X143083Y-35515D01*
X142559Y-35866D01*
X142208Y-36390D01*
X142086Y-37008D01*
X142208Y-37626D01*
X142559Y-38150D01*
X143083Y-38500D01*
X143701Y-38623D01*
X144319Y-38500D01*
X144843Y-38150D01*
X145193Y-37626D01*
X145316Y-37008D01*
X145193Y-36390D01*
X144843Y-35866D01*
X144319Y-35515D01*
X143701Y-35393D01*
D02*
G37*
G36*
X104331Y-35787D02*
X103403Y-35909D01*
X102539Y-36267D01*
X101797Y-36836D01*
X101227Y-37578D01*
X100869Y-38443D01*
X100747Y-39370D01*
X100869Y-40297D01*
X101227Y-41162D01*
X101797Y-41904D01*
X102539Y-42473D01*
X103403Y-42831D01*
X104331Y-42954D01*
X105258Y-42831D01*
X106122Y-42473D01*
X106865Y-41904D01*
X107434Y-41162D01*
X107792Y-40297D01*
X107914Y-39370D01*
X107792Y-38443D01*
X107434Y-37578D01*
X106865Y-36836D01*
X106122Y-36267D01*
X105258Y-35909D01*
X104331Y-35787D01*
D02*
G37*
G36*
X5827Y-38385D02*
X4899Y-38507D01*
X4035Y-38865D01*
X3293Y-39435D01*
X2723Y-40177D01*
X2365Y-41041D01*
X2243Y-41969D01*
X2365Y-42896D01*
X2723Y-43760D01*
X3293Y-44502D01*
X4035Y-45072D01*
X4899Y-45430D01*
X5827Y-45552D01*
X6754Y-45430D01*
X7619Y-45072D01*
X8361Y-44502D01*
X8930Y-43760D01*
X9288Y-42896D01*
X9410Y-41969D01*
X9288Y-41041D01*
X8930Y-40177D01*
X8361Y-39435D01*
X7619Y-38865D01*
X6754Y-38507D01*
X5827Y-38385D01*
D02*
G37*
G36*
X15827Y-38337D02*
X14887Y-38461D01*
X14011Y-38824D01*
X13259Y-39401D01*
X12682Y-40153D01*
X12319Y-41029D01*
X12196Y-41969D01*
X12319Y-42908D01*
X12682Y-43784D01*
X13259Y-44536D01*
X14011Y-45113D01*
X14887Y-45476D01*
X15827Y-45600D01*
X16767Y-45476D01*
X17642Y-45113D01*
X18394Y-44536D01*
X18971Y-43784D01*
X19334Y-42908D01*
X19458Y-41969D01*
X19334Y-41029D01*
X18971Y-40153D01*
X18394Y-39401D01*
X17642Y-38824D01*
X16767Y-38461D01*
X15827Y-38337D01*
D02*
G37*
G36*
X361968Y-43332D02*
X361466Y-43431D01*
X361039Y-43716D01*
X360754Y-44143D01*
X360654Y-44646D01*
X360754Y-45149D01*
X361039Y-45575D01*
X361466Y-45860D01*
X361968Y-45960D01*
X362471Y-45860D01*
X362898Y-45575D01*
X363183Y-45149D01*
X363283Y-44646D01*
X363183Y-44143D01*
X362898Y-43716D01*
X362471Y-43431D01*
X361968Y-43332D01*
D02*
G37*
G36*
X415079Y-39212D02*
X414151Y-39334D01*
X413287Y-39692D01*
X412545Y-40261D01*
X411975Y-41004D01*
X411617Y-41868D01*
X411495Y-42795D01*
X411617Y-43723D01*
X411975Y-44587D01*
X412545Y-45329D01*
X413287Y-45899D01*
X414151Y-46257D01*
X415079Y-46379D01*
X416006Y-46257D01*
X416870Y-45899D01*
X417613Y-45329D01*
X418182Y-44587D01*
X418540Y-43723D01*
X418662Y-42795D01*
X418540Y-41868D01*
X418182Y-41004D01*
X417613Y-40261D01*
X416870Y-39692D01*
X416006Y-39334D01*
X415079Y-39212D01*
D02*
G37*
G36*
X405079D02*
X404151Y-39334D01*
X403287Y-39692D01*
X402545Y-40261D01*
X401975Y-41004D01*
X401617Y-41868D01*
X401495Y-42795D01*
X401617Y-43723D01*
X401975Y-44587D01*
X402545Y-45329D01*
X403287Y-45899D01*
X404151Y-46257D01*
X405079Y-46379D01*
X406006Y-46257D01*
X406870Y-45899D01*
X407613Y-45329D01*
X408182Y-44587D01*
X408540Y-43723D01*
X408662Y-42795D01*
X408540Y-41868D01*
X408182Y-41004D01*
X407613Y-40261D01*
X406870Y-39692D01*
X406006Y-39334D01*
X405079Y-39212D01*
D02*
G37*
G36*
X241933Y-45415D02*
Y-46839D01*
X243357D01*
X243302Y-46564D01*
X242864Y-45908D01*
X242207Y-45469D01*
X241933Y-45415D01*
D02*
G37*
G36*
X240933D02*
X240659Y-45469D01*
X240002Y-45908D01*
X239564Y-46564D01*
X239509Y-46839D01*
X240933D01*
Y-45415D01*
D02*
G37*
G36*
X266929Y-45536D02*
X266426Y-45636D01*
X266000Y-45921D01*
X265715Y-46347D01*
X265615Y-46850D01*
X265715Y-47353D01*
X266000Y-47780D01*
X266426Y-48065D01*
X266929Y-48165D01*
X267432Y-48065D01*
X267858Y-47780D01*
X268143Y-47353D01*
X268243Y-46850D01*
X268143Y-46347D01*
X267858Y-45921D01*
X267432Y-45636D01*
X266929Y-45536D01*
D02*
G37*
G36*
X235433Y-45629D02*
X234815Y-45752D01*
X234291Y-46102D01*
X233941Y-46626D01*
X233818Y-47244D01*
X233941Y-47862D01*
X234291Y-48386D01*
X234815Y-48736D01*
X235433Y-48859D01*
X236051Y-48736D01*
X236575Y-48386D01*
X236925Y-47862D01*
X237048Y-47244D01*
X236925Y-46626D01*
X236575Y-46102D01*
X236051Y-45752D01*
X235433Y-45629D01*
D02*
G37*
G36*
X243357Y-47839D02*
X241933D01*
Y-49262D01*
X242207Y-49208D01*
X242864Y-48769D01*
X243302Y-48113D01*
X243357Y-47839D01*
D02*
G37*
G36*
X240933D02*
X239509D01*
X239564Y-48113D01*
X240002Y-48769D01*
X240659Y-49208D01*
X240933Y-49262D01*
Y-47839D01*
D02*
G37*
G36*
X219398Y-46315D02*
Y-49736D01*
X222819D01*
X222749Y-49204D01*
X222350Y-48243D01*
X221717Y-47417D01*
X220891Y-46784D01*
X219930Y-46385D01*
X219398Y-46315D01*
D02*
G37*
G36*
X218398Y-46315D02*
X217866Y-46385D01*
X216904Y-46784D01*
X216078Y-47417D01*
X215445Y-48243D01*
X215047Y-49204D01*
X214977Y-49736D01*
X218398D01*
Y-46315D01*
D02*
G37*
G36*
X405579Y-48874D02*
Y-52295D01*
X409000D01*
X408930Y-51763D01*
X408531Y-50802D01*
X407898Y-49976D01*
X407072Y-49343D01*
X406111Y-48944D01*
X405579Y-48874D01*
D02*
G37*
G36*
X404579D02*
X404047Y-48944D01*
X403085Y-49343D01*
X402260Y-49976D01*
X401626Y-50802D01*
X401228Y-51763D01*
X401158Y-52295D01*
X404579D01*
Y-48874D01*
D02*
G37*
G36*
X208898Y-46653D02*
X207970Y-46775D01*
X207106Y-47133D01*
X206364Y-47702D01*
X205794Y-48445D01*
X205436Y-49309D01*
X205314Y-50236D01*
X205436Y-51164D01*
X205794Y-52028D01*
X206364Y-52770D01*
X207106Y-53339D01*
X207970Y-53698D01*
X208898Y-53820D01*
X209825Y-53698D01*
X210689Y-53339D01*
X211432Y-52770D01*
X212001Y-52028D01*
X212359Y-51164D01*
X212481Y-50236D01*
X212359Y-49309D01*
X212001Y-48445D01*
X211432Y-47702D01*
X210689Y-47133D01*
X209825Y-46775D01*
X208898Y-46653D01*
D02*
G37*
G36*
X218398Y-50736D02*
X214977D01*
X215047Y-51268D01*
X215445Y-52230D01*
X216078Y-53055D01*
X216904Y-53689D01*
X217866Y-54087D01*
X218398Y-54157D01*
Y-50736D01*
D02*
G37*
G36*
X222819D02*
X219398D01*
Y-54157D01*
X219930Y-54087D01*
X220891Y-53689D01*
X221717Y-53055D01*
X222350Y-52230D01*
X222749Y-51268D01*
X222819Y-50736D01*
D02*
G37*
G36*
X85827Y-48385D02*
X84899Y-48507D01*
X84035Y-48865D01*
X83293Y-49435D01*
X82723Y-50177D01*
X82366Y-51041D01*
X82243Y-51968D01*
X82366Y-52896D01*
X82723Y-53760D01*
X83293Y-54502D01*
X84035Y-55072D01*
X84899Y-55430D01*
X85827Y-55552D01*
X86754Y-55430D01*
X87618Y-55072D01*
X88361Y-54502D01*
X88930Y-53760D01*
X89288Y-52896D01*
X89410Y-51968D01*
X89288Y-51041D01*
X88930Y-50177D01*
X88361Y-49435D01*
X87618Y-48865D01*
X86754Y-48507D01*
X85827Y-48385D01*
D02*
G37*
G36*
X5827D02*
X4899Y-48507D01*
X4035Y-48865D01*
X3293Y-49435D01*
X2723Y-50177D01*
X2365Y-51041D01*
X2243Y-51968D01*
X2365Y-52896D01*
X2723Y-53760D01*
X3293Y-54502D01*
X4035Y-55072D01*
X4899Y-55430D01*
X5827Y-55552D01*
X6754Y-55430D01*
X7619Y-55072D01*
X8361Y-54502D01*
X8930Y-53760D01*
X9288Y-52896D01*
X9410Y-51968D01*
X9288Y-51041D01*
X8930Y-50177D01*
X8361Y-49435D01*
X7619Y-48865D01*
X6754Y-48507D01*
X5827Y-48385D01*
D02*
G37*
G36*
X15827Y-48337D02*
X14887Y-48461D01*
X14011Y-48824D01*
X13259Y-49401D01*
X12682Y-50153D01*
X12319Y-51029D01*
X12196Y-51968D01*
X12319Y-52908D01*
X12682Y-53784D01*
X13259Y-54536D01*
X14011Y-55113D01*
X14887Y-55476D01*
X15827Y-55600D01*
X16767Y-55476D01*
X17642Y-55113D01*
X18394Y-54536D01*
X18971Y-53784D01*
X19334Y-52908D01*
X19458Y-51968D01*
X19334Y-51029D01*
X18971Y-50153D01*
X18394Y-49401D01*
X17642Y-48824D01*
X16767Y-48461D01*
X15827Y-48337D01*
D02*
G37*
G36*
X415079Y-49212D02*
X414151Y-49334D01*
X413287Y-49692D01*
X412545Y-50261D01*
X411975Y-51004D01*
X411617Y-51868D01*
X411495Y-52795D01*
X411617Y-53723D01*
X411975Y-54587D01*
X412545Y-55329D01*
X413287Y-55899D01*
X414151Y-56257D01*
X415079Y-56379D01*
X416006Y-56257D01*
X416870Y-55899D01*
X417613Y-55329D01*
X418182Y-54587D01*
X418540Y-53723D01*
X418662Y-52795D01*
X418540Y-51868D01*
X418182Y-51004D01*
X417613Y-50261D01*
X416870Y-49692D01*
X416006Y-49334D01*
X415079Y-49212D01*
D02*
G37*
G36*
X409000Y-53295D02*
X405579D01*
Y-56716D01*
X406111Y-56646D01*
X407072Y-56248D01*
X407898Y-55614D01*
X408531Y-54789D01*
X408930Y-53827D01*
X409000Y-53295D01*
D02*
G37*
G36*
X404579D02*
X401158D01*
X401228Y-53827D01*
X401626Y-54789D01*
X402260Y-55614D01*
X403085Y-56248D01*
X404047Y-56646D01*
X404579Y-56716D01*
Y-53295D01*
D02*
G37*
G36*
X104331Y-51535D02*
X103403Y-51657D01*
X102539Y-52015D01*
X101797Y-52584D01*
X101227Y-53326D01*
X100869Y-54191D01*
X100747Y-55118D01*
X100869Y-56046D01*
X101227Y-56910D01*
X101797Y-57652D01*
X102539Y-58221D01*
X103403Y-58579D01*
X104331Y-58701D01*
X105258Y-58579D01*
X106122Y-58221D01*
X106865Y-57652D01*
X107434Y-56910D01*
X107792Y-56046D01*
X107914Y-55118D01*
X107792Y-54191D01*
X107434Y-53326D01*
X106865Y-52584D01*
X106122Y-52015D01*
X105258Y-51657D01*
X104331Y-51535D01*
D02*
G37*
G36*
X235117Y-58108D02*
X234499Y-58231D01*
X233975Y-58581D01*
X233625Y-59105D01*
X233502Y-59724D01*
X233625Y-60342D01*
X233975Y-60866D01*
X234499Y-61216D01*
X235117Y-61339D01*
X235735Y-61216D01*
X236260Y-60866D01*
X236610Y-60342D01*
X236733Y-59724D01*
X236610Y-59105D01*
X236260Y-58581D01*
X235735Y-58231D01*
X235117Y-58108D01*
D02*
G37*
G36*
X218898Y-56653D02*
X217970Y-56775D01*
X217106Y-57133D01*
X216364Y-57702D01*
X215794Y-58444D01*
X215436Y-59309D01*
X215314Y-60236D01*
X215436Y-61164D01*
X215794Y-62028D01*
X216364Y-62770D01*
X217106Y-63340D01*
X217970Y-63697D01*
X218898Y-63820D01*
X219825Y-63697D01*
X220689Y-63340D01*
X221431Y-62770D01*
X222001Y-62028D01*
X222359Y-61164D01*
X222481Y-60236D01*
X222359Y-59309D01*
X222001Y-58444D01*
X221431Y-57702D01*
X220689Y-57133D01*
X219825Y-56775D01*
X218898Y-56653D01*
D02*
G37*
G36*
X208898D02*
X207970Y-56775D01*
X207106Y-57133D01*
X206364Y-57702D01*
X205794Y-58444D01*
X205436Y-59309D01*
X205314Y-60236D01*
X205436Y-61164D01*
X205794Y-62028D01*
X206364Y-62770D01*
X207106Y-63340D01*
X207970Y-63697D01*
X208898Y-63820D01*
X209825Y-63697D01*
X210689Y-63340D01*
X211432Y-62770D01*
X212001Y-62028D01*
X212359Y-61164D01*
X212481Y-60236D01*
X212359Y-59309D01*
X212001Y-58444D01*
X211432Y-57702D01*
X210689Y-57133D01*
X209825Y-56775D01*
X208898Y-56653D01*
D02*
G37*
G36*
X5827Y-58385D02*
X4899Y-58507D01*
X4035Y-58865D01*
X3293Y-59435D01*
X2723Y-60177D01*
X2365Y-61041D01*
X2243Y-61968D01*
X2365Y-62896D01*
X2723Y-63760D01*
X3293Y-64502D01*
X4035Y-65072D01*
X4899Y-65430D01*
X5827Y-65552D01*
X6754Y-65430D01*
X7619Y-65072D01*
X8361Y-64502D01*
X8930Y-63760D01*
X9288Y-62896D01*
X9410Y-61968D01*
X9288Y-61041D01*
X8930Y-60177D01*
X8361Y-59435D01*
X7619Y-58865D01*
X6754Y-58507D01*
X5827Y-58385D01*
D02*
G37*
G36*
X75827Y-58337D02*
X74887Y-58461D01*
X74011Y-58824D01*
X73259Y-59401D01*
X72682Y-60153D01*
X72319Y-61029D01*
X72196Y-61968D01*
X72319Y-62908D01*
X72682Y-63784D01*
X73259Y-64536D01*
X74011Y-65113D01*
X74887Y-65476D01*
X75827Y-65600D01*
X76767Y-65476D01*
X77642Y-65113D01*
X78394Y-64536D01*
X78971Y-63784D01*
X79334Y-62908D01*
X79458Y-61968D01*
X79334Y-61029D01*
X78971Y-60153D01*
X78394Y-59401D01*
X77642Y-58824D01*
X76767Y-58461D01*
X75827Y-58337D01*
D02*
G37*
G36*
X15827D02*
X14887Y-58461D01*
X14011Y-58824D01*
X13259Y-59401D01*
X12682Y-60153D01*
X12319Y-61029D01*
X12196Y-61968D01*
X12319Y-62908D01*
X12682Y-63784D01*
X13259Y-64536D01*
X14011Y-65113D01*
X14887Y-65476D01*
X15827Y-65600D01*
X16767Y-65476D01*
X17642Y-65113D01*
X18394Y-64536D01*
X18971Y-63784D01*
X19334Y-62908D01*
X19458Y-61968D01*
X19334Y-61029D01*
X18971Y-60153D01*
X18394Y-59401D01*
X17642Y-58824D01*
X16767Y-58461D01*
X15827Y-58337D01*
D02*
G37*
G36*
X156693Y-60062D02*
X155884Y-60169D01*
X155130Y-60481D01*
X154482Y-60978D01*
X153985Y-61626D01*
X153673Y-62380D01*
X153566Y-63189D01*
X153673Y-63998D01*
X153985Y-64752D01*
X154482Y-65400D01*
X155130Y-65897D01*
X155884Y-66209D01*
X156693Y-66316D01*
X157502Y-66209D01*
X158256Y-65897D01*
X158904Y-65400D01*
X159401Y-64752D01*
X159713Y-63998D01*
X159820Y-63189D01*
X159713Y-62380D01*
X159401Y-61626D01*
X158904Y-60978D01*
X158256Y-60481D01*
X157502Y-60169D01*
X156693Y-60062D01*
D02*
G37*
G36*
X415079Y-59212D02*
X414151Y-59334D01*
X413287Y-59692D01*
X412545Y-60261D01*
X411975Y-61004D01*
X411617Y-61868D01*
X411495Y-62795D01*
X411617Y-63723D01*
X411975Y-64587D01*
X412545Y-65329D01*
X413287Y-65899D01*
X414151Y-66257D01*
X415079Y-66379D01*
X416006Y-66257D01*
X416870Y-65899D01*
X417613Y-65329D01*
X418182Y-64587D01*
X418540Y-63723D01*
X418662Y-62795D01*
X418540Y-61868D01*
X418182Y-61004D01*
X417613Y-60261D01*
X416870Y-59692D01*
X416006Y-59334D01*
X415079Y-59212D01*
D02*
G37*
G36*
X405079D02*
X404151Y-59334D01*
X403287Y-59692D01*
X402545Y-60261D01*
X401975Y-61004D01*
X401617Y-61868D01*
X401495Y-62795D01*
X401617Y-63723D01*
X401975Y-64587D01*
X402545Y-65329D01*
X403287Y-65899D01*
X404151Y-66257D01*
X405079Y-66379D01*
X406006Y-66257D01*
X406870Y-65899D01*
X407613Y-65329D01*
X408182Y-64587D01*
X408540Y-63723D01*
X408662Y-62795D01*
X408540Y-61868D01*
X408182Y-61004D01*
X407613Y-60261D01*
X406870Y-59692D01*
X406006Y-59334D01*
X405079Y-59212D01*
D02*
G37*
G36*
X276575Y-67282D02*
X275957Y-67405D01*
X275433Y-67756D01*
X275082Y-68279D01*
X274959Y-68898D01*
X275082Y-69516D01*
X275433Y-70040D01*
X275957Y-70390D01*
X276575Y-70513D01*
X277193Y-70390D01*
X277717Y-70040D01*
X278067Y-69516D01*
X278190Y-68898D01*
X278067Y-68279D01*
X277717Y-67756D01*
X277193Y-67405D01*
X276575Y-67282D01*
D02*
G37*
G36*
X181996Y-71305D02*
Y-72728D01*
X183420D01*
X183365Y-72454D01*
X182927Y-71798D01*
X182270Y-71359D01*
X181996Y-71305D01*
D02*
G37*
G36*
X180996D02*
X180722Y-71359D01*
X180066Y-71798D01*
X179627Y-72454D01*
X179572Y-72728D01*
X180996D01*
Y-71305D01*
D02*
G37*
G36*
X96457Y-64520D02*
X95324Y-64669D01*
X94268Y-65106D01*
X93361Y-65802D01*
X92666Y-66709D01*
X92228Y-67765D01*
X92079Y-68898D01*
X92228Y-70031D01*
X92666Y-71086D01*
X93361Y-71993D01*
X94268Y-72689D01*
X95324Y-73126D01*
X96457Y-73275D01*
X97590Y-73126D01*
X98646Y-72689D01*
X99552Y-71993D01*
X100248Y-71086D01*
X100685Y-70031D01*
X100834Y-68898D01*
X100685Y-67765D01*
X100248Y-66709D01*
X99552Y-65802D01*
X98646Y-65106D01*
X97590Y-64669D01*
X96457Y-64520D01*
D02*
G37*
G36*
X222450Y-66684D02*
X215345D01*
Y-73789D01*
X222450D01*
Y-66684D01*
D02*
G37*
G36*
X208898Y-66653D02*
X207970Y-66775D01*
X207106Y-67133D01*
X206364Y-67702D01*
X205794Y-68445D01*
X205436Y-69309D01*
X205314Y-70236D01*
X205436Y-71164D01*
X205794Y-72028D01*
X206364Y-72770D01*
X207106Y-73339D01*
X207970Y-73698D01*
X208898Y-73820D01*
X209825Y-73698D01*
X210689Y-73339D01*
X211432Y-72770D01*
X212001Y-72028D01*
X212359Y-71164D01*
X212481Y-70236D01*
X212359Y-69309D01*
X212001Y-68445D01*
X211432Y-67702D01*
X210689Y-67133D01*
X209825Y-66775D01*
X208898Y-66653D01*
D02*
G37*
G36*
X241689Y-72730D02*
Y-74154D01*
X243113D01*
X243058Y-73879D01*
X242619Y-73223D01*
X241963Y-72784D01*
X241689Y-72730D01*
D02*
G37*
G36*
X240689D02*
X240415Y-72784D01*
X239758Y-73223D01*
X239320Y-73879D01*
X239265Y-74154D01*
X240689D01*
Y-72730D01*
D02*
G37*
G36*
X183420Y-73728D02*
X181996D01*
Y-75152D01*
X182270Y-75098D01*
X182927Y-74659D01*
X183365Y-74003D01*
X183420Y-73728D01*
D02*
G37*
G36*
X180996D02*
X179572D01*
X179627Y-74003D01*
X180066Y-74659D01*
X180722Y-75098D01*
X180996Y-75152D01*
Y-73728D01*
D02*
G37*
G36*
X5827Y-68385D02*
X4899Y-68507D01*
X4035Y-68865D01*
X3293Y-69435D01*
X2723Y-70177D01*
X2365Y-71041D01*
X2243Y-71969D01*
X2365Y-72896D01*
X2723Y-73760D01*
X3293Y-74502D01*
X4035Y-75072D01*
X4899Y-75430D01*
X5827Y-75552D01*
X6754Y-75430D01*
X7619Y-75072D01*
X8361Y-74502D01*
X8930Y-73760D01*
X9288Y-72896D01*
X9410Y-71969D01*
X9288Y-71041D01*
X8930Y-70177D01*
X8361Y-69435D01*
X7619Y-68865D01*
X6754Y-68507D01*
X5827Y-68385D01*
D02*
G37*
G36*
X75827Y-68337D02*
X74887Y-68461D01*
X74011Y-68824D01*
X73259Y-69401D01*
X72682Y-70153D01*
X72319Y-71029D01*
X72196Y-71969D01*
X72319Y-72908D01*
X72682Y-73784D01*
X73259Y-74536D01*
X74011Y-75113D01*
X74887Y-75476D01*
X75827Y-75600D01*
X76767Y-75476D01*
X77642Y-75113D01*
X78394Y-74536D01*
X78971Y-73784D01*
X79334Y-72908D01*
X79458Y-71969D01*
X79334Y-71029D01*
X78971Y-70153D01*
X78394Y-69401D01*
X77642Y-68824D01*
X76767Y-68461D01*
X75827Y-68337D01*
D02*
G37*
G36*
X15827D02*
X14887Y-68461D01*
X14011Y-68824D01*
X13259Y-69401D01*
X12682Y-70153D01*
X12319Y-71029D01*
X12196Y-71969D01*
X12319Y-72908D01*
X12682Y-73784D01*
X13259Y-74536D01*
X14011Y-75113D01*
X14887Y-75476D01*
X15827Y-75600D01*
X16767Y-75476D01*
X17642Y-75113D01*
X18394Y-74536D01*
X18971Y-73784D01*
X19334Y-72908D01*
X19458Y-71969D01*
X19334Y-71029D01*
X18971Y-70153D01*
X18394Y-69401D01*
X17642Y-68824D01*
X16767Y-68461D01*
X15827Y-68337D01*
D02*
G37*
G36*
X235189Y-72944D02*
X234571Y-73067D01*
X234047Y-73417D01*
X233697Y-73941D01*
X233574Y-74559D01*
X233697Y-75177D01*
X234047Y-75701D01*
X234571Y-76051D01*
X235189Y-76174D01*
X235807Y-76051D01*
X236331Y-75701D01*
X236681Y-75177D01*
X236804Y-74559D01*
X236681Y-73941D01*
X236331Y-73417D01*
X235807Y-73067D01*
X235189Y-72944D01*
D02*
G37*
G36*
X415079Y-69212D02*
X414151Y-69334D01*
X413287Y-69692D01*
X412545Y-70261D01*
X411975Y-71004D01*
X411617Y-71868D01*
X411495Y-72795D01*
X411617Y-73723D01*
X411975Y-74587D01*
X412545Y-75329D01*
X413287Y-75899D01*
X414151Y-76257D01*
X415079Y-76379D01*
X416006Y-76257D01*
X416870Y-75899D01*
X417613Y-75329D01*
X418182Y-74587D01*
X418540Y-73723D01*
X418662Y-72795D01*
X418540Y-71868D01*
X418182Y-71004D01*
X417613Y-70261D01*
X416870Y-69692D01*
X416006Y-69334D01*
X415079Y-69212D01*
D02*
G37*
G36*
X405079D02*
X404151Y-69334D01*
X403287Y-69692D01*
X402545Y-70261D01*
X401975Y-71004D01*
X401617Y-71868D01*
X401495Y-72795D01*
X401617Y-73723D01*
X401975Y-74587D01*
X402545Y-75329D01*
X403287Y-75899D01*
X404151Y-76257D01*
X405079Y-76379D01*
X406006Y-76257D01*
X406870Y-75899D01*
X407613Y-75329D01*
X408182Y-74587D01*
X408540Y-73723D01*
X408662Y-72795D01*
X408540Y-71868D01*
X408182Y-71004D01*
X407613Y-70261D01*
X406870Y-69692D01*
X406006Y-69334D01*
X405079Y-69212D01*
D02*
G37*
G36*
X85827Y-68385D02*
X84899Y-68507D01*
X84035Y-68865D01*
X83293Y-69435D01*
X82723Y-70177D01*
X82366Y-71041D01*
X82243Y-71969D01*
X82366Y-72896D01*
X82723Y-73760D01*
X83293Y-74502D01*
X84035Y-75072D01*
X84899Y-75430D01*
X85827Y-75552D01*
X86754Y-75430D01*
X87131Y-75274D01*
X89236Y-77378D01*
X89695Y-77685D01*
X90236Y-77793D01*
X101969D01*
X102510Y-77685D01*
X102969Y-77378D01*
X108460Y-71887D01*
X141329D01*
X141566Y-72387D01*
X141435Y-72582D01*
X141346Y-73032D01*
X141435Y-73481D01*
X141690Y-73861D01*
X142070Y-74116D01*
X142520Y-74205D01*
X142969Y-74116D01*
X143350Y-73861D01*
X143604Y-73481D01*
X143693Y-73032D01*
X143604Y-72582D01*
X143474Y-72387D01*
X143710Y-71887D01*
X159257D01*
X166197Y-78827D01*
X166224Y-78965D01*
X166574Y-79489D01*
X167098Y-79839D01*
X167717Y-79962D01*
X168335Y-79839D01*
X168859Y-79489D01*
X169209Y-78965D01*
X169332Y-78347D01*
X169209Y-77728D01*
X168859Y-77204D01*
X168335Y-76854D01*
X168197Y-76827D01*
X160843Y-69472D01*
X160384Y-69165D01*
X159843Y-69058D01*
X107874D01*
X107333Y-69165D01*
X106874Y-69472D01*
X101383Y-74963D01*
X90822D01*
X89132Y-73273D01*
X89288Y-72896D01*
X89410Y-71969D01*
X89288Y-71041D01*
X88930Y-70177D01*
X88361Y-69435D01*
X87618Y-68865D01*
X86754Y-68507D01*
X85827Y-68385D01*
D02*
G37*
G36*
X5827Y-78385D02*
X4899Y-78507D01*
X4035Y-78865D01*
X3293Y-79435D01*
X2723Y-80177D01*
X2365Y-81041D01*
X2243Y-81968D01*
X2365Y-82896D01*
X2723Y-83760D01*
X3293Y-84502D01*
X4035Y-85072D01*
X4899Y-85430D01*
X5827Y-85552D01*
X6754Y-85430D01*
X7619Y-85072D01*
X8361Y-84502D01*
X8930Y-83760D01*
X9288Y-82896D01*
X9410Y-81968D01*
X9288Y-81041D01*
X8930Y-80177D01*
X8361Y-79435D01*
X7619Y-78865D01*
X6754Y-78507D01*
X5827Y-78385D01*
D02*
G37*
G36*
X415079Y-79212D02*
X414151Y-79334D01*
X413287Y-79692D01*
X412545Y-80261D01*
X411975Y-81004D01*
X411617Y-81868D01*
X411495Y-82795D01*
X411617Y-83723D01*
X411975Y-84587D01*
X412545Y-85329D01*
X413287Y-85899D01*
X414151Y-86257D01*
X415079Y-86379D01*
X416006Y-86257D01*
X416870Y-85899D01*
X417613Y-85329D01*
X418182Y-84587D01*
X418540Y-83723D01*
X418662Y-82795D01*
X418540Y-81868D01*
X418182Y-81004D01*
X417613Y-80261D01*
X416870Y-79692D01*
X416006Y-79334D01*
X415079Y-79212D01*
D02*
G37*
G36*
X405079D02*
X404151Y-79334D01*
X403287Y-79692D01*
X402545Y-80261D01*
X401975Y-81004D01*
X401617Y-81868D01*
X401495Y-82795D01*
X401617Y-83723D01*
X401975Y-84587D01*
X402545Y-85329D01*
X403287Y-85899D01*
X404151Y-86257D01*
X405079Y-86379D01*
X406006Y-86257D01*
X406870Y-85899D01*
X407613Y-85329D01*
X408182Y-84587D01*
X408540Y-83723D01*
X408662Y-82795D01*
X408540Y-81868D01*
X408182Y-81004D01*
X407613Y-80261D01*
X406870Y-79692D01*
X406006Y-79334D01*
X405079Y-79212D01*
D02*
G37*
G36*
X364961Y-88148D02*
X364342Y-88271D01*
X363818Y-88622D01*
X363468Y-89146D01*
X363345Y-89764D01*
X363468Y-90382D01*
X363818Y-90906D01*
X364342Y-91256D01*
X364961Y-91379D01*
X365579Y-91256D01*
X366103Y-90906D01*
X366453Y-90382D01*
X366576Y-89764D01*
X366453Y-89146D01*
X366103Y-88622D01*
X365579Y-88271D01*
X364961Y-88148D01*
D02*
G37*
G36*
X361968Y-90575D02*
X361466Y-90676D01*
X361039Y-90961D01*
X360754Y-91387D01*
X360654Y-91890D01*
X360754Y-92393D01*
X361039Y-92819D01*
X361466Y-93104D01*
X361968Y-93204D01*
X362471Y-93104D01*
X362898Y-92819D01*
X363183Y-92393D01*
X363283Y-91890D01*
X363183Y-91387D01*
X362898Y-90961D01*
X362471Y-90676D01*
X361968Y-90575D01*
D02*
G37*
G36*
X5827Y-88385D02*
X4899Y-88507D01*
X4035Y-88865D01*
X3293Y-89435D01*
X2723Y-90177D01*
X2365Y-91041D01*
X2243Y-91969D01*
X2365Y-92896D01*
X2723Y-93760D01*
X3293Y-94502D01*
X4035Y-95072D01*
X4899Y-95430D01*
X5827Y-95552D01*
X6754Y-95430D01*
X7619Y-95072D01*
X8361Y-94502D01*
X8930Y-93760D01*
X9288Y-92896D01*
X9410Y-91969D01*
X9288Y-91041D01*
X8930Y-90177D01*
X8361Y-89435D01*
X7619Y-88865D01*
X6754Y-88507D01*
X5827Y-88385D01*
D02*
G37*
G36*
X415079Y-89212D02*
X414151Y-89334D01*
X413287Y-89692D01*
X412545Y-90261D01*
X411975Y-91004D01*
X411617Y-91868D01*
X411495Y-92795D01*
X411617Y-93723D01*
X411975Y-94587D01*
X412545Y-95329D01*
X413287Y-95899D01*
X414151Y-96257D01*
X415079Y-96379D01*
X416006Y-96257D01*
X416870Y-95899D01*
X417613Y-95329D01*
X418182Y-94587D01*
X418540Y-93723D01*
X418662Y-92795D01*
X418540Y-91868D01*
X418182Y-91004D01*
X417613Y-90261D01*
X416870Y-89692D01*
X416006Y-89334D01*
X415079Y-89212D01*
D02*
G37*
G36*
X405079D02*
X404151Y-89334D01*
X403287Y-89692D01*
X402545Y-90261D01*
X401975Y-91004D01*
X401617Y-91868D01*
X401495Y-92795D01*
X401617Y-93723D01*
X401975Y-94587D01*
X402545Y-95329D01*
X403287Y-95899D01*
X404151Y-96257D01*
X405079Y-96379D01*
X406006Y-96257D01*
X406870Y-95899D01*
X407613Y-95329D01*
X408182Y-94587D01*
X408540Y-93723D01*
X408662Y-92795D01*
X408540Y-91868D01*
X408182Y-91004D01*
X407613Y-90261D01*
X406870Y-89692D01*
X406006Y-89334D01*
X405079Y-89212D01*
D02*
G37*
G36*
X158026Y-97350D02*
X156602D01*
Y-98774D01*
X156877Y-98720D01*
X157533Y-98281D01*
X157972Y-97625D01*
X158026Y-97350D01*
D02*
G37*
G36*
X155602D02*
X154179D01*
X154233Y-97625D01*
X154672Y-98281D01*
X155328Y-98720D01*
X155602Y-98774D01*
Y-97350D01*
D02*
G37*
G36*
X141959Y-96780D02*
X141340Y-96903D01*
X140816Y-97254D01*
X140466Y-97777D01*
X140343Y-98396D01*
X140466Y-99014D01*
X140816Y-99538D01*
X141340Y-99888D01*
X141959Y-100011D01*
X142577Y-99888D01*
X143101Y-99538D01*
X143451Y-99014D01*
X143574Y-98396D01*
X143451Y-97777D01*
X143101Y-97254D01*
X142577Y-96903D01*
X141959Y-96780D01*
D02*
G37*
G36*
X5827Y-98385D02*
X4899Y-98507D01*
X4035Y-98865D01*
X3293Y-99435D01*
X2723Y-100177D01*
X2365Y-101041D01*
X2243Y-101969D01*
X2365Y-102896D01*
X2723Y-103760D01*
X3293Y-104502D01*
X4035Y-105072D01*
X4899Y-105430D01*
X5827Y-105552D01*
X6754Y-105430D01*
X7619Y-105072D01*
X8361Y-104502D01*
X8930Y-103760D01*
X9288Y-102896D01*
X9410Y-101969D01*
X9288Y-101041D01*
X8930Y-100177D01*
X8361Y-99435D01*
X7619Y-98865D01*
X6754Y-98507D01*
X5827Y-98385D01*
D02*
G37*
G36*
X75827Y-98337D02*
X74887Y-98461D01*
X74011Y-98824D01*
X73259Y-99401D01*
X72682Y-100153D01*
X72319Y-101029D01*
X72196Y-101969D01*
X72319Y-102908D01*
X72682Y-103784D01*
X73259Y-104536D01*
X74011Y-105113D01*
X74887Y-105476D01*
X75827Y-105600D01*
X76767Y-105476D01*
X77642Y-105113D01*
X78394Y-104536D01*
X78971Y-103784D01*
X79334Y-102908D01*
X79458Y-101969D01*
X79334Y-101029D01*
X78971Y-100153D01*
X78394Y-99401D01*
X77642Y-98824D01*
X76767Y-98461D01*
X75827Y-98337D01*
D02*
G37*
G36*
X15827D02*
X14887Y-98461D01*
X14011Y-98824D01*
X13259Y-99401D01*
X12682Y-100153D01*
X12319Y-101029D01*
X12196Y-101969D01*
X12319Y-102908D01*
X12682Y-103784D01*
X13259Y-104536D01*
X14011Y-105113D01*
X14887Y-105476D01*
X15827Y-105600D01*
X16767Y-105476D01*
X17642Y-105113D01*
X18394Y-104536D01*
X18971Y-103784D01*
X19334Y-102908D01*
X19458Y-101969D01*
X19334Y-101029D01*
X18971Y-100153D01*
X18394Y-99401D01*
X17642Y-98824D01*
X16767Y-98461D01*
X15827Y-98337D01*
D02*
G37*
G36*
X415079Y-99212D02*
X414151Y-99334D01*
X413287Y-99692D01*
X412545Y-100261D01*
X411975Y-101004D01*
X411617Y-101868D01*
X411495Y-102795D01*
X411617Y-103723D01*
X411975Y-104587D01*
X412545Y-105329D01*
X413287Y-105899D01*
X414151Y-106257D01*
X415079Y-106379D01*
X416006Y-106257D01*
X416870Y-105899D01*
X417613Y-105329D01*
X418182Y-104587D01*
X418540Y-103723D01*
X418662Y-102795D01*
X418540Y-101868D01*
X418182Y-101004D01*
X417613Y-100261D01*
X416870Y-99692D01*
X416006Y-99334D01*
X415079Y-99212D01*
D02*
G37*
G36*
X405079D02*
X404151Y-99334D01*
X403287Y-99692D01*
X402545Y-100261D01*
X401975Y-101004D01*
X401617Y-101868D01*
X401495Y-102795D01*
X401617Y-103723D01*
X401975Y-104587D01*
X402545Y-105329D01*
X403287Y-105899D01*
X404151Y-106257D01*
X405079Y-106379D01*
X406006Y-106257D01*
X406870Y-105899D01*
X407613Y-105329D01*
X408182Y-104587D01*
X408540Y-103723D01*
X408662Y-102795D01*
X408540Y-101868D01*
X408182Y-101004D01*
X407613Y-100261D01*
X406870Y-99692D01*
X406006Y-99334D01*
X405079Y-99212D01*
D02*
G37*
G36*
X162055Y-107196D02*
X161437Y-107319D01*
X160913Y-107669D01*
X160563Y-108193D01*
X160440Y-108811D01*
X160563Y-109429D01*
X160913Y-109953D01*
X161437Y-110303D01*
X162055Y-110426D01*
X162673Y-110303D01*
X163197Y-109953D01*
X163548Y-109429D01*
X163670Y-108811D01*
X163548Y-108193D01*
X163197Y-107669D01*
X162673Y-107319D01*
X162055Y-107196D01*
D02*
G37*
G36*
X182587Y-111265D02*
Y-112689D01*
X184010D01*
X183956Y-112415D01*
X183517Y-111758D01*
X182861Y-111320D01*
X182587Y-111265D01*
D02*
G37*
G36*
X181587D02*
X181312Y-111320D01*
X180656Y-111758D01*
X180218Y-112415D01*
X180163Y-112689D01*
X181587D01*
Y-111265D01*
D02*
G37*
G36*
X184010Y-113689D02*
X182587D01*
Y-115113D01*
X182861Y-115058D01*
X183517Y-114620D01*
X183956Y-113963D01*
X184010Y-113689D01*
D02*
G37*
G36*
X181587D02*
X180163D01*
X180218Y-113963D01*
X180656Y-114620D01*
X181312Y-115058D01*
X181587Y-115113D01*
Y-113689D01*
D02*
G37*
G36*
X5827Y-108385D02*
X4899Y-108507D01*
X4035Y-108865D01*
X3293Y-109435D01*
X2723Y-110177D01*
X2365Y-111041D01*
X2243Y-111969D01*
X2365Y-112896D01*
X2723Y-113760D01*
X3293Y-114502D01*
X4035Y-115072D01*
X4899Y-115430D01*
X5827Y-115552D01*
X6754Y-115430D01*
X7619Y-115072D01*
X8361Y-114502D01*
X8930Y-113760D01*
X9288Y-112896D01*
X9410Y-111969D01*
X9288Y-111041D01*
X8930Y-110177D01*
X8361Y-109435D01*
X7619Y-108865D01*
X6754Y-108507D01*
X5827Y-108385D01*
D02*
G37*
G36*
X75827Y-108337D02*
X74887Y-108461D01*
X74011Y-108824D01*
X73259Y-109401D01*
X72682Y-110153D01*
X72319Y-111029D01*
X72196Y-111969D01*
X72319Y-112908D01*
X72682Y-113784D01*
X73259Y-114536D01*
X74011Y-115113D01*
X74887Y-115476D01*
X75827Y-115600D01*
X76767Y-115476D01*
X77642Y-115113D01*
X78394Y-114536D01*
X78971Y-113784D01*
X79334Y-112908D01*
X79458Y-111969D01*
X79334Y-111029D01*
X78971Y-110153D01*
X78394Y-109401D01*
X77642Y-108824D01*
X76767Y-108461D01*
X75827Y-108337D01*
D02*
G37*
G36*
X15827D02*
X14887Y-108461D01*
X14011Y-108824D01*
X13259Y-109401D01*
X12682Y-110153D01*
X12319Y-111029D01*
X12196Y-111969D01*
X12319Y-112908D01*
X12682Y-113784D01*
X13259Y-114536D01*
X14011Y-115113D01*
X14887Y-115476D01*
X15827Y-115600D01*
X16767Y-115476D01*
X17642Y-115113D01*
X18394Y-114536D01*
X18971Y-113784D01*
X19334Y-112908D01*
X19458Y-111969D01*
X19334Y-111029D01*
X18971Y-110153D01*
X18394Y-109401D01*
X17642Y-108824D01*
X16767Y-108461D01*
X15827Y-108337D01*
D02*
G37*
G36*
X415079Y-109212D02*
X414151Y-109334D01*
X413287Y-109692D01*
X412545Y-110261D01*
X411975Y-111004D01*
X411617Y-111868D01*
X411495Y-112795D01*
X411617Y-113723D01*
X411975Y-114587D01*
X412545Y-115329D01*
X413287Y-115899D01*
X414151Y-116257D01*
X415079Y-116379D01*
X416006Y-116257D01*
X416870Y-115899D01*
X417613Y-115329D01*
X418182Y-114587D01*
X418540Y-113723D01*
X418662Y-112795D01*
X418540Y-111868D01*
X418182Y-111004D01*
X417613Y-110261D01*
X416870Y-109692D01*
X416006Y-109334D01*
X415079Y-109212D01*
D02*
G37*
G36*
X405079D02*
X404151Y-109334D01*
X403287Y-109692D01*
X402545Y-110261D01*
X401975Y-111004D01*
X401617Y-111868D01*
X401495Y-112795D01*
X401617Y-113723D01*
X401975Y-114587D01*
X402545Y-115329D01*
X403287Y-115899D01*
X404151Y-116257D01*
X405079Y-116379D01*
X406006Y-116257D01*
X406870Y-115899D01*
X407613Y-115329D01*
X408182Y-114587D01*
X408540Y-113723D01*
X408662Y-112795D01*
X408540Y-111868D01*
X408182Y-111004D01*
X407613Y-110261D01*
X406870Y-109692D01*
X406006Y-109334D01*
X405079Y-109212D01*
D02*
G37*
G36*
X5827Y-118385D02*
X4899Y-118507D01*
X4035Y-118865D01*
X3293Y-119435D01*
X2723Y-120177D01*
X2365Y-121041D01*
X2243Y-121968D01*
X2365Y-122896D01*
X2723Y-123760D01*
X3293Y-124502D01*
X4035Y-125072D01*
X4899Y-125430D01*
X5827Y-125552D01*
X6754Y-125430D01*
X7619Y-125072D01*
X8361Y-124502D01*
X8930Y-123760D01*
X9288Y-122896D01*
X9410Y-121968D01*
X9288Y-121041D01*
X8930Y-120177D01*
X8361Y-119435D01*
X7619Y-118865D01*
X6754Y-118507D01*
X5827Y-118385D01*
D02*
G37*
G36*
X75827Y-118337D02*
X74887Y-118461D01*
X74011Y-118824D01*
X73259Y-119401D01*
X72682Y-120153D01*
X72319Y-121029D01*
X72196Y-121968D01*
X72319Y-122908D01*
X72682Y-123784D01*
X73259Y-124536D01*
X74011Y-125113D01*
X74887Y-125476D01*
X75827Y-125600D01*
X76767Y-125476D01*
X77642Y-125113D01*
X78394Y-124536D01*
X78971Y-123784D01*
X79334Y-122908D01*
X79458Y-121968D01*
X79334Y-121029D01*
X78971Y-120153D01*
X78394Y-119401D01*
X77642Y-118824D01*
X76767Y-118461D01*
X75827Y-118337D01*
D02*
G37*
G36*
X415079Y-119212D02*
X414151Y-119334D01*
X413287Y-119692D01*
X412545Y-120261D01*
X411975Y-121004D01*
X411617Y-121868D01*
X411495Y-122795D01*
X411617Y-123723D01*
X411975Y-124587D01*
X412545Y-125329D01*
X413287Y-125899D01*
X414151Y-126257D01*
X415079Y-126379D01*
X416006Y-126257D01*
X416870Y-125899D01*
X417613Y-125329D01*
X418182Y-124587D01*
X418540Y-123723D01*
X418662Y-122795D01*
X418540Y-121868D01*
X418182Y-121004D01*
X417613Y-120261D01*
X416870Y-119692D01*
X416006Y-119334D01*
X415079Y-119212D01*
D02*
G37*
G36*
X405079D02*
X404151Y-119334D01*
X403287Y-119692D01*
X402545Y-120261D01*
X401975Y-121004D01*
X401617Y-121868D01*
X401495Y-122795D01*
X401617Y-123723D01*
X401975Y-124587D01*
X402545Y-125329D01*
X403287Y-125899D01*
X404151Y-126257D01*
X405079Y-126379D01*
X406006Y-126257D01*
X406870Y-125899D01*
X407613Y-125329D01*
X408182Y-124587D01*
X408540Y-123723D01*
X408662Y-122795D01*
X408540Y-121868D01*
X408182Y-121004D01*
X407613Y-120261D01*
X406870Y-119692D01*
X406006Y-119334D01*
X405079Y-119212D01*
D02*
G37*
G36*
X266142Y-124763D02*
X265524Y-124886D01*
X265000Y-125236D01*
X264649Y-125760D01*
X264526Y-126378D01*
X264649Y-126996D01*
X265000Y-127520D01*
X265524Y-127870D01*
X266142Y-127993D01*
X266760Y-127870D01*
X267284Y-127520D01*
X267634Y-126996D01*
X267757Y-126378D01*
X267634Y-125760D01*
X267284Y-125236D01*
X266760Y-124886D01*
X266142Y-124763D01*
D02*
G37*
G36*
X230528Y-124984D02*
X227075D01*
Y-128437D01*
X230528D01*
Y-124984D01*
D02*
G37*
G36*
X226075D02*
X222622D01*
Y-128437D01*
X226075D01*
Y-124984D01*
D02*
G37*
G36*
X259842Y-125353D02*
X259224Y-125476D01*
X258700Y-125826D01*
X258350Y-126350D01*
X258227Y-126969D01*
X258350Y-127587D01*
X258700Y-128111D01*
X259224Y-128461D01*
X259842Y-128584D01*
X260461Y-128461D01*
X260903Y-128165D01*
X261244Y-128296D01*
X261387Y-128398D01*
X261500Y-128965D01*
X261850Y-129489D01*
X262374Y-129839D01*
X262992Y-129962D01*
X263610Y-129839D01*
X264134Y-129489D01*
X264485Y-128965D01*
X264607Y-128347D01*
X264485Y-127728D01*
X264134Y-127204D01*
X263610Y-126854D01*
X262992Y-126731D01*
X262374Y-126854D01*
X261932Y-127150D01*
X261590Y-127019D01*
X261448Y-126918D01*
X261335Y-126350D01*
X260985Y-125826D01*
X260461Y-125476D01*
X259842Y-125353D01*
D02*
G37*
G36*
X194095Y-125354D02*
X193167Y-125476D01*
X192303Y-125834D01*
X191561Y-126403D01*
X190991Y-127145D01*
X190633Y-128010D01*
X190511Y-128937D01*
X190633Y-129865D01*
X190991Y-130729D01*
X191561Y-131471D01*
X192303Y-132040D01*
X193167Y-132398D01*
X194095Y-132520D01*
X195022Y-132398D01*
X195886Y-132040D01*
X196628Y-131471D01*
X197198Y-130729D01*
X197556Y-129865D01*
X197678Y-128937D01*
X197556Y-128010D01*
X197198Y-127145D01*
X196628Y-126403D01*
X195886Y-125834D01*
X195022Y-125476D01*
X194095Y-125354D01*
D02*
G37*
G36*
X230528Y-129437D02*
X227075D01*
Y-132890D01*
X230528D01*
Y-129437D01*
D02*
G37*
G36*
X226075D02*
X222622D01*
Y-132890D01*
X226075D01*
Y-129437D01*
D02*
G37*
G36*
X240158Y-131259D02*
X239539Y-131382D01*
X239015Y-131732D01*
X238665Y-132256D01*
X238542Y-132874D01*
X238665Y-133492D01*
X239015Y-134016D01*
X239539Y-134366D01*
X240158Y-134489D01*
X240776Y-134366D01*
X241300Y-134016D01*
X241650Y-133492D01*
X241773Y-132874D01*
X241650Y-132256D01*
X241300Y-131732D01*
X240776Y-131382D01*
X240158Y-131259D01*
D02*
G37*
G36*
X5827Y-128385D02*
X4899Y-128507D01*
X4035Y-128865D01*
X3293Y-129435D01*
X2723Y-130177D01*
X2365Y-131041D01*
X2243Y-131968D01*
X2365Y-132896D01*
X2723Y-133760D01*
X3293Y-134502D01*
X4035Y-135072D01*
X4899Y-135430D01*
X5827Y-135552D01*
X6754Y-135430D01*
X7619Y-135072D01*
X8361Y-134502D01*
X8930Y-133760D01*
X9288Y-132896D01*
X9410Y-131968D01*
X9288Y-131041D01*
X8930Y-130177D01*
X8361Y-129435D01*
X7619Y-128865D01*
X6754Y-128507D01*
X5827Y-128385D01*
D02*
G37*
G36*
X140413Y-132349D02*
X139795Y-132472D01*
X139271Y-132822D01*
X138921Y-133346D01*
X138798Y-133965D01*
X138921Y-134583D01*
X139271Y-135107D01*
X139795Y-135457D01*
X140413Y-135580D01*
X141032Y-135457D01*
X141556Y-135107D01*
X141906Y-134583D01*
X142029Y-133965D01*
X141906Y-133346D01*
X141556Y-132822D01*
X141032Y-132472D01*
X140413Y-132349D01*
D02*
G37*
G36*
X152272Y-134887D02*
Y-136311D01*
X153695D01*
X153641Y-136037D01*
X153202Y-135380D01*
X152546Y-134942D01*
X152272Y-134887D01*
D02*
G37*
G36*
X151272D02*
X150997Y-134942D01*
X150341Y-135380D01*
X149902Y-136037D01*
X149848Y-136311D01*
X151272D01*
Y-134887D01*
D02*
G37*
G36*
X415079Y-129212D02*
X414151Y-129334D01*
X413287Y-129692D01*
X412545Y-130261D01*
X411975Y-131004D01*
X411617Y-131868D01*
X411495Y-132795D01*
X411617Y-133723D01*
X411975Y-134587D01*
X412545Y-135329D01*
X413287Y-135899D01*
X414151Y-136257D01*
X415079Y-136379D01*
X416006Y-136257D01*
X416870Y-135899D01*
X417613Y-135329D01*
X418182Y-134587D01*
X418540Y-133723D01*
X418662Y-132795D01*
X418540Y-131868D01*
X418182Y-131004D01*
X417613Y-130261D01*
X416870Y-129692D01*
X416006Y-129334D01*
X415079Y-129212D01*
D02*
G37*
G36*
X405079D02*
X404151Y-129334D01*
X403287Y-129692D01*
X402545Y-130261D01*
X401975Y-131004D01*
X401617Y-131868D01*
X401495Y-132795D01*
X401617Y-133723D01*
X401975Y-134587D01*
X402545Y-135329D01*
X403287Y-135899D01*
X404151Y-136257D01*
X405079Y-136379D01*
X406006Y-136257D01*
X406870Y-135899D01*
X407613Y-135329D01*
X408182Y-134587D01*
X408540Y-133723D01*
X408662Y-132795D01*
X408540Y-131868D01*
X408182Y-131004D01*
X407613Y-130261D01*
X406870Y-129692D01*
X406006Y-129334D01*
X405079Y-129212D01*
D02*
G37*
G36*
X198047Y-134984D02*
X194595D01*
Y-138437D01*
X198047D01*
Y-134984D01*
D02*
G37*
G36*
X193595D02*
X190142D01*
Y-138437D01*
X193595D01*
Y-134984D01*
D02*
G37*
G36*
X153695Y-137311D02*
X152272D01*
Y-138735D01*
X152546Y-138680D01*
X153202Y-138242D01*
X153641Y-137585D01*
X153695Y-137311D01*
D02*
G37*
G36*
X151272D02*
X149848D01*
X149902Y-137585D01*
X150341Y-138242D01*
X150997Y-138680D01*
X151272Y-138735D01*
Y-137311D01*
D02*
G37*
G36*
X361968Y-137820D02*
X361466Y-137920D01*
X361039Y-138205D01*
X360754Y-138631D01*
X360654Y-139134D01*
X360754Y-139637D01*
X361039Y-140063D01*
X361466Y-140348D01*
X361968Y-140448D01*
X362471Y-140348D01*
X362898Y-140063D01*
X363183Y-139637D01*
X363283Y-139134D01*
X363183Y-138631D01*
X362898Y-138205D01*
X362471Y-137920D01*
X361968Y-137820D01*
D02*
G37*
G36*
X261024Y-136967D02*
X260405Y-137090D01*
X259881Y-137441D01*
X259531Y-137964D01*
X259434Y-138456D01*
X256190Y-141700D01*
X245523D01*
X245106Y-141421D01*
X244488Y-141298D01*
X243870Y-141421D01*
X243346Y-141771D01*
X242996Y-142295D01*
X242873Y-142913D01*
X242996Y-143532D01*
X243346Y-144056D01*
X243870Y-144406D01*
X244488Y-144529D01*
X245106Y-144406D01*
X245523Y-144127D01*
X256693D01*
X256693Y-144127D01*
X257157Y-144035D01*
X257551Y-143772D01*
X261150Y-140173D01*
X261642Y-140075D01*
X262166Y-139725D01*
X262516Y-139201D01*
X262639Y-138583D01*
X262516Y-137964D01*
X262166Y-137441D01*
X261642Y-137090D01*
X261024Y-136967D01*
D02*
G37*
G36*
X226575Y-135354D02*
X225647Y-135476D01*
X224783Y-135834D01*
X224041Y-136403D01*
X223471Y-137145D01*
X223113Y-138010D01*
X222991Y-138937D01*
X223113Y-139865D01*
X223471Y-140729D01*
X224041Y-141471D01*
X224783Y-142040D01*
X225647Y-142398D01*
X226575Y-142520D01*
X227502Y-142398D01*
X228366Y-142040D01*
X229109Y-141471D01*
X229678Y-140729D01*
X230036Y-139865D01*
X230158Y-138937D01*
X230036Y-138010D01*
X229678Y-137145D01*
X229109Y-136403D01*
X228366Y-135834D01*
X227502Y-135476D01*
X226575Y-135354D01*
D02*
G37*
G36*
X198047Y-139437D02*
X194595D01*
Y-142890D01*
X198047D01*
Y-139437D01*
D02*
G37*
G36*
X193595D02*
X190142D01*
Y-142890D01*
X193595D01*
Y-139437D01*
D02*
G37*
G36*
X5827Y-138385D02*
X4899Y-138507D01*
X4035Y-138865D01*
X3293Y-139435D01*
X2723Y-140177D01*
X2365Y-141041D01*
X2243Y-141969D01*
X2365Y-142896D01*
X2723Y-143760D01*
X3293Y-144502D01*
X4035Y-145072D01*
X4899Y-145430D01*
X5827Y-145552D01*
X6754Y-145430D01*
X7619Y-145072D01*
X8361Y-144502D01*
X8930Y-143760D01*
X9288Y-142896D01*
X9410Y-141969D01*
X9288Y-141041D01*
X8930Y-140177D01*
X8361Y-139435D01*
X7619Y-138865D01*
X6754Y-138507D01*
X5827Y-138385D01*
D02*
G37*
G36*
X15827Y-138337D02*
X14887Y-138461D01*
X14011Y-138824D01*
X13259Y-139401D01*
X12682Y-140153D01*
X12319Y-141029D01*
X12196Y-141969D01*
X12319Y-142908D01*
X12682Y-143784D01*
X13259Y-144536D01*
X14011Y-145113D01*
X14887Y-145476D01*
X15827Y-145600D01*
X16767Y-145476D01*
X17642Y-145113D01*
X18394Y-144536D01*
X18971Y-143784D01*
X19334Y-142908D01*
X19458Y-141969D01*
X19334Y-141029D01*
X18971Y-140153D01*
X18394Y-139401D01*
X17642Y-138824D01*
X16767Y-138461D01*
X15827Y-138337D01*
D02*
G37*
G36*
X240008Y-142432D02*
X239390Y-142555D01*
X238866Y-142905D01*
X238515Y-143429D01*
X238393Y-144047D01*
X238515Y-144665D01*
X238866Y-145189D01*
X239390Y-145540D01*
X240008Y-145662D01*
X240626Y-145540D01*
X241150Y-145189D01*
X241500Y-144665D01*
X241623Y-144047D01*
X241500Y-143429D01*
X241150Y-142905D01*
X240626Y-142555D01*
X240008Y-142432D01*
D02*
G37*
G36*
X230028Y-146502D02*
Y-147925D01*
X231451D01*
X231397Y-147651D01*
X230958Y-146995D01*
X230302Y-146556D01*
X230028Y-146502D01*
D02*
G37*
G36*
X229028D02*
X228753Y-146556D01*
X228097Y-146995D01*
X227658Y-147651D01*
X227604Y-147925D01*
X229028D01*
Y-146502D01*
D02*
G37*
G36*
X175591Y-146810D02*
X174972Y-146933D01*
X174448Y-147283D01*
X174098Y-147807D01*
X173975Y-148425D01*
X174098Y-149043D01*
X174448Y-149567D01*
X174972Y-149918D01*
X175591Y-150040D01*
X176209Y-149918D01*
X176733Y-149567D01*
X177083Y-149043D01*
X177206Y-148425D01*
X177083Y-147807D01*
X176733Y-147283D01*
X176209Y-146933D01*
X175591Y-146810D01*
D02*
G37*
G36*
X231451Y-148925D02*
X230028D01*
Y-150349D01*
X230302Y-150294D01*
X230958Y-149856D01*
X231397Y-149199D01*
X231451Y-148925D01*
D02*
G37*
G36*
X229028D02*
X227604D01*
X227658Y-149199D01*
X228097Y-149856D01*
X228753Y-150294D01*
X229028Y-150349D01*
Y-148925D01*
D02*
G37*
G36*
X5827Y-148385D02*
X4899Y-148507D01*
X4035Y-148865D01*
X3293Y-149435D01*
X2723Y-150177D01*
X2365Y-151041D01*
X2243Y-151969D01*
X2365Y-152896D01*
X2723Y-153760D01*
X3293Y-154502D01*
X4035Y-155072D01*
X4899Y-155430D01*
X5827Y-155552D01*
X6754Y-155430D01*
X7619Y-155072D01*
X8361Y-154502D01*
X8930Y-153760D01*
X9288Y-152896D01*
X9410Y-151969D01*
X9288Y-151041D01*
X8930Y-150177D01*
X8361Y-149435D01*
X7619Y-148865D01*
X6754Y-148507D01*
X5827Y-148385D01*
D02*
G37*
G36*
Y-158385D02*
X4899Y-158507D01*
X4035Y-158865D01*
X3293Y-159435D01*
X2723Y-160177D01*
X2365Y-161041D01*
X2243Y-161969D01*
X2365Y-162896D01*
X2723Y-163760D01*
X3293Y-164502D01*
X4035Y-165072D01*
X4899Y-165430D01*
X5827Y-165552D01*
X6754Y-165430D01*
X7619Y-165072D01*
X8361Y-164502D01*
X8930Y-163760D01*
X9288Y-162896D01*
X9410Y-161969D01*
X9288Y-161041D01*
X8930Y-160177D01*
X8361Y-159435D01*
X7619Y-158865D01*
X6754Y-158507D01*
X5827Y-158385D01*
D02*
G37*
G36*
X260130Y-167761D02*
X259856Y-167816D01*
X259199Y-168254D01*
X258761Y-168911D01*
X258706Y-169185D01*
X260130D01*
Y-167761D01*
D02*
G37*
G36*
X262554Y-170185D02*
X261130D01*
Y-171609D01*
X261404Y-171554D01*
X262060Y-171116D01*
X262499Y-170459D01*
X262554Y-170185D01*
D02*
G37*
G36*
X260130D02*
X258706D01*
X258761Y-170459D01*
X259199Y-171116D01*
X259856Y-171554D01*
X260130Y-171609D01*
Y-170185D01*
D02*
G37*
G36*
X85827Y-168385D02*
X84899Y-168507D01*
X84035Y-168865D01*
X83293Y-169435D01*
X82723Y-170177D01*
X82366Y-171041D01*
X82243Y-171968D01*
X82366Y-172896D01*
X82723Y-173760D01*
X83293Y-174502D01*
X84035Y-175072D01*
X84899Y-175430D01*
X85827Y-175552D01*
X86754Y-175430D01*
X87618Y-175072D01*
X88361Y-174502D01*
X88930Y-173760D01*
X89288Y-172896D01*
X89410Y-171968D01*
X89288Y-171041D01*
X88930Y-170177D01*
X88361Y-169435D01*
X87618Y-168865D01*
X86754Y-168507D01*
X85827Y-168385D01*
D02*
G37*
G36*
X5827D02*
X4899Y-168507D01*
X4035Y-168865D01*
X3293Y-169435D01*
X2723Y-170177D01*
X2365Y-171041D01*
X2243Y-171968D01*
X2365Y-172896D01*
X2723Y-173760D01*
X3293Y-174502D01*
X4035Y-175072D01*
X4899Y-175430D01*
X5827Y-175552D01*
X6754Y-175430D01*
X7619Y-175072D01*
X8361Y-174502D01*
X8930Y-173760D01*
X9288Y-172896D01*
X9410Y-171968D01*
X9288Y-171041D01*
X8930Y-170177D01*
X8361Y-169435D01*
X7619Y-168865D01*
X6754Y-168507D01*
X5827Y-168385D01*
D02*
G37*
G36*
X75827Y-168337D02*
X74887Y-168461D01*
X74011Y-168824D01*
X73259Y-169401D01*
X72682Y-170153D01*
X72319Y-171029D01*
X72196Y-171968D01*
X72319Y-172908D01*
X72682Y-173784D01*
X73259Y-174536D01*
X74011Y-175113D01*
X74887Y-175476D01*
X75827Y-175600D01*
X76767Y-175476D01*
X77642Y-175113D01*
X78394Y-174536D01*
X78971Y-173784D01*
X79334Y-172908D01*
X79458Y-171968D01*
X79334Y-171029D01*
X78971Y-170153D01*
X78394Y-169401D01*
X77642Y-168824D01*
X76767Y-168461D01*
X75827Y-168337D01*
D02*
G37*
G36*
X204921Y-172597D02*
X204303Y-172720D01*
X203779Y-173070D01*
X203429Y-173594D01*
X203306Y-174213D01*
X203429Y-174831D01*
X203779Y-175355D01*
X204303Y-175705D01*
X204921Y-175828D01*
X205539Y-175705D01*
X206063Y-175355D01*
X206414Y-174831D01*
X206537Y-174213D01*
X206414Y-173594D01*
X206063Y-173070D01*
X205539Y-172720D01*
X204921Y-172597D01*
D02*
G37*
G36*
X415079Y-169212D02*
X414151Y-169334D01*
X413287Y-169692D01*
X412545Y-170261D01*
X411975Y-171004D01*
X411617Y-171868D01*
X411495Y-172795D01*
X411617Y-173723D01*
X411975Y-174587D01*
X412545Y-175329D01*
X413287Y-175899D01*
X414151Y-176257D01*
X415079Y-176379D01*
X416006Y-176257D01*
X416870Y-175899D01*
X417613Y-175329D01*
X418182Y-174587D01*
X418540Y-173723D01*
X418662Y-172795D01*
X418540Y-171868D01*
X418182Y-171004D01*
X417613Y-170261D01*
X416870Y-169692D01*
X416006Y-169334D01*
X415079Y-169212D01*
D02*
G37*
G36*
X197736Y-180078D02*
X197118Y-180201D01*
X196594Y-180551D01*
X196244Y-181075D01*
X196121Y-181693D01*
X196244Y-182311D01*
X196594Y-182835D01*
X197118Y-183185D01*
X197736Y-183308D01*
X198354Y-183185D01*
X198878Y-182835D01*
X199229Y-182311D01*
X199352Y-181693D01*
X199229Y-181075D01*
X198878Y-180551D01*
X198354Y-180201D01*
X197736Y-180078D01*
D02*
G37*
G36*
X264764Y-180274D02*
X264146Y-180397D01*
X263622Y-180748D01*
X263271Y-181272D01*
X263148Y-181890D01*
X263271Y-182508D01*
X263622Y-183032D01*
X264146Y-183382D01*
X264764Y-183505D01*
X265382Y-183382D01*
X265906Y-183032D01*
X266256Y-182508D01*
X266379Y-181890D01*
X266256Y-181272D01*
X265906Y-180748D01*
X265382Y-180397D01*
X264764Y-180274D01*
D02*
G37*
G36*
X213583Y-182243D02*
X212965Y-182366D01*
X212440Y-182716D01*
X212090Y-183240D01*
X211967Y-183858D01*
X212090Y-184476D01*
X212440Y-185001D01*
X212965Y-185351D01*
X213583Y-185474D01*
X214201Y-185351D01*
X214725Y-185001D01*
X215075Y-184476D01*
X215198Y-183858D01*
X215075Y-183240D01*
X214725Y-182716D01*
X214201Y-182366D01*
X213583Y-182243D01*
D02*
G37*
G36*
X85827Y-178385D02*
X84899Y-178507D01*
X84035Y-178865D01*
X83293Y-179435D01*
X82723Y-180177D01*
X82366Y-181041D01*
X82243Y-181968D01*
X82366Y-182896D01*
X82723Y-183760D01*
X83293Y-184502D01*
X84035Y-185072D01*
X84899Y-185430D01*
X85827Y-185552D01*
X86754Y-185430D01*
X87618Y-185072D01*
X88361Y-184502D01*
X88930Y-183760D01*
X89288Y-182896D01*
X89410Y-181968D01*
X89288Y-181041D01*
X88930Y-180177D01*
X88361Y-179435D01*
X87618Y-178865D01*
X86754Y-178507D01*
X85827Y-178385D01*
D02*
G37*
G36*
X5827D02*
X4899Y-178507D01*
X4035Y-178865D01*
X3293Y-179435D01*
X2723Y-180177D01*
X2365Y-181041D01*
X2243Y-181968D01*
X2365Y-182896D01*
X2723Y-183760D01*
X3293Y-184502D01*
X4035Y-185072D01*
X4899Y-185430D01*
X5827Y-185552D01*
X6754Y-185430D01*
X7619Y-185072D01*
X8361Y-184502D01*
X8930Y-183760D01*
X9288Y-182896D01*
X9410Y-181968D01*
X9288Y-181041D01*
X8930Y-180177D01*
X8361Y-179435D01*
X7619Y-178865D01*
X6754Y-178507D01*
X5827Y-178385D01*
D02*
G37*
G36*
X75827Y-178337D02*
X74887Y-178461D01*
X74011Y-178824D01*
X73259Y-179401D01*
X72682Y-180153D01*
X72319Y-181029D01*
X72196Y-181968D01*
X72319Y-182908D01*
X72682Y-183784D01*
X73259Y-184536D01*
X74011Y-185113D01*
X74887Y-185476D01*
X75827Y-185600D01*
X76767Y-185476D01*
X77642Y-185113D01*
X78394Y-184536D01*
X78971Y-183784D01*
X79334Y-182908D01*
X79458Y-181968D01*
X79334Y-181029D01*
X78971Y-180153D01*
X78394Y-179401D01*
X77642Y-178824D01*
X76767Y-178461D01*
X75827Y-178337D01*
D02*
G37*
G36*
X174409Y-185393D02*
X173791Y-185515D01*
X173267Y-185866D01*
X172917Y-186390D01*
X172794Y-187008D01*
X172917Y-187626D01*
X173267Y-188150D01*
X173791Y-188500D01*
X174409Y-188623D01*
X175028Y-188500D01*
X175552Y-188150D01*
X175902Y-187626D01*
X176025Y-187008D01*
X175902Y-186390D01*
X175552Y-185866D01*
X175028Y-185515D01*
X174409Y-185393D01*
D02*
G37*
G36*
X103347D02*
X102728Y-185515D01*
X102612Y-185593D01*
X90787D01*
X90246Y-185701D01*
X89787Y-186008D01*
X87131Y-188663D01*
X86754Y-188507D01*
X85827Y-188385D01*
X84899Y-188507D01*
X84035Y-188865D01*
X83293Y-189435D01*
X82723Y-190177D01*
X82366Y-191041D01*
X82243Y-191969D01*
X82366Y-192896D01*
X82723Y-193760D01*
X83293Y-194502D01*
X84035Y-195072D01*
X84899Y-195430D01*
X85827Y-195552D01*
X86754Y-195430D01*
X87618Y-195072D01*
X88361Y-194502D01*
X88930Y-193760D01*
X89288Y-192896D01*
X89410Y-191969D01*
X89288Y-191041D01*
X89132Y-190664D01*
X91373Y-188423D01*
X102612D01*
X102728Y-188500D01*
X103347Y-188623D01*
X103965Y-188500D01*
X104489Y-188150D01*
X104839Y-187626D01*
X104962Y-187008D01*
X104839Y-186390D01*
X104489Y-185866D01*
X103965Y-185515D01*
X103347Y-185393D01*
D02*
G37*
G36*
Y-189330D02*
X102728Y-189453D01*
X102612Y-189530D01*
X96850D01*
X96309Y-189638D01*
X95850Y-189945D01*
X87131Y-198663D01*
X86754Y-198507D01*
X85827Y-198385D01*
X84899Y-198507D01*
X84035Y-198865D01*
X83293Y-199435D01*
X82723Y-200177D01*
X82366Y-201041D01*
X82243Y-201969D01*
X82366Y-202896D01*
X82723Y-203760D01*
X83293Y-204502D01*
X84035Y-205072D01*
X84899Y-205430D01*
X85827Y-205552D01*
X86754Y-205430D01*
X87618Y-205072D01*
X88361Y-204502D01*
X88930Y-203760D01*
X89288Y-202896D01*
X89410Y-201969D01*
X89288Y-201041D01*
X89132Y-200664D01*
X97436Y-192359D01*
X102612D01*
X102728Y-192437D01*
X103347Y-192560D01*
X103965Y-192437D01*
X104489Y-192087D01*
X104839Y-191563D01*
X104962Y-190945D01*
X104839Y-190327D01*
X104489Y-189803D01*
X103965Y-189453D01*
X103347Y-189330D01*
D02*
G37*
G36*
X285571Y-193399D02*
X285297Y-193454D01*
X284640Y-193892D01*
X284202Y-194549D01*
X284147Y-194823D01*
X285571D01*
Y-193399D01*
D02*
G37*
G36*
X5827Y-188385D02*
X4899Y-188507D01*
X4035Y-188865D01*
X3293Y-189435D01*
X2723Y-190177D01*
X2365Y-191041D01*
X2243Y-191969D01*
X2365Y-192896D01*
X2723Y-193760D01*
X3293Y-194502D01*
X4035Y-195072D01*
X4899Y-195430D01*
X5827Y-195552D01*
X6754Y-195430D01*
X7619Y-195072D01*
X8361Y-194502D01*
X8930Y-193760D01*
X9288Y-192896D01*
X9410Y-191969D01*
X9288Y-191041D01*
X8930Y-190177D01*
X8361Y-189435D01*
X7619Y-188865D01*
X6754Y-188507D01*
X5827Y-188385D01*
D02*
G37*
G36*
X75827Y-188337D02*
X74887Y-188461D01*
X74011Y-188824D01*
X73259Y-189401D01*
X72682Y-190153D01*
X72319Y-191029D01*
X72196Y-191969D01*
X72319Y-192908D01*
X72682Y-193784D01*
X73259Y-194536D01*
X74011Y-195113D01*
X74887Y-195476D01*
X75827Y-195600D01*
X76767Y-195476D01*
X77642Y-195113D01*
X78394Y-194536D01*
X78971Y-193784D01*
X79334Y-192908D01*
X79458Y-191969D01*
X79334Y-191029D01*
X78971Y-190153D01*
X78394Y-189401D01*
X77642Y-188824D01*
X76767Y-188461D01*
X75827Y-188337D01*
D02*
G37*
G36*
X276772Y-193267D02*
X276153Y-193390D01*
X275629Y-193740D01*
X275279Y-194264D01*
X275156Y-194882D01*
X275279Y-195500D01*
X275629Y-196024D01*
X276153Y-196374D01*
X276772Y-196497D01*
X277390Y-196374D01*
X277914Y-196024D01*
X278264Y-195500D01*
X278387Y-194882D01*
X278264Y-194264D01*
X277914Y-193740D01*
X277390Y-193390D01*
X276772Y-193267D01*
D02*
G37*
G36*
X287995Y-195823D02*
X286571D01*
Y-197247D01*
X286845Y-197192D01*
X287501Y-196753D01*
X287940Y-196097D01*
X287995Y-195823D01*
D02*
G37*
G36*
X285571D02*
X284147D01*
X284202Y-196097D01*
X284640Y-196753D01*
X285297Y-197192D01*
X285571Y-197247D01*
Y-195823D01*
D02*
G37*
G36*
X227575Y-198646D02*
X224122D01*
Y-202098D01*
X227575D01*
Y-198646D01*
D02*
G37*
G36*
X223122D02*
X219669D01*
Y-202098D01*
X223122D01*
Y-198646D01*
D02*
G37*
G36*
X5827Y-198385D02*
X4899Y-198507D01*
X4035Y-198865D01*
X3293Y-199435D01*
X2723Y-200177D01*
X2365Y-201041D01*
X2243Y-201969D01*
X2365Y-202896D01*
X2723Y-203760D01*
X3293Y-204502D01*
X4035Y-205072D01*
X4899Y-205430D01*
X5827Y-205552D01*
X6754Y-205430D01*
X7619Y-205072D01*
X8361Y-204502D01*
X8930Y-203760D01*
X9288Y-202896D01*
X9410Y-201969D01*
X9288Y-201041D01*
X8930Y-200177D01*
X8361Y-199435D01*
X7619Y-198865D01*
X6754Y-198507D01*
X5827Y-198385D01*
D02*
G37*
G36*
X75827Y-198337D02*
X74887Y-198461D01*
X74011Y-198824D01*
X73259Y-199401D01*
X72682Y-200153D01*
X72319Y-201029D01*
X72196Y-201969D01*
X72319Y-202908D01*
X72682Y-203784D01*
X73259Y-204536D01*
X74011Y-205113D01*
X74887Y-205476D01*
X75827Y-205600D01*
X76767Y-205476D01*
X77642Y-205113D01*
X78394Y-204536D01*
X78971Y-203784D01*
X79334Y-202908D01*
X79458Y-201969D01*
X79334Y-201029D01*
X78971Y-200153D01*
X78394Y-199401D01*
X77642Y-198824D01*
X76767Y-198461D01*
X75827Y-198337D01*
D02*
G37*
G36*
X15827D02*
X14887Y-198461D01*
X14011Y-198824D01*
X13259Y-199401D01*
X12682Y-200153D01*
X12319Y-201029D01*
X12196Y-201969D01*
X12319Y-202908D01*
X12682Y-203784D01*
X13259Y-204536D01*
X14011Y-205113D01*
X14887Y-205476D01*
X15827Y-205600D01*
X16767Y-205476D01*
X17642Y-205113D01*
X18394Y-204536D01*
X18971Y-203784D01*
X19334Y-202908D01*
X19458Y-201969D01*
X19334Y-201029D01*
X18971Y-200153D01*
X18394Y-199401D01*
X17642Y-198824D01*
X16767Y-198461D01*
X15827Y-198337D01*
D02*
G37*
G36*
X227575Y-203099D02*
X224122D01*
Y-206551D01*
X227575D01*
Y-203099D01*
D02*
G37*
G36*
X223122D02*
X219669D01*
Y-206551D01*
X223122D01*
Y-203099D01*
D02*
G37*
G36*
X211811Y-204093D02*
X211193Y-204216D01*
X210669Y-204567D01*
X210319Y-205090D01*
X210196Y-205709D01*
X210319Y-206327D01*
X210669Y-206851D01*
X211193Y-207201D01*
X211811Y-207324D01*
X212429Y-207201D01*
X212953Y-206851D01*
X213303Y-206327D01*
X213426Y-205709D01*
X213303Y-205090D01*
X212953Y-204567D01*
X212429Y-204216D01*
X211811Y-204093D01*
D02*
G37*
G36*
X236307Y-208332D02*
Y-209756D01*
X237731D01*
X237676Y-209482D01*
X237238Y-208825D01*
X236581Y-208387D01*
X236307Y-208332D01*
D02*
G37*
G36*
X235307D02*
X235033Y-208387D01*
X234377Y-208825D01*
X233938Y-209482D01*
X233883Y-209756D01*
X235307D01*
Y-208332D01*
D02*
G37*
G36*
X184252Y-208528D02*
X183749Y-208628D01*
X183323Y-208913D01*
X183038Y-209340D01*
X182938Y-209842D01*
X183038Y-210345D01*
X183323Y-210772D01*
X183749Y-211057D01*
X184252Y-211157D01*
X184755Y-211057D01*
X185181Y-210772D01*
X185466Y-210345D01*
X185566Y-209842D01*
X185466Y-209340D01*
X185181Y-208913D01*
X184755Y-208628D01*
X184252Y-208528D01*
D02*
G37*
G36*
X237731Y-210756D02*
X236307D01*
Y-212180D01*
X236581Y-212125D01*
X237238Y-211686D01*
X237676Y-211030D01*
X237731Y-210756D01*
D02*
G37*
G36*
X235307D02*
X233883D01*
X233938Y-211030D01*
X234377Y-211686D01*
X235033Y-212125D01*
X235307Y-212180D01*
Y-210756D01*
D02*
G37*
G36*
X108110Y-205078D02*
X107183Y-205200D01*
X106318Y-205558D01*
X105576Y-206128D01*
X105007Y-206870D01*
X104649Y-207734D01*
X104527Y-208661D01*
X104649Y-209589D01*
X105007Y-210453D01*
X105576Y-211195D01*
X106318Y-211765D01*
X107183Y-212123D01*
X108110Y-212245D01*
X109038Y-212123D01*
X109902Y-211765D01*
X110644Y-211195D01*
X111214Y-210453D01*
X111572Y-209589D01*
X111694Y-208661D01*
X111572Y-207734D01*
X111214Y-206870D01*
X110644Y-206128D01*
X109902Y-205558D01*
X109038Y-205200D01*
X108110Y-205078D01*
D02*
G37*
G36*
X204437Y-213628D02*
Y-215051D01*
X205861D01*
X205806Y-214777D01*
X205368Y-214121D01*
X204711Y-213682D01*
X204437Y-213628D01*
D02*
G37*
G36*
X203437D02*
X203163Y-213682D01*
X202506Y-214121D01*
X202068Y-214777D01*
X202013Y-215051D01*
X203437D01*
Y-213628D01*
D02*
G37*
G36*
X85827Y-208385D02*
X84899Y-208507D01*
X84035Y-208865D01*
X83293Y-209435D01*
X82723Y-210177D01*
X82366Y-211041D01*
X82243Y-211968D01*
X82366Y-212896D01*
X82723Y-213760D01*
X83293Y-214502D01*
X84035Y-215072D01*
X84899Y-215430D01*
X85827Y-215552D01*
X86754Y-215430D01*
X87618Y-215072D01*
X88361Y-214502D01*
X88930Y-213760D01*
X89288Y-212896D01*
X89410Y-211968D01*
X89288Y-211041D01*
X88930Y-210177D01*
X88361Y-209435D01*
X87618Y-208865D01*
X86754Y-208507D01*
X85827Y-208385D01*
D02*
G37*
G36*
X5827D02*
X4899Y-208507D01*
X4035Y-208865D01*
X3293Y-209435D01*
X2723Y-210177D01*
X2365Y-211041D01*
X2243Y-211968D01*
X2365Y-212896D01*
X2723Y-213760D01*
X3293Y-214502D01*
X4035Y-215072D01*
X4899Y-215430D01*
X5827Y-215552D01*
X6754Y-215430D01*
X7619Y-215072D01*
X8361Y-214502D01*
X8930Y-213760D01*
X9288Y-212896D01*
X9410Y-211968D01*
X9288Y-211041D01*
X8930Y-210177D01*
X8361Y-209435D01*
X7619Y-208865D01*
X6754Y-208507D01*
X5827Y-208385D01*
D02*
G37*
G36*
X75827Y-208337D02*
X74887Y-208461D01*
X74011Y-208824D01*
X73259Y-209401D01*
X72682Y-210153D01*
X72319Y-211029D01*
X72196Y-211968D01*
X72319Y-212908D01*
X72682Y-213784D01*
X73259Y-214536D01*
X74011Y-215113D01*
X74887Y-215476D01*
X75827Y-215600D01*
X76767Y-215476D01*
X77642Y-215113D01*
X78394Y-214536D01*
X78971Y-213784D01*
X79334Y-212908D01*
X79458Y-211968D01*
X79334Y-211029D01*
X78971Y-210153D01*
X78394Y-209401D01*
X77642Y-208824D01*
X76767Y-208461D01*
X75827Y-208337D01*
D02*
G37*
G36*
X15827D02*
X14887Y-208461D01*
X14011Y-208824D01*
X13259Y-209401D01*
X12682Y-210153D01*
X12319Y-211029D01*
X12196Y-211968D01*
X12319Y-212908D01*
X12682Y-213784D01*
X13259Y-214536D01*
X14011Y-215113D01*
X14887Y-215476D01*
X15827Y-215600D01*
X16767Y-215476D01*
X17642Y-215113D01*
X18394Y-214536D01*
X18971Y-213784D01*
X19334Y-212908D01*
X19458Y-211968D01*
X19334Y-211029D01*
X18971Y-210153D01*
X18394Y-209401D01*
X17642Y-208824D01*
X16767Y-208461D01*
X15827Y-208337D01*
D02*
G37*
G36*
X223622Y-209015D02*
X222695Y-209137D01*
X221830Y-209495D01*
X221088Y-210065D01*
X220519Y-210807D01*
X220161Y-211671D01*
X220039Y-212598D01*
X220161Y-213526D01*
X220519Y-214390D01*
X221088Y-215132D01*
X221830Y-215702D01*
X222695Y-216060D01*
X223622Y-216182D01*
X224550Y-216060D01*
X225414Y-215702D01*
X226156Y-215132D01*
X226725Y-214390D01*
X227083Y-213526D01*
X227205Y-212598D01*
X227083Y-211671D01*
X226725Y-210807D01*
X226156Y-210065D01*
X225414Y-209495D01*
X224550Y-209137D01*
X223622Y-209015D01*
D02*
G37*
G36*
X199016Y-214920D02*
X125984D01*
X125366Y-215043D01*
X124842Y-215393D01*
X123347Y-216889D01*
X121221D01*
X121214Y-216870D01*
X120644Y-216128D01*
X119902Y-215558D01*
X119038Y-215200D01*
X118110Y-215078D01*
X117183Y-215200D01*
X116319Y-215558D01*
X115576Y-216128D01*
X115007Y-216870D01*
X114934Y-217046D01*
X111663D01*
Y-215109D01*
X104558D01*
Y-222214D01*
X111663D01*
Y-220277D01*
X114934D01*
X115007Y-220453D01*
X115576Y-221195D01*
X116319Y-221765D01*
X117183Y-222123D01*
X118110Y-222245D01*
X119038Y-222123D01*
X119902Y-221765D01*
X120644Y-221195D01*
X121214Y-220453D01*
X121352Y-220119D01*
X124016D01*
X124634Y-219996D01*
X125158Y-219646D01*
X126653Y-218151D01*
X198347D01*
X220511Y-240315D01*
X221035Y-240666D01*
X221654Y-240789D01*
X235013D01*
X235086Y-240965D01*
X235655Y-241707D01*
X236397Y-242277D01*
X237262Y-242635D01*
X238189Y-242757D01*
X239116Y-242635D01*
X239981Y-242277D01*
X240723Y-241707D01*
X241292Y-240965D01*
X241650Y-240101D01*
X241772Y-239173D01*
X241650Y-238246D01*
X241292Y-237382D01*
X240723Y-236639D01*
X239981Y-236070D01*
X239116Y-235712D01*
X238189Y-235590D01*
X237262Y-235712D01*
X236397Y-236070D01*
X235655Y-236639D01*
X235086Y-237382D01*
X235013Y-237558D01*
X222323D01*
X200158Y-215393D01*
X199634Y-215043D01*
X199016Y-214920D01*
D02*
G37*
G36*
X205861Y-216051D02*
X204437D01*
Y-217475D01*
X204711Y-217420D01*
X205368Y-216982D01*
X205806Y-216325D01*
X205861Y-216051D01*
D02*
G37*
G36*
X203437D02*
X202013D01*
X202068Y-216325D01*
X202506Y-216982D01*
X203163Y-217420D01*
X203437Y-217475D01*
Y-216051D01*
D02*
G37*
G36*
X301634Y-216336D02*
Y-217760D01*
X303058D01*
X303003Y-217486D01*
X302564Y-216829D01*
X301908Y-216391D01*
X301634Y-216336D01*
D02*
G37*
G36*
X300634D02*
X300360Y-216391D01*
X299703Y-216829D01*
X299265Y-217486D01*
X299210Y-217760D01*
X300634D01*
Y-216336D01*
D02*
G37*
G36*
X303058Y-218760D02*
X301634D01*
Y-220183D01*
X301908Y-220129D01*
X302564Y-219690D01*
X303003Y-219034D01*
X303058Y-218760D01*
D02*
G37*
G36*
X300634D02*
X299210D01*
X299265Y-219034D01*
X299703Y-219690D01*
X300360Y-220129D01*
X300634Y-220183D01*
Y-218760D01*
D02*
G37*
G36*
X85827Y-218385D02*
X84899Y-218507D01*
X84035Y-218865D01*
X83293Y-219435D01*
X82723Y-220177D01*
X82366Y-221041D01*
X82243Y-221969D01*
X82366Y-222896D01*
X82723Y-223760D01*
X83293Y-224502D01*
X84035Y-225072D01*
X84899Y-225430D01*
X85827Y-225552D01*
X86754Y-225430D01*
X87618Y-225072D01*
X88361Y-224502D01*
X88930Y-223760D01*
X89288Y-222896D01*
X89410Y-221969D01*
X89288Y-221041D01*
X88930Y-220177D01*
X88361Y-219435D01*
X87618Y-218865D01*
X86754Y-218507D01*
X85827Y-218385D01*
D02*
G37*
G36*
X5827D02*
X4899Y-218507D01*
X4035Y-218865D01*
X3293Y-219435D01*
X2723Y-220177D01*
X2365Y-221041D01*
X2243Y-221969D01*
X2365Y-222896D01*
X2723Y-223760D01*
X3293Y-224502D01*
X4035Y-225072D01*
X4899Y-225430D01*
X5827Y-225552D01*
X6754Y-225430D01*
X7619Y-225072D01*
X8361Y-224502D01*
X8930Y-223760D01*
X9288Y-222896D01*
X9410Y-221969D01*
X9288Y-221041D01*
X8930Y-220177D01*
X8361Y-219435D01*
X7619Y-218865D01*
X6754Y-218507D01*
X5827Y-218385D01*
D02*
G37*
G36*
X75827Y-218337D02*
X74887Y-218461D01*
X74011Y-218824D01*
X73259Y-219401D01*
X72682Y-220153D01*
X72319Y-221029D01*
X72196Y-221969D01*
X72319Y-222908D01*
X72682Y-223784D01*
X73259Y-224536D01*
X74011Y-225113D01*
X74887Y-225476D01*
X75827Y-225600D01*
X76767Y-225476D01*
X77642Y-225113D01*
X78394Y-224536D01*
X78971Y-223784D01*
X79334Y-222908D01*
X79458Y-221969D01*
X79334Y-221029D01*
X78971Y-220153D01*
X78394Y-219401D01*
X77642Y-218824D01*
X76767Y-218461D01*
X75827Y-218337D01*
D02*
G37*
G36*
X15827D02*
X14887Y-218461D01*
X14011Y-218824D01*
X13259Y-219401D01*
X12682Y-220153D01*
X12319Y-221029D01*
X12196Y-221969D01*
X12319Y-222908D01*
X12682Y-223784D01*
X13259Y-224536D01*
X14011Y-225113D01*
X14887Y-225476D01*
X15827Y-225600D01*
X16767Y-225476D01*
X17642Y-225113D01*
X18394Y-224536D01*
X18971Y-223784D01*
X19334Y-222908D01*
X19458Y-221969D01*
X19334Y-221029D01*
X18971Y-220153D01*
X18394Y-219401D01*
X17642Y-218824D01*
X16767Y-218461D01*
X15827Y-218337D01*
D02*
G37*
G36*
X301228Y-222644D02*
X300610Y-222767D01*
X300086Y-223118D01*
X299736Y-223642D01*
X299613Y-224260D01*
X299736Y-224878D01*
X300086Y-225402D01*
X300610Y-225752D01*
X301228Y-225875D01*
X301847Y-225752D01*
X302371Y-225402D01*
X302721Y-224878D01*
X302844Y-224260D01*
X302721Y-223642D01*
X302371Y-223118D01*
X301847Y-222767D01*
X301228Y-222644D01*
D02*
G37*
G36*
X171957Y-224229D02*
Y-227650D01*
X175378D01*
X175308Y-227118D01*
X174909Y-226156D01*
X174276Y-225330D01*
X173450Y-224697D01*
X172489Y-224299D01*
X171957Y-224229D01*
D02*
G37*
G36*
X170957Y-224229D02*
X170425Y-224299D01*
X169463Y-224697D01*
X168638Y-225330D01*
X168004Y-226156D01*
X167606Y-227118D01*
X167536Y-227650D01*
X170957D01*
Y-224229D01*
D02*
G37*
G36*
Y-228650D02*
X167536D01*
X167606Y-229182D01*
X168004Y-230143D01*
X168638Y-230969D01*
X169463Y-231602D01*
X170425Y-232001D01*
X170957Y-232071D01*
Y-228650D01*
D02*
G37*
G36*
X175378D02*
X171957D01*
Y-232071D01*
X172489Y-232001D01*
X173450Y-231602D01*
X174276Y-230969D01*
X174909Y-230143D01*
X175308Y-229182D01*
X175378Y-228650D01*
D02*
G37*
G36*
X241742Y-225621D02*
X234636D01*
Y-232726D01*
X241742D01*
Y-225621D01*
D02*
G37*
G36*
X248189Y-225590D02*
X247262Y-225712D01*
X246397Y-226070D01*
X245655Y-226639D01*
X245086Y-227381D01*
X244728Y-228246D01*
X244606Y-229173D01*
X244728Y-230101D01*
X245086Y-230965D01*
X245655Y-231707D01*
X246397Y-232277D01*
X247262Y-232634D01*
X248189Y-232757D01*
X249116Y-232634D01*
X249981Y-232277D01*
X250723Y-231707D01*
X251292Y-230965D01*
X251650Y-230101D01*
X251772Y-229173D01*
X251650Y-228246D01*
X251292Y-227381D01*
X250723Y-226639D01*
X249981Y-226070D01*
X249116Y-225712D01*
X248189Y-225590D01*
D02*
G37*
G36*
X298031Y-232150D02*
X297529Y-232250D01*
X297102Y-232535D01*
X296817Y-232962D01*
X296717Y-233465D01*
X296817Y-233967D01*
X297102Y-234394D01*
X297529Y-234679D01*
X298031Y-234779D01*
X298534Y-234679D01*
X298961Y-234394D01*
X299246Y-233967D01*
X299346Y-233465D01*
X299246Y-232962D01*
X298961Y-232535D01*
X298534Y-232250D01*
X298031Y-232150D01*
D02*
G37*
G36*
X85827Y-228385D02*
X84899Y-228507D01*
X84035Y-228865D01*
X83293Y-229435D01*
X82723Y-230177D01*
X82366Y-231041D01*
X82243Y-231968D01*
X82366Y-232896D01*
X82723Y-233760D01*
X83293Y-234502D01*
X84035Y-235072D01*
X84899Y-235430D01*
X85827Y-235552D01*
X86754Y-235430D01*
X87618Y-235072D01*
X88361Y-234502D01*
X88930Y-233760D01*
X89288Y-232896D01*
X89410Y-231968D01*
X89288Y-231041D01*
X88930Y-230177D01*
X88361Y-229435D01*
X87618Y-228865D01*
X86754Y-228507D01*
X85827Y-228385D01*
D02*
G37*
G36*
X5827D02*
X4899Y-228507D01*
X4035Y-228865D01*
X3293Y-229435D01*
X2723Y-230177D01*
X2365Y-231041D01*
X2243Y-231968D01*
X2365Y-232896D01*
X2723Y-233760D01*
X3293Y-234502D01*
X4035Y-235072D01*
X4899Y-235430D01*
X5827Y-235552D01*
X6754Y-235430D01*
X7619Y-235072D01*
X8361Y-234502D01*
X8930Y-233760D01*
X9288Y-232896D01*
X9410Y-231968D01*
X9288Y-231041D01*
X8930Y-230177D01*
X8361Y-229435D01*
X7619Y-228865D01*
X6754Y-228507D01*
X5827Y-228385D01*
D02*
G37*
G36*
X75827Y-228337D02*
X74887Y-228461D01*
X74011Y-228824D01*
X73259Y-229401D01*
X72682Y-230153D01*
X72319Y-231029D01*
X72196Y-231968D01*
X72319Y-232908D01*
X72682Y-233784D01*
X73259Y-234536D01*
X74011Y-235113D01*
X74887Y-235476D01*
X75827Y-235600D01*
X76767Y-235476D01*
X77642Y-235113D01*
X78394Y-234536D01*
X78971Y-233784D01*
X79334Y-232908D01*
X79458Y-231968D01*
X79334Y-231029D01*
X78971Y-230153D01*
X78394Y-229401D01*
X77642Y-228824D01*
X76767Y-228461D01*
X75827Y-228337D01*
D02*
G37*
G36*
X15827D02*
X14887Y-228461D01*
X14011Y-228824D01*
X13259Y-229401D01*
X12682Y-230153D01*
X12319Y-231029D01*
X12196Y-231968D01*
X12319Y-232908D01*
X12682Y-233784D01*
X13259Y-234536D01*
X14011Y-235113D01*
X14887Y-235476D01*
X15827Y-235600D01*
X16767Y-235476D01*
X17642Y-235113D01*
X18394Y-234536D01*
X18971Y-233784D01*
X19334Y-232908D01*
X19458Y-231968D01*
X19334Y-231029D01*
X18971Y-230153D01*
X18394Y-229401D01*
X17642Y-228824D01*
X16767Y-228461D01*
X15827Y-228337D01*
D02*
G37*
G36*
X265461Y-234297D02*
Y-235720D01*
X266884D01*
X266830Y-235446D01*
X266391Y-234790D01*
X265735Y-234351D01*
X265461Y-234297D01*
D02*
G37*
G36*
X264461D02*
X264186Y-234351D01*
X263530Y-234790D01*
X263091Y-235446D01*
X263037Y-235720D01*
X264461D01*
Y-234297D01*
D02*
G37*
G36*
X266884Y-236720D02*
X265461D01*
Y-238144D01*
X265735Y-238090D01*
X266391Y-237651D01*
X266830Y-236995D01*
X266884Y-236720D01*
D02*
G37*
G36*
X264461D02*
X263037D01*
X263091Y-236995D01*
X263530Y-237651D01*
X264186Y-238090D01*
X264461Y-238144D01*
Y-236720D01*
D02*
G37*
G36*
X301681Y-239415D02*
Y-240839D01*
X303105D01*
X303050Y-240564D01*
X302612Y-239908D01*
X301955Y-239470D01*
X301681Y-239415D01*
D02*
G37*
G36*
X300681D02*
X300407Y-239470D01*
X299750Y-239908D01*
X299312Y-240564D01*
X299257Y-240839D01*
X300681D01*
Y-239415D01*
D02*
G37*
G36*
X248189Y-235590D02*
X247262Y-235712D01*
X246397Y-236070D01*
X245655Y-236639D01*
X245086Y-237382D01*
X244728Y-238246D01*
X244606Y-239173D01*
X244728Y-240101D01*
X245086Y-240965D01*
X245655Y-241707D01*
X246397Y-242277D01*
X247262Y-242635D01*
X248189Y-242757D01*
X249116Y-242635D01*
X249981Y-242277D01*
X250723Y-241707D01*
X251292Y-240965D01*
X251650Y-240101D01*
X251772Y-239173D01*
X251650Y-238246D01*
X251292Y-237382D01*
X250723Y-236639D01*
X249981Y-236070D01*
X249116Y-235712D01*
X248189Y-235590D01*
D02*
G37*
G36*
X303105Y-241839D02*
X301681D01*
Y-243262D01*
X301955Y-243208D01*
X302612Y-242769D01*
X303050Y-242113D01*
X303105Y-241839D01*
D02*
G37*
G36*
X300681D02*
X299257D01*
X299312Y-242113D01*
X299750Y-242769D01*
X300407Y-243208D01*
X300681Y-243262D01*
Y-241839D01*
D02*
G37*
G36*
X182193Y-240745D02*
Y-247728D01*
X189176D01*
X189081Y-246759D01*
X188652Y-245346D01*
X187956Y-244044D01*
X187019Y-242902D01*
X185878Y-241965D01*
X184575Y-241269D01*
X183162Y-240841D01*
X182193Y-240745D01*
D02*
G37*
G36*
X142035D02*
Y-247728D01*
X149019D01*
X148923Y-246759D01*
X148494Y-245346D01*
X147798Y-244044D01*
X146862Y-242902D01*
X145720Y-241965D01*
X144418Y-241269D01*
X143005Y-240841D01*
X142035Y-240745D01*
D02*
G37*
G36*
X181193D02*
X180223Y-240841D01*
X178810Y-241269D01*
X177508Y-241965D01*
X176367Y-242902D01*
X175430Y-244044D01*
X174734Y-245346D01*
X174305Y-246759D01*
X174210Y-247728D01*
X181193D01*
Y-240745D01*
D02*
G37*
G36*
X141035D02*
X140066Y-240841D01*
X138653Y-241269D01*
X137351Y-241965D01*
X136209Y-242902D01*
X135273Y-244044D01*
X134576Y-245346D01*
X134148Y-246759D01*
X134052Y-247728D01*
X141035D01*
Y-240745D01*
D02*
G37*
G36*
X248189Y-245590D02*
X247262Y-245712D01*
X246397Y-246070D01*
X245655Y-246639D01*
X245086Y-247381D01*
X244728Y-248246D01*
X244606Y-249173D01*
X244728Y-250101D01*
X245086Y-250965D01*
X245655Y-251707D01*
X246397Y-252276D01*
X247262Y-252635D01*
X248189Y-252757D01*
X249116Y-252635D01*
X249981Y-252276D01*
X250723Y-251707D01*
X251292Y-250965D01*
X251650Y-250101D01*
X251772Y-249173D01*
X251650Y-248246D01*
X251292Y-247381D01*
X250723Y-246639D01*
X249981Y-246070D01*
X249116Y-245712D01*
X248189Y-245590D01*
D02*
G37*
G36*
X194095Y-218857D02*
X169291D01*
X168673Y-218980D01*
X168149Y-219330D01*
X162883Y-224597D01*
X158061D01*
Y-231702D01*
X165167D01*
Y-226881D01*
X169960Y-222088D01*
X193425D01*
X221496Y-250158D01*
X222020Y-250508D01*
X222638Y-250631D01*
X234947D01*
X235086Y-250965D01*
X235655Y-251707D01*
X236397Y-252276D01*
X237262Y-252635D01*
X238189Y-252757D01*
X239116Y-252635D01*
X239981Y-252276D01*
X240723Y-251707D01*
X241292Y-250965D01*
X241650Y-250101D01*
X241772Y-249173D01*
X241650Y-248246D01*
X241292Y-247381D01*
X240723Y-246639D01*
X239981Y-246070D01*
X239116Y-245712D01*
X238189Y-245590D01*
X237262Y-245712D01*
X236397Y-246070D01*
X235655Y-246639D01*
X235086Y-247381D01*
X235078Y-247400D01*
X223307D01*
X195237Y-219330D01*
X194713Y-218980D01*
X194095Y-218857D01*
D02*
G37*
G36*
X189176Y-248728D02*
X182193D01*
Y-255711D01*
X183162Y-255616D01*
X184575Y-255187D01*
X185878Y-254491D01*
X187019Y-253555D01*
X187956Y-252413D01*
X188652Y-251111D01*
X189081Y-249698D01*
X189176Y-248728D01*
D02*
G37*
G36*
X149019D02*
X142035D01*
Y-255711D01*
X143005Y-255616D01*
X144418Y-255187D01*
X145720Y-254491D01*
X146862Y-253555D01*
X147798Y-252413D01*
X148494Y-251111D01*
X148923Y-249698D01*
X149019Y-248728D01*
D02*
G37*
G36*
X181193D02*
X174210D01*
X174305Y-249698D01*
X174734Y-251111D01*
X175430Y-252413D01*
X176367Y-253555D01*
X177508Y-254491D01*
X178810Y-255187D01*
X180223Y-255616D01*
X181193Y-255711D01*
Y-248728D01*
D02*
G37*
G36*
X141035D02*
X134052D01*
X134148Y-249698D01*
X134576Y-251111D01*
X135273Y-252413D01*
X136209Y-253555D01*
X137351Y-254491D01*
X138653Y-255187D01*
X140066Y-255616D01*
X141035Y-255711D01*
Y-248728D01*
D02*
G37*
G36*
X409449Y-257242D02*
X408174Y-257368D01*
X406947Y-257740D01*
X405817Y-258344D01*
X404826Y-259157D01*
X404013Y-260148D01*
X403409Y-261278D01*
X403037Y-262504D01*
X402912Y-263779D01*
X403037Y-265055D01*
X403409Y-266281D01*
X404013Y-267411D01*
X404826Y-268402D01*
X405817Y-269215D01*
X406947Y-269819D01*
X408174Y-270191D01*
X409449Y-270317D01*
X410724Y-270191D01*
X411950Y-269819D01*
X413081Y-269215D01*
X414071Y-268402D01*
X414884Y-267411D01*
X415488Y-266281D01*
X415860Y-265055D01*
X415986Y-263779D01*
X415860Y-262504D01*
X415488Y-261278D01*
X414884Y-260148D01*
X414071Y-259157D01*
X413081Y-258344D01*
X411950Y-257740D01*
X410724Y-257368D01*
X409449Y-257242D01*
D02*
G37*
G36*
X-11811D02*
X-13086Y-257368D01*
X-14313Y-257740D01*
X-15443Y-258344D01*
X-16433Y-259157D01*
X-17246Y-260148D01*
X-17850Y-261278D01*
X-18222Y-262504D01*
X-18348Y-263779D01*
X-18222Y-265055D01*
X-17850Y-266281D01*
X-17246Y-267411D01*
X-16433Y-268402D01*
X-15443Y-269215D01*
X-14313Y-269819D01*
X-13086Y-270191D01*
X-11811Y-270317D01*
X-10536Y-270191D01*
X-9309Y-269819D01*
X-8179Y-269215D01*
X-7189Y-268402D01*
X-6376Y-267411D01*
X-5772Y-266281D01*
X-5400Y-265055D01*
X-5274Y-263779D01*
X-5400Y-262504D01*
X-5772Y-261278D01*
X-6376Y-260148D01*
X-7189Y-259157D01*
X-8179Y-258344D01*
X-9309Y-257740D01*
X-10536Y-257368D01*
X-11811Y-257242D01*
D02*
G37*
%LPD*%
G36*
X119432Y-144487D02*
X119241Y-144949D01*
X110728D01*
X110503Y-144449D01*
X110931Y-143891D01*
X111284Y-143040D01*
X111338Y-142626D01*
X104410D01*
X104464Y-143040D01*
X104817Y-143891D01*
X105245Y-144449D01*
X105020Y-144949D01*
X88512D01*
X88508Y-144937D01*
X88402Y-144449D01*
X88930Y-143760D01*
X89288Y-142896D01*
X89410Y-141969D01*
X89288Y-141041D01*
X88930Y-140177D01*
X88361Y-139435D01*
X87683Y-138915D01*
X87701Y-138681D01*
X87821Y-138415D01*
X106381D01*
X106481Y-138915D01*
X106109Y-139069D01*
X105378Y-139630D01*
X104817Y-140361D01*
X104464Y-141212D01*
X104410Y-141626D01*
X111338D01*
X111284Y-141212D01*
X110931Y-140361D01*
X110370Y-139630D01*
X109639Y-139069D01*
X109267Y-138915D01*
X109367Y-138415D01*
X113360D01*
X119432Y-144487D01*
D02*
G37*
G36*
X83952Y-138681D02*
X83970Y-138915D01*
X83293Y-139435D01*
X82723Y-140177D01*
X82366Y-141041D01*
X82243Y-141969D01*
X82366Y-142896D01*
X82723Y-143760D01*
X83252Y-144449D01*
X83145Y-144937D01*
X83141Y-144949D01*
X78603D01*
X78461Y-144449D01*
X78971Y-143784D01*
X79334Y-142908D01*
X79458Y-141969D01*
X79334Y-141029D01*
X78971Y-140153D01*
X78394Y-139401D01*
X77761Y-138915D01*
X77900Y-138415D01*
X83832D01*
X83952Y-138681D01*
D02*
G37*
G36*
X294262Y-98845D02*
Y-117554D01*
X294191Y-117661D01*
X294102Y-118110D01*
X294191Y-118559D01*
X294446Y-118940D01*
X294826Y-119195D01*
X295276Y-119284D01*
X295337Y-119272D01*
X295837Y-119675D01*
Y-140389D01*
X295766Y-140496D01*
X295677Y-140945D01*
X295766Y-141394D01*
X295837Y-141501D01*
Y-150509D01*
X295337Y-150678D01*
X295016Y-150260D01*
X294285Y-149699D01*
X293433Y-149346D01*
X293020Y-149292D01*
Y-152756D01*
Y-156220D01*
X293433Y-156166D01*
X294285Y-155813D01*
X295016Y-155252D01*
X295337Y-154833D01*
X295837Y-155003D01*
Y-163776D01*
X295337Y-163983D01*
X277588Y-146234D01*
Y-122047D01*
X277511Y-121660D01*
X277291Y-121331D01*
X272370Y-116410D01*
X272041Y-116190D01*
X271654Y-116113D01*
X257722D01*
X257428Y-115613D01*
X257521Y-115148D01*
X257398Y-114530D01*
X257048Y-114006D01*
X256524Y-113656D01*
X255906Y-113533D01*
X255287Y-113656D01*
X254763Y-114006D01*
X254413Y-114530D01*
X254290Y-115148D01*
X254383Y-115613D01*
X254089Y-116113D01*
X201207D01*
X179250Y-94156D01*
X178922Y-93936D01*
X178534Y-93859D01*
X99229D01*
X92845Y-87475D01*
X93052Y-86975D01*
X94156D01*
X94544Y-86898D01*
X94872Y-86679D01*
X97861Y-83690D01*
X279108D01*
X294262Y-98845D01*
D02*
G37*
G36*
X125508Y-154487D02*
X125317Y-154949D01*
X88512D01*
X88508Y-154937D01*
X88402Y-154449D01*
X88930Y-153760D01*
X89288Y-152896D01*
X89410Y-151969D01*
X89288Y-151041D01*
X88930Y-150177D01*
X88361Y-149435D01*
X87618Y-148865D01*
X87613Y-148863D01*
X87712Y-148363D01*
X119384D01*
X125508Y-154487D01*
D02*
G37*
G36*
X84041Y-148863D02*
X84035Y-148865D01*
X83293Y-149435D01*
X82723Y-150177D01*
X82366Y-151041D01*
X82243Y-151969D01*
X82366Y-152896D01*
X82723Y-153760D01*
X83252Y-154449D01*
X83145Y-154937D01*
X83141Y-154949D01*
X78603D01*
X78461Y-154449D01*
X78971Y-153784D01*
X79334Y-152908D01*
X79458Y-151969D01*
X79334Y-151029D01*
X78971Y-150153D01*
X78394Y-149401D01*
X77693Y-148863D01*
X77697Y-148692D01*
X77834Y-148363D01*
X83941D01*
X84041Y-148863D01*
D02*
G37*
G36*
X158694Y-160120D02*
X158502Y-160582D01*
X134469D01*
X132261Y-158374D01*
X132452Y-157912D01*
X156486D01*
X158694Y-160120D01*
D02*
G37*
G36*
X402468Y-150362D02*
X401975Y-151004D01*
X401617Y-151868D01*
X401495Y-152795D01*
X401617Y-153723D01*
X401940Y-154501D01*
X395579Y-160862D01*
X395117Y-160671D01*
Y-156152D01*
X401407Y-149862D01*
X402313D01*
X402468Y-150362D01*
D02*
G37*
G36*
X131353Y-164282D02*
X131162Y-164744D01*
X105102D01*
X104714Y-164821D01*
X104523Y-164949D01*
X88512D01*
X88508Y-164937D01*
X88402Y-164449D01*
X88930Y-163760D01*
X89288Y-162896D01*
X89410Y-161969D01*
X89288Y-161041D01*
X88930Y-160177D01*
X88361Y-159435D01*
X87786Y-158993D01*
X87955Y-158493D01*
X125565D01*
X131353Y-164282D01*
D02*
G37*
G36*
X83868Y-158993D02*
X83293Y-159435D01*
X82723Y-160177D01*
X82366Y-161041D01*
X82243Y-161969D01*
X82366Y-162896D01*
X82723Y-163760D01*
X83252Y-164449D01*
X83145Y-164937D01*
X83141Y-164949D01*
X78603D01*
X78461Y-164449D01*
X78971Y-163784D01*
X79334Y-162908D01*
X79458Y-161969D01*
X79334Y-161029D01*
X78971Y-160153D01*
X78394Y-159401D01*
X77863Y-158993D01*
X78033Y-158493D01*
X83698D01*
X83868Y-158993D01*
D02*
G37*
G36*
X318173Y-168092D02*
X318622Y-168182D01*
X318702Y-168166D01*
X335472Y-184936D01*
X335153Y-185325D01*
X334912Y-185164D01*
X334409Y-185064D01*
X333907Y-185164D01*
X333480Y-185449D01*
X333384Y-185592D01*
X332763Y-185679D01*
X317667Y-170582D01*
Y-169532D01*
X317738Y-169425D01*
X317827Y-168976D01*
X317738Y-168527D01*
X318074Y-168138D01*
X318167Y-168088D01*
X318173Y-168092D01*
D02*
G37*
G36*
X338658Y-163516D02*
X340425Y-165283D01*
X340754Y-165503D01*
X341142Y-165580D01*
X346431D01*
X365385Y-184534D01*
X365178Y-185034D01*
X364736Y-185122D01*
X364212Y-185472D01*
X363862Y-185996D01*
X363770Y-186459D01*
X363283Y-186378D01*
X363183Y-185875D01*
X362898Y-185449D01*
X362471Y-185164D01*
X361968Y-185064D01*
X361466Y-185164D01*
X361039Y-185449D01*
X360754Y-185875D01*
X360737Y-185960D01*
X360195Y-186124D01*
X338063Y-163992D01*
X338071Y-163708D01*
X338123Y-163625D01*
X338238Y-163517D01*
X338243Y-163515D01*
X338658Y-163516D01*
D02*
G37*
G36*
X275562Y-144885D02*
Y-146653D01*
X275639Y-147041D01*
X275858Y-147370D01*
X294166Y-165678D01*
X294191Y-165804D01*
X294446Y-166184D01*
X294826Y-166439D01*
X295276Y-166528D01*
X295337Y-166516D01*
X295837Y-166919D01*
Y-187176D01*
X295302D01*
X267617Y-159492D01*
X267288Y-159272D01*
X266901Y-159195D01*
X160634D01*
X158426Y-156987D01*
X158618Y-156525D01*
X252381D01*
X252769Y-156448D01*
X253098Y-156228D01*
X255753Y-153572D01*
X261633D01*
X262021Y-153495D01*
X262350Y-153276D01*
X268942Y-146683D01*
X272638D01*
X273025Y-146605D01*
X273354Y-146386D01*
X275062Y-144678D01*
X275562Y-144885D01*
D02*
G37*
G36*
X326375Y-160445D02*
X361685Y-195756D01*
X362014Y-195975D01*
X362402Y-196053D01*
X385516D01*
X385708Y-196514D01*
X383550Y-198672D01*
X363530D01*
X325779Y-160921D01*
X325787Y-160638D01*
X325839Y-160554D01*
X325955Y-160446D01*
X325959Y-160444D01*
X326375Y-160445D01*
D02*
G37*
G36*
X324406Y-162414D02*
X362394Y-200401D01*
X362722Y-200621D01*
X363110Y-200698D01*
X382833D01*
X383024Y-201160D01*
X380158Y-204026D01*
X364947D01*
X323811Y-162890D01*
X323819Y-162606D01*
X323871Y-162522D01*
X323987Y-162415D01*
X323991Y-162412D01*
X324406Y-162414D01*
D02*
G37*
G36*
X401975Y-204587D02*
X402545Y-205329D01*
X403287Y-205899D01*
X404151Y-206257D01*
X404581Y-206313D01*
X404833Y-206851D01*
X404731Y-207013D01*
X390501D01*
X390309Y-206551D01*
X393052Y-203808D01*
X401653D01*
X401975Y-204587D01*
D02*
G37*
G36*
X362815Y-208697D02*
X362651Y-209239D01*
X362642Y-209241D01*
X320417Y-167016D01*
X320608Y-166499D01*
X320617Y-166499D01*
X362815Y-208697D01*
D02*
G37*
G36*
X322438Y-164383D02*
X363811Y-205756D01*
X364140Y-205975D01*
X364528Y-206052D01*
X379440D01*
X379632Y-206515D01*
X376530Y-209617D01*
X373561D01*
X373285Y-209200D01*
X373271Y-209117D01*
X373361Y-208661D01*
X373261Y-208158D01*
X372976Y-207732D01*
X372550Y-207447D01*
X372047Y-207347D01*
X371544Y-207447D01*
X371273Y-207629D01*
X364613D01*
X321842Y-164858D01*
X321850Y-164575D01*
X321902Y-164491D01*
X322018Y-164383D01*
X322022Y-164381D01*
X322438Y-164383D01*
D02*
G37*
G36*
X361882Y-211346D02*
X362211Y-211566D01*
X362598Y-211643D01*
X375561D01*
X375798Y-212143D01*
X375618Y-212373D01*
X359475D01*
X335123Y-188021D01*
X335206Y-187396D01*
X335339Y-187307D01*
X335624Y-186881D01*
X335724Y-186378D01*
X335624Y-185875D01*
X335463Y-185634D01*
X335851Y-185315D01*
X361882Y-211346D01*
D02*
G37*
G36*
X312595Y-174225D02*
X355984Y-217614D01*
X355792Y-218119D01*
X355460Y-218161D01*
X312000Y-174700D01*
X312008Y-174417D01*
X312060Y-174334D01*
X312175Y-174226D01*
X312180Y-174223D01*
X312595Y-174225D01*
D02*
G37*
G36*
X310627Y-176193D02*
X353700Y-219266D01*
X353512Y-219750D01*
X353151Y-219789D01*
X310031Y-176669D01*
X310039Y-176386D01*
X310091Y-176302D01*
X310207Y-176194D01*
X310211Y-176192D01*
X310627Y-176193D01*
D02*
G37*
G36*
X308658Y-178162D02*
X351654Y-221157D01*
X351462Y-221662D01*
X351129Y-221704D01*
X308063Y-178638D01*
X308071Y-178354D01*
X308123Y-178270D01*
X308238Y-178163D01*
X308243Y-178160D01*
X308658Y-178162D01*
D02*
G37*
G36*
X403656Y-209539D02*
X403287Y-209692D01*
X402545Y-210261D01*
X401975Y-211004D01*
X401617Y-211868D01*
X401495Y-212795D01*
X401617Y-213723D01*
X401940Y-214501D01*
X394639Y-221802D01*
X377728D01*
X377520Y-221302D01*
X389783Y-209039D01*
X403556D01*
X403656Y-209539D01*
D02*
G37*
G36*
X306690Y-180131D02*
X349182Y-222622D01*
X348993Y-223106D01*
X348633Y-223145D01*
X306094Y-180606D01*
X306102Y-180323D01*
X306154Y-180239D01*
X306270Y-180131D01*
X306274Y-180129D01*
X306690Y-180131D01*
D02*
G37*
%LPC*%
G36*
X226772Y-85786D02*
X226153Y-85909D01*
X225629Y-86259D01*
X225279Y-86783D01*
X225156Y-87402D01*
X225279Y-88020D01*
X225629Y-88544D01*
X226153Y-88894D01*
X226772Y-89017D01*
X227390Y-88894D01*
X227914Y-88544D01*
X228264Y-88020D01*
X228387Y-87402D01*
X228264Y-86783D01*
X227914Y-86259D01*
X227390Y-85909D01*
X226772Y-85786D01*
D02*
G37*
G36*
X219398Y-86079D02*
Y-89500D01*
X222819D01*
X222749Y-88968D01*
X222350Y-88007D01*
X221717Y-87181D01*
X220891Y-86547D01*
X219930Y-86149D01*
X219398Y-86079D01*
D02*
G37*
G36*
X218398D02*
X217866Y-86149D01*
X216904Y-86547D01*
X216078Y-87181D01*
X215445Y-88007D01*
X215047Y-88968D01*
X214977Y-89500D01*
X218398D01*
Y-86079D01*
D02*
G37*
G36*
X237508Y-89218D02*
Y-90642D01*
X238931D01*
X238877Y-90368D01*
X238438Y-89711D01*
X237782Y-89273D01*
X237508Y-89218D01*
D02*
G37*
G36*
X236508D02*
X236234Y-89273D01*
X235577Y-89711D01*
X235139Y-90368D01*
X235084Y-90642D01*
X236508D01*
Y-89218D01*
D02*
G37*
G36*
X117884Y-85030D02*
X110778D01*
Y-92135D01*
X117884D01*
Y-85030D01*
D02*
G37*
G36*
X104331Y-84999D02*
X103403Y-85121D01*
X102539Y-85479D01*
X101797Y-86049D01*
X101227Y-86791D01*
X100869Y-87655D01*
X100747Y-88583D01*
X100869Y-89510D01*
X101227Y-90374D01*
X101797Y-91116D01*
X102539Y-91686D01*
X103403Y-92044D01*
X104331Y-92166D01*
X105258Y-92044D01*
X106122Y-91686D01*
X106865Y-91116D01*
X107434Y-90374D01*
X107792Y-89510D01*
X107914Y-88583D01*
X107792Y-87655D01*
X107434Y-86791D01*
X106865Y-86049D01*
X106122Y-85479D01*
X105258Y-85121D01*
X104331Y-84999D01*
D02*
G37*
G36*
X238931Y-91642D02*
X237508D01*
Y-93065D01*
X237782Y-93011D01*
X238438Y-92572D01*
X238877Y-91916D01*
X238931Y-91642D01*
D02*
G37*
G36*
X236508D02*
X235084D01*
X235139Y-91916D01*
X235577Y-92572D01*
X236234Y-93011D01*
X236508Y-93065D01*
Y-91642D01*
D02*
G37*
G36*
X208898Y-86417D02*
X207970Y-86539D01*
X207106Y-86897D01*
X206364Y-87466D01*
X205794Y-88208D01*
X205436Y-89073D01*
X205314Y-90000D01*
X205436Y-90927D01*
X205794Y-91792D01*
X206364Y-92534D01*
X207106Y-93103D01*
X207970Y-93461D01*
X208898Y-93583D01*
X209825Y-93461D01*
X210689Y-93103D01*
X211432Y-92534D01*
X212001Y-91792D01*
X212359Y-90927D01*
X212481Y-90000D01*
X212359Y-89073D01*
X212001Y-88208D01*
X211432Y-87466D01*
X210689Y-86897D01*
X209825Y-86539D01*
X208898Y-86417D01*
D02*
G37*
G36*
X218398Y-90500D02*
X214977D01*
X215047Y-91032D01*
X215445Y-91993D01*
X216078Y-92819D01*
X216904Y-93453D01*
X217866Y-93851D01*
X218398Y-93921D01*
Y-90500D01*
D02*
G37*
G36*
X222819D02*
X219398D01*
Y-93921D01*
X219930Y-93851D01*
X220891Y-93453D01*
X221717Y-92819D01*
X222350Y-91993D01*
X222749Y-91032D01*
X222819Y-90500D01*
D02*
G37*
G36*
X236102Y-97478D02*
X235483Y-97601D01*
X234959Y-97952D01*
X234609Y-98475D01*
X234486Y-99094D01*
X234609Y-99712D01*
X234959Y-100236D01*
X235483Y-100586D01*
X236102Y-100709D01*
X236720Y-100586D01*
X237244Y-100236D01*
X237594Y-99712D01*
X237717Y-99094D01*
X237594Y-98475D01*
X237244Y-97952D01*
X236720Y-97601D01*
X236102Y-97478D01*
D02*
G37*
G36*
X218898Y-96417D02*
X217970Y-96539D01*
X217106Y-96897D01*
X216364Y-97466D01*
X215794Y-98208D01*
X215436Y-99072D01*
X215314Y-100000D01*
X215436Y-100927D01*
X215794Y-101792D01*
X216364Y-102534D01*
X217106Y-103103D01*
X217970Y-103461D01*
X218898Y-103583D01*
X219825Y-103461D01*
X220689Y-103103D01*
X221431Y-102534D01*
X222001Y-101792D01*
X222359Y-100927D01*
X222481Y-100000D01*
X222359Y-99072D01*
X222001Y-98208D01*
X221431Y-97466D01*
X220689Y-96897D01*
X219825Y-96539D01*
X218898Y-96417D01*
D02*
G37*
G36*
X208898D02*
X207970Y-96539D01*
X207106Y-96897D01*
X206364Y-97466D01*
X205794Y-98208D01*
X205436Y-99072D01*
X205314Y-100000D01*
X205436Y-100927D01*
X205794Y-101792D01*
X206364Y-102534D01*
X207106Y-103103D01*
X207970Y-103461D01*
X208898Y-103583D01*
X209825Y-103461D01*
X210689Y-103103D01*
X211432Y-102534D01*
X212001Y-101792D01*
X212359Y-100927D01*
X212481Y-100000D01*
X212359Y-99072D01*
X212001Y-98208D01*
X211432Y-97466D01*
X210689Y-96897D01*
X209825Y-96539D01*
X208898Y-96417D01*
D02*
G37*
G36*
X279921Y-91692D02*
X262992D01*
X262374Y-91815D01*
X261850Y-92165D01*
Y-92165D01*
X261500Y-92689D01*
X261377Y-93307D01*
X261500Y-93925D01*
X261850Y-94449D01*
X262374Y-94799D01*
X262992Y-94922D01*
X262992Y-94922D01*
X279252D01*
X288102Y-103772D01*
X288067Y-104174D01*
X287676Y-104386D01*
X287614Y-104411D01*
X287008Y-104290D01*
X286390Y-104413D01*
X285973Y-104692D01*
X264350D01*
X264134Y-104370D01*
X263610Y-104019D01*
X262992Y-103896D01*
X262374Y-104019D01*
X261850Y-104370D01*
X261500Y-104894D01*
X261377Y-105512D01*
X261500Y-106130D01*
X261850Y-106654D01*
X262374Y-107004D01*
X262992Y-107127D01*
X263315Y-107063D01*
X263599Y-107119D01*
X263599Y-107119D01*
X285973D01*
X286390Y-107398D01*
X287008Y-107521D01*
X287626Y-107398D01*
X287707Y-107343D01*
X288148Y-107579D01*
Y-118713D01*
X287972Y-118786D01*
X287230Y-119356D01*
X286661Y-120098D01*
X286302Y-120962D01*
X286180Y-121890D01*
X286302Y-122817D01*
X286661Y-123681D01*
X287230Y-124424D01*
X287972Y-124993D01*
X288836Y-125351D01*
X289764Y-125473D01*
X290691Y-125351D01*
X291556Y-124993D01*
X292298Y-124424D01*
X292867Y-123681D01*
X293225Y-122817D01*
X293347Y-121890D01*
X293225Y-120962D01*
X292867Y-120098D01*
X292298Y-119356D01*
X291556Y-118786D01*
X291379Y-118713D01*
Y-103150D01*
X291256Y-102532D01*
X290906Y-102007D01*
X281063Y-92165D01*
X280539Y-91815D01*
X279921Y-91692D01*
D02*
G37*
G36*
X237114Y-106541D02*
Y-107965D01*
X238538D01*
X238483Y-107690D01*
X238045Y-107034D01*
X237388Y-106596D01*
X237114Y-106541D01*
D02*
G37*
G36*
X236114D02*
X235840Y-106596D01*
X235184Y-107034D01*
X234745Y-107690D01*
X234690Y-107965D01*
X236114D01*
Y-106541D01*
D02*
G37*
G36*
X238538Y-108965D02*
X237114D01*
Y-110388D01*
X237388Y-110334D01*
X238045Y-109895D01*
X238483Y-109239D01*
X238538Y-108965D01*
D02*
G37*
G36*
X236114D02*
X234690D01*
X234745Y-109239D01*
X235184Y-109895D01*
X235840Y-110334D01*
X236114Y-110388D01*
Y-108965D01*
D02*
G37*
G36*
X222450Y-106447D02*
X215345D01*
Y-113553D01*
X222450D01*
Y-106447D01*
D02*
G37*
G36*
X208898Y-106417D02*
X207970Y-106539D01*
X207106Y-106897D01*
X206364Y-107466D01*
X205794Y-108208D01*
X205436Y-109072D01*
X205314Y-110000D01*
X205436Y-110927D01*
X205794Y-111792D01*
X206364Y-112534D01*
X207106Y-113103D01*
X207970Y-113461D01*
X208898Y-113583D01*
X209825Y-113461D01*
X210689Y-113103D01*
X211432Y-112534D01*
X212001Y-111792D01*
X212359Y-110927D01*
X212481Y-110000D01*
X212359Y-109072D01*
X212001Y-108208D01*
X211432Y-107466D01*
X210689Y-106897D01*
X209825Y-106539D01*
X208898Y-106417D01*
D02*
G37*
G36*
X226969Y-110877D02*
X226350Y-111000D01*
X225826Y-111350D01*
X225476Y-111874D01*
X225353Y-112492D01*
X225476Y-113110D01*
X225826Y-113634D01*
X226350Y-113984D01*
X226969Y-114107D01*
X227587Y-113984D01*
X228111Y-113634D01*
X228461Y-113110D01*
X228584Y-112492D01*
X228461Y-111874D01*
X228111Y-111350D01*
X227587Y-111000D01*
X226969Y-110877D01*
D02*
G37*
G36*
X293717Y-127937D02*
X290264D01*
Y-131390D01*
X293717D01*
Y-127937D01*
D02*
G37*
G36*
X289264D02*
X285811D01*
Y-131390D01*
X289264D01*
Y-127937D01*
D02*
G37*
G36*
X293717Y-132390D02*
X290264D01*
Y-135843D01*
X293717D01*
Y-132390D01*
D02*
G37*
G36*
X289264D02*
X285811D01*
Y-135843D01*
X289264D01*
Y-132390D01*
D02*
G37*
G36*
X292020Y-149292D02*
X291606Y-149346D01*
X290755Y-149699D01*
X290023Y-150260D01*
X289462Y-150991D01*
X289110Y-151842D01*
X289055Y-152256D01*
X292020D01*
Y-149292D01*
D02*
G37*
G36*
Y-153256D02*
X289055D01*
X289110Y-153670D01*
X289462Y-154521D01*
X290023Y-155252D01*
X290755Y-155813D01*
X291606Y-156166D01*
X292020Y-156220D01*
Y-153256D01*
D02*
G37*
G36*
X256299Y-154684D02*
X255681Y-154807D01*
X255157Y-155157D01*
X254807Y-155681D01*
X254684Y-156299D01*
X254807Y-156917D01*
X255157Y-157441D01*
X255681Y-157791D01*
X256299Y-157914D01*
X256917Y-157791D01*
X257441Y-157441D01*
X257791Y-156917D01*
X257914Y-156299D01*
X257791Y-155681D01*
X257441Y-155157D01*
X256917Y-154807D01*
X256299Y-154684D01*
D02*
G37*
%LPD*%
D11*
X30446Y-147350D02*
X119803D01*
X120378Y-145962D02*
X131315Y-156899D01*
X21833Y-145962D02*
X120378D01*
X15827Y-151969D02*
X21833Y-145962D01*
X119803Y-147350D02*
X134049Y-161595D01*
X15827Y-161969D02*
X30446Y-147350D01*
X298425Y-142520D02*
Y-95276D01*
Y-189764D02*
Y-142520D01*
X195370Y-77953D02*
X295276D01*
X175488Y-58071D02*
X195370Y-77953D01*
X109754Y-120581D02*
X183418D01*
X101142Y-111969D02*
X109754Y-120581D01*
X85827Y-111969D02*
X101142D01*
X183418Y-120581D02*
X183900Y-121063D01*
X271654D01*
X276575Y-146653D02*
Y-122047D01*
X271654Y-117126D02*
X276575Y-122047D01*
X200787Y-117126D02*
X271654D01*
X98809Y-94872D02*
X178534D01*
X91912Y-87975D02*
X98809Y-94872D01*
X49356Y-87975D02*
X91912D01*
X45362Y-91969D02*
X49356Y-87975D01*
X15827Y-91969D02*
X45362D01*
X178534Y-94872D02*
X200787Y-117126D01*
X276575Y-146653D02*
X295276Y-165354D01*
X49356Y-85962D02*
X94156D01*
X97441Y-82677D02*
X279528D01*
X94156Y-85962D02*
X97441Y-82677D01*
X45362Y-81968D02*
X49356Y-85962D01*
X15827Y-81968D02*
X45362D01*
X279528Y-82677D02*
X295276Y-98425D01*
Y-118110D02*
Y-98425D01*
X138819Y-61968D02*
X142717Y-58071D01*
X85827Y-61968D02*
X138819D01*
X142717Y-58071D02*
X175488D01*
X70866Y-47008D02*
X75827Y-51968D01*
X70866Y-47008D02*
Y-29528D01*
X72825Y-27569D01*
X163376D01*
X185039Y-5906D01*
X298228D01*
X300238Y-36417D02*
X308071Y-28585D01*
X188976Y-36417D02*
X300238D01*
X308071Y-28585D02*
Y-28543D01*
X90923Y-47065D02*
X123836D01*
X127953Y-51181D01*
X85827Y-41969D02*
X90923Y-47065D01*
X127953Y-51181D02*
X174213D01*
X188976Y-36417D01*
X15827Y-191969D02*
X42441Y-165354D01*
X67913D01*
X68521Y-165962D01*
X104897D01*
X105102Y-165758D01*
X165453D01*
X15827Y-181968D02*
X40315Y-157480D01*
X125984D01*
X132874Y-164370D02*
X262795D01*
X125984Y-157480D02*
X132874Y-164370D01*
X126454Y-155962D02*
X133474Y-162983D01*
X31833Y-155962D02*
X126454D01*
X15827Y-171968D02*
X31833Y-155962D01*
X134049Y-161595D02*
X265532D01*
X131315Y-156899D02*
X156906D01*
X160214Y-160208D01*
X15827Y-131968D02*
X21260Y-137402D01*
X113779D02*
X131890Y-155512D01*
X21260Y-137402D02*
X113779D01*
X84992Y-135962D02*
X85039Y-135915D01*
X63779Y-133858D02*
X69738D01*
X71842Y-135962D01*
X84992D01*
X114255Y-135915D02*
X132175Y-153835D01*
X85039Y-135915D02*
X114255D01*
X102271Y-121968D02*
X132460Y-152158D01*
X85827Y-121968D02*
X102271D01*
X15827D02*
X47165D01*
X59055Y-133858D01*
X63779D01*
X260244Y-149205D02*
X266932Y-142517D01*
Y-138583D01*
X253945Y-149205D02*
X260244D01*
X132460Y-152158D02*
X250992D01*
X253945Y-149205D01*
X273652Y-139794D02*
Y-133435D01*
Y-139794D02*
X274606Y-140748D01*
X272638Y-145669D02*
X274606Y-143701D01*
Y-140748D01*
X261633Y-152559D02*
X268523Y-145669D01*
X272638D01*
X268437Y-143384D02*
X272157D01*
X260938Y-150882D02*
X268437Y-143384D01*
X254639Y-150882D02*
X260938D01*
X251687Y-153835D02*
X254639Y-150882D01*
X255334Y-152559D02*
X261633D01*
X252381Y-155512D02*
X255334Y-152559D01*
X131890Y-155512D02*
X252381D01*
X132175Y-153835D02*
X251687D01*
X160214Y-160208D02*
X266901D01*
X294882Y-188189D01*
X296850Y-93701D02*
Y-46457D01*
Y-140945D02*
Y-93701D01*
Y-188189D02*
Y-140945D01*
X265532Y-161595D02*
X293701Y-189764D01*
X298425Y-95276D02*
Y-48031D01*
X165453Y-165758D02*
X165542Y-165846D01*
X261516D01*
X290158Y-194488D01*
X303150Y-147244D02*
Y-100000D01*
Y-52756D01*
Y-194488D02*
Y-147244D01*
X262795Y-164370D02*
X291339Y-192913D01*
X301575Y-98425D02*
Y-51181D01*
Y-145669D02*
Y-98425D01*
Y-192913D02*
Y-145669D01*
X133474Y-162983D02*
X264164D01*
X292520Y-191339D01*
X300000Y-96850D02*
Y-49606D01*
Y-144095D02*
Y-96850D01*
Y-191339D02*
Y-144095D01*
X290158Y-194488D02*
X303150D01*
X291339Y-192913D02*
X301575D01*
X292520Y-191339D02*
X300000D01*
X293701Y-189764D02*
X298425D01*
X294882Y-188189D02*
X296850D01*
X304842Y-180787D02*
X348257Y-224202D01*
X403672D01*
X415079Y-212795D01*
X306811Y-178819D02*
X350807Y-222815D01*
X395059D01*
X405079Y-212795D01*
X308780Y-176850D02*
X352776Y-220847D01*
X405429Y-208026D02*
X410660Y-202795D01*
X389364Y-208026D02*
X405429D01*
X410660Y-202795D02*
X415079D01*
X376543Y-220847D02*
X389364Y-208026D01*
X352776Y-220847D02*
X376543D01*
X310748Y-174882D02*
X355138Y-219272D01*
X392632Y-202795D02*
X405079D01*
X376156Y-219272D02*
X392632Y-202795D01*
X355138Y-219272D02*
X376156D01*
X312717Y-172913D02*
X357106Y-217303D01*
X376162D02*
X395653Y-197813D01*
X410660Y-192795D02*
X415079D01*
X405642Y-197813D02*
X410660Y-192795D01*
X395653Y-197813D02*
X405642D01*
X357106Y-217303D02*
X376162D01*
X314709Y-171796D02*
X358268Y-215354D01*
X376149D02*
X398708Y-192795D01*
X405079D01*
X358268Y-215354D02*
X376149D01*
X333730Y-188061D02*
X359055Y-213386D01*
X376155D02*
X400692Y-188849D01*
X410660Y-182795D02*
X415079D01*
X404606Y-188849D02*
X410660Y-182795D01*
X400692Y-188849D02*
X404606D01*
X359055Y-213386D02*
X376155D01*
X319037Y-167068D02*
X362598Y-210630D01*
X404784Y-182795D02*
X405079D01*
X376949Y-210630D02*
X404784Y-182795D01*
X362598Y-210630D02*
X376949D01*
X364193Y-208642D02*
X372028D01*
X372047Y-208661D01*
X401041Y-176833D02*
X405079Y-172795D01*
X401041Y-184576D02*
Y-176833D01*
X380578Y-205039D02*
X401041Y-184576D01*
X364528Y-205039D02*
X380578D01*
X405938Y-167517D02*
X410660Y-162795D01*
X399654Y-171260D02*
X403396Y-167517D01*
X410660Y-162795D02*
X415079D01*
X403396Y-167517D02*
X405938D01*
X399654Y-184001D02*
Y-171260D01*
X383970Y-199685D02*
X399654Y-184001D01*
X363110Y-199685D02*
X383970D01*
X398266Y-169291D02*
X404762Y-162795D01*
X405079D01*
X396654Y-185039D02*
Y-185027D01*
X398266Y-183414D01*
Y-169291D01*
X386653Y-195039D02*
X396654Y-185039D01*
X362402Y-195039D02*
X386653D01*
X402400Y-158849D02*
X404606D01*
X396879Y-164370D02*
X402400Y-158849D01*
X410660Y-152795D02*
X415079D01*
X404606Y-158849D02*
X410660Y-152795D01*
X390033Y-189685D02*
X396879Y-182839D01*
Y-164370D01*
X362323Y-189685D02*
X390033D01*
X395491Y-162383D02*
X405079Y-152795D01*
X395491Y-182265D02*
Y-162383D01*
X390748Y-187008D02*
X395491Y-182265D01*
X369291Y-187008D02*
X390748D01*
X404606Y-148849D02*
X410660Y-142795D01*
X400987Y-148849D02*
X404606D01*
X394104Y-155732D02*
X400987Y-148849D01*
X410660Y-142795D02*
X415079D01*
X390797Y-184646D02*
X394104Y-181338D01*
X369291Y-184646D02*
X390797D01*
X394104Y-181338D02*
Y-155732D01*
X370528Y-182732D02*
X390748D01*
X392717Y-180764D01*
Y-155157D02*
X405079Y-142795D01*
X392717Y-180764D02*
Y-155157D01*
X386496Y-82362D02*
Y-35118D01*
Y-129606D02*
Y-82362D01*
Y-176850D02*
Y-129606D01*
X382559Y-172913D02*
Y-31181D01*
X376654Y-167008D02*
Y-25276D01*
X372716Y-163071D02*
Y-21339D01*
X314709Y-171796D02*
Y-170969D01*
X316653Y-171002D02*
Y-121732D01*
Y-171002D02*
X333713Y-188061D01*
X333730D01*
X341142Y-164567D02*
X346850D01*
X369291Y-187008D01*
X347638Y-162992D02*
X369291Y-184646D01*
X343504Y-162992D02*
X347638D01*
X342717Y-158268D02*
X346063D01*
X370528Y-182732D01*
X338779Y-162205D02*
X341142Y-164567D01*
X318622Y-167008D02*
Y-25276D01*
X318622Y-167008D02*
X318682Y-167068D01*
X319037D01*
X314685Y-170945D02*
X314709Y-170969D01*
X314685Y-170945D02*
Y-123701D01*
X338779Y-162205D02*
Y-114961D01*
X340748Y-160236D02*
X343504Y-162992D01*
X306811Y-178819D02*
Y-37087D01*
X308780Y-176850D02*
Y-35118D01*
X312717Y-172913D02*
Y-31181D01*
X322559Y-163071D02*
Y-21339D01*
X358465Y-148819D02*
Y-54331D01*
Y-7087D01*
X356496Y-53150D02*
Y-5906D01*
Y-100394D02*
Y-53150D01*
Y-147638D02*
Y-100394D01*
X354528Y-51968D02*
Y-4724D01*
Y-99213D02*
Y-51968D01*
Y-146457D02*
Y-99213D01*
X352559Y-50787D02*
Y-3543D01*
Y-98032D02*
Y-50787D01*
Y-145276D02*
Y-98032D01*
X342717Y-63779D02*
Y-16535D01*
Y-111024D02*
Y-63779D01*
Y-158268D02*
Y-111024D01*
X340748Y-65748D02*
Y-18504D01*
Y-112992D02*
Y-65748D01*
Y-160236D02*
Y-112992D01*
X338779Y-67716D02*
Y-20472D01*
Y-114961D02*
Y-67716D01*
X336811Y-69685D02*
Y-22441D01*
Y-116929D02*
Y-69685D01*
Y-164173D02*
Y-116929D01*
X390433Y-180787D02*
Y-133543D01*
X388465Y-178764D02*
Y-131575D01*
X388464Y-37087D02*
X388465Y-37087D01*
X388464Y-84331D02*
X388465Y-84331D01*
Y-131575D02*
Y-84331D01*
Y-84331D02*
Y-37087D01*
X388464Y-131575D02*
X388465Y-131575D01*
X388464Y-84331D02*
X388465Y-84331D01*
X388464Y-131575D02*
X388465Y-131575D01*
X336811Y-164173D02*
X362323Y-189685D01*
X368779Y-64646D02*
Y-17402D01*
Y-159134D02*
Y-111890D01*
X370748Y-161102D02*
Y-113858D01*
X368779Y-111890D02*
Y-64646D01*
X370748Y-113858D02*
Y-66614D01*
X326496Y-159134D02*
X362402Y-195039D01*
X324528Y-161102D02*
X363110Y-199685D01*
X320590Y-165039D02*
X364193Y-208642D01*
X322559Y-163071D02*
X364528Y-205039D01*
X326496Y-159134D02*
Y-111890D01*
Y-64646D02*
Y-17402D01*
X390433Y-133543D02*
Y-86299D01*
Y-39055D01*
X384527Y-80394D02*
Y-33150D01*
Y-127638D02*
Y-80394D01*
Y-174882D02*
Y-127638D01*
X380591Y-76457D02*
Y-29213D01*
Y-123701D02*
Y-76457D01*
Y-170945D02*
Y-123701D01*
X378622Y-74488D02*
Y-27244D01*
Y-121732D02*
Y-74488D01*
Y-168976D02*
Y-121732D01*
X374685Y-70551D02*
Y-23307D01*
Y-117795D02*
Y-70551D01*
Y-165039D02*
Y-117795D01*
X370748Y-66614D02*
Y-19370D01*
X326496Y-111890D02*
Y-64646D01*
X324528Y-161102D02*
Y-113858D01*
Y-66614D01*
Y-19370D01*
X320590Y-165039D02*
Y-117795D01*
Y-70551D01*
Y-23307D01*
X316653Y-121732D02*
Y-74488D01*
Y-27244D01*
X314685Y-123701D02*
Y-76457D01*
Y-29213D01*
X310748Y-174882D02*
Y-127638D01*
Y-80394D01*
Y-33150D01*
X304842Y-180787D02*
Y-133543D01*
Y-86299D01*
Y-39055D01*
D13*
X277761Y-3937D02*
X281814Y116D01*
X114173Y-3937D02*
X277761D01*
X111221Y-6890D02*
X114173Y-3937D01*
X283656Y0D02*
X354331D01*
X281814Y116D02*
X283541D01*
X283656Y0D01*
X15827Y-11969D02*
X20906Y-6890D01*
X111221D01*
D17*
X277165Y-43701D02*
X291975Y-58511D01*
X256693Y-43701D02*
X277165D01*
X262598Y-24409D02*
X290551D01*
X311024Y-3937D01*
X311024D01*
X294338Y-58511D02*
X294488Y-58661D01*
X291975Y-58511D02*
X294338D01*
X256693Y-142913D02*
X261024Y-138583D01*
X244488Y-142913D02*
X256693D01*
X263205Y-105512D02*
X263599Y-105905D01*
X262992Y-105512D02*
X263205D01*
X263599Y-105905D02*
X287008D01*
D45*
X226575Y-138937D02*
D03*
X289764Y-121890D02*
D03*
X223622Y-212598D02*
D03*
X194095Y-128937D02*
D03*
X104331Y-88583D02*
D03*
X248189Y-229173D02*
D03*
X238189Y-239173D02*
D03*
X248189D02*
D03*
X238189Y-249173D02*
D03*
X248189D02*
D03*
X208898Y-30472D02*
D03*
X218898Y-20472D02*
D03*
X208898D02*
D03*
X218898Y-10472D02*
D03*
X208898D02*
D03*
X208898Y-110000D02*
D03*
X218898Y-100000D02*
D03*
X208898D02*
D03*
X218898Y-90000D02*
D03*
X208898D02*
D03*
X208898Y-70236D02*
D03*
X218898Y-60236D02*
D03*
X208898D02*
D03*
X218898Y-50236D02*
D03*
X208898D02*
D03*
X108110Y-208661D02*
D03*
X118110Y-218661D02*
D03*
Y-208661D02*
D03*
X104331Y-55118D02*
D03*
Y-39370D02*
D03*
Y-23622D02*
D03*
X405079Y-42795D02*
D03*
X415079D02*
D03*
X405079Y-52795D02*
D03*
X415079D02*
D03*
X405079Y-62795D02*
D03*
X415079D02*
D03*
X405079Y-72795D02*
D03*
X415079D02*
D03*
X405079Y-82795D02*
D03*
X415079D02*
D03*
X405079Y-92795D02*
D03*
X415079D02*
D03*
X405079Y-102795D02*
D03*
X415079D02*
D03*
X405079Y-112795D02*
D03*
X415079D02*
D03*
X405079Y-122795D02*
D03*
X415079D02*
D03*
X405079Y-132795D02*
D03*
X415079D02*
D03*
X405079Y-142795D02*
D03*
X415079D02*
D03*
X405079Y-152795D02*
D03*
X415079D02*
D03*
X405079Y-162795D02*
D03*
X415079D02*
D03*
X405079Y-172795D02*
D03*
X415079D02*
D03*
X405079Y-182795D02*
D03*
X415079D02*
D03*
X405079Y-192795D02*
D03*
X415079D02*
D03*
X405079Y-202795D02*
D03*
X415079D02*
D03*
X405079Y-212795D02*
D03*
X5827Y-231968D02*
D03*
Y-221969D02*
D03*
Y-211968D02*
D03*
Y-201969D02*
D03*
Y-191969D02*
D03*
Y-181968D02*
D03*
Y-171968D02*
D03*
Y-161969D02*
D03*
Y-151969D02*
D03*
Y-141969D02*
D03*
Y-131968D02*
D03*
Y-121968D02*
D03*
Y-111969D02*
D03*
Y-101969D02*
D03*
Y-91969D02*
D03*
Y-81968D02*
D03*
Y-71969D02*
D03*
Y-61968D02*
D03*
Y-51968D02*
D03*
Y-41969D02*
D03*
Y-31969D02*
D03*
Y-21969D02*
D03*
Y-11969D02*
D03*
X85827Y-231968D02*
D03*
Y-221969D02*
D03*
Y-211968D02*
D03*
Y-201969D02*
D03*
Y-191969D02*
D03*
Y-181968D02*
D03*
Y-171968D02*
D03*
Y-161969D02*
D03*
Y-151969D02*
D03*
Y-141969D02*
D03*
Y-131968D02*
D03*
Y-121968D02*
D03*
Y-111969D02*
D03*
Y-101969D02*
D03*
Y-91969D02*
D03*
Y-81968D02*
D03*
Y-71969D02*
D03*
Y-61968D02*
D03*
Y-51968D02*
D03*
Y-41969D02*
D03*
Y-31969D02*
D03*
Y-21969D02*
D03*
Y-11969D02*
D03*
X171457Y-228150D02*
D03*
D46*
X96457Y-68898D02*
D03*
X120866Y-9843D02*
D03*
D47*
X-11811Y-11811D02*
D03*
Y-263779D02*
D03*
X409449Y-11811D02*
D03*
Y-263779D02*
D03*
D55*
X107283Y-168307D02*
X118110Y-179134D01*
Y-208661D02*
Y-179134D01*
X289764Y-121890D02*
Y-103150D01*
X279921Y-93307D02*
X289764Y-103150D01*
X262992Y-93307D02*
X279921D01*
X262992Y-93307D02*
X262992Y-93307D01*
X108110Y-218661D02*
X118110D01*
X125984Y-216535D02*
X199016D01*
X118268Y-218504D02*
X124016D01*
X118110Y-218661D02*
X118268Y-218504D01*
X124016D02*
X125984Y-216535D01*
X199016D02*
X221654Y-239173D01*
X161614Y-228150D02*
X169291Y-220472D01*
X194095D01*
X222638Y-249016D01*
X238032D01*
X221654Y-239173D02*
X238189D01*
D56*
X85827Y-201969D02*
X96850Y-190945D01*
X103347D01*
X85827Y-191969D02*
X90787Y-187008D01*
X103347D01*
X85827Y-101969D02*
X100394D01*
X116535Y-118110D01*
X167323D01*
X85827Y-71969D02*
X90236Y-76378D01*
X101969D01*
X107874Y-70472D01*
X159843D01*
X167717Y-78347D01*
X120866Y-41339D02*
X163386D01*
X85827Y-31969D02*
X111496D01*
X120866Y-41339D01*
D57*
X15827Y-141969D02*
D03*
X75827Y-21969D02*
D03*
Y-161969D02*
D03*
Y-151969D02*
D03*
Y-141969D02*
D03*
Y-1969D02*
D03*
Y-11969D02*
D03*
Y-171968D02*
D03*
Y-181968D02*
D03*
Y-191969D02*
D03*
Y-201969D02*
D03*
Y-211968D02*
D03*
Y-221969D02*
D03*
Y-231968D02*
D03*
X15827D02*
D03*
Y-221969D02*
D03*
Y-211968D02*
D03*
Y-201969D02*
D03*
Y-191969D02*
D03*
Y-181968D02*
D03*
Y-171968D02*
D03*
Y-161969D02*
D03*
Y-151969D02*
D03*
X75827Y-31969D02*
D03*
Y-41969D02*
D03*
Y-51968D02*
D03*
Y-61968D02*
D03*
Y-71969D02*
D03*
Y-81968D02*
D03*
Y-91969D02*
D03*
Y-101969D02*
D03*
Y-111969D02*
D03*
Y-121968D02*
D03*
Y-131968D02*
D03*
X15827D02*
D03*
Y-121968D02*
D03*
Y-111969D02*
D03*
Y-101969D02*
D03*
Y-91969D02*
D03*
Y-81968D02*
D03*
Y-71969D02*
D03*
Y-61968D02*
D03*
Y-51968D02*
D03*
Y-41969D02*
D03*
Y-31969D02*
D03*
Y-21969D02*
D03*
Y-11969D02*
D03*
Y-1969D02*
D03*
D58*
X226575Y-128937D02*
D03*
X289764Y-131890D02*
D03*
X223622Y-202598D02*
D03*
X194095Y-138937D02*
D03*
X238189Y-229173D02*
D03*
X218898Y-30472D02*
D03*
X218898Y-110000D02*
D03*
X218898Y-70236D02*
D03*
X415079Y-212795D02*
D03*
X5827Y-1969D02*
D03*
X85827D02*
D03*
X161614Y-228150D02*
D03*
D59*
X114331Y-88583D02*
D03*
X108110Y-218661D02*
D03*
D60*
X141535Y-248228D02*
D03*
X181693D02*
D03*
D61*
X148425Y-78543D02*
D03*
X107874Y-142126D02*
D03*
X292520Y-152756D02*
D03*
X131102Y-35433D02*
D03*
X166531Y-8854D02*
D03*
X147852Y-13795D02*
D03*
X156693Y-63189D02*
D03*
X158268Y-47047D02*
D03*
X130709D02*
D03*
X140551D02*
D03*
D62*
X197736Y-181693D02*
D03*
X259842Y-126969D02*
D03*
X364961Y-89764D02*
D03*
X140413Y-133965D02*
D03*
X235433Y-47244D02*
D03*
X241433Y-47339D02*
D03*
X235117Y-59724D02*
D03*
X235189Y-74559D02*
D03*
X241189Y-74654D02*
D03*
X276575Y-68898D02*
D03*
X254724Y0D02*
D03*
X232283Y-25197D02*
D03*
X365354Y-186614D02*
D03*
X107283Y-168307D02*
D03*
X103347Y-190945D02*
D03*
Y-187008D02*
D03*
X292126Y-2362D02*
D03*
X311122Y-8465D02*
D03*
X305512Y-18110D02*
D03*
X266142Y-126378D02*
D03*
X255906Y-115148D02*
D03*
X243307Y-33465D02*
D03*
X225590Y-11024D02*
D03*
X262992Y-128347D02*
D03*
X240158Y-132874D02*
D03*
X184055Y-22638D02*
D03*
X287402Y-38395D02*
D03*
X298228Y-5906D02*
D03*
X354331Y0D02*
D03*
X63779Y-133858D02*
D03*
X182087Y-113189D02*
D03*
X294488Y-58661D02*
D03*
X181496Y-73228D02*
D03*
X167333Y-15322D02*
D03*
X181496Y-33465D02*
D03*
X167323Y-118110D02*
D03*
X167717Y-78347D02*
D03*
X163386Y-41339D02*
D03*
X244488Y-142913D02*
D03*
X301181Y-8661D02*
D03*
X261024Y-138583D02*
D03*
X256693Y-43701D02*
D03*
X262992Y-105512D02*
D03*
Y-93307D02*
D03*
X287008Y-105905D02*
D03*
X262598Y-24409D02*
D03*
X311024Y-3937D02*
D03*
X236102Y-99094D02*
D03*
X235807Y-210256D02*
D03*
X143701Y-37008D02*
D03*
X229528Y-148425D02*
D03*
X175591Y-148425D02*
D03*
X162055Y-108811D02*
D03*
X156102Y-96850D02*
D03*
X151772Y-136811D02*
D03*
X141959Y-98396D02*
D03*
X174409Y-187008D02*
D03*
X204921Y-174213D02*
D03*
X213583Y-183858D02*
D03*
X203937Y-215551D02*
D03*
X211811Y-205709D02*
D03*
X264961Y-236221D02*
D03*
X301181Y-241339D02*
D03*
X301134Y-218260D02*
D03*
X301228Y-224260D02*
D03*
X286071Y-195323D02*
D03*
X276772Y-194882D02*
D03*
X256299Y-156299D02*
D03*
X260630Y-169685D02*
D03*
X264764Y-181890D02*
D03*
X240008Y-144047D02*
D03*
X236614Y-108465D02*
D03*
X226969Y-112492D02*
D03*
X237008Y-91142D02*
D03*
X226772Y-87402D02*
D03*
X282677Y-1969D02*
D03*
D63*
X184252Y-209842D02*
D03*
X298031Y-233465D02*
D03*
X266929Y-46850D02*
D03*
X361968Y-186378D02*
D03*
X334409D02*
D03*
X334252Y-104724D02*
D03*
X294882Y-64567D02*
D03*
X271654Y-121063D02*
D03*
X334409Y-91890D02*
D03*
X361968D02*
D03*
X372047Y-208661D02*
D03*
X334409Y-44646D02*
D03*
X361968D02*
D03*
X334409Y-139134D02*
D03*
X361968D02*
D03*
D64*
X350590Y-129724D02*
D03*
X372716Y-163071D02*
D03*
X352559Y-145276D02*
D03*
X356496Y-147638D02*
D03*
X300000Y-191339D02*
D03*
X368779Y-159134D02*
D03*
X336811Y-164173D02*
D03*
X388465Y-178764D02*
D03*
X384527Y-174882D02*
D03*
X382559Y-172913D02*
D03*
X340748Y-160236D02*
D03*
X338779Y-162205D02*
D03*
X342717Y-158268D02*
D03*
X378622Y-168976D02*
D03*
X386496Y-176850D02*
D03*
X310748Y-174882D02*
D03*
X374685Y-165039D02*
D03*
X320590D02*
D03*
X358465Y-148819D02*
D03*
X354528Y-146457D02*
D03*
X318622Y-167008D02*
D03*
X376654D02*
D03*
X370748Y-161102D02*
D03*
X380591Y-170945D02*
D03*
X390433Y-180787D02*
D03*
X304842D02*
D03*
X312717Y-172913D02*
D03*
X298425Y-189764D02*
D03*
X314685Y-170945D02*
D03*
X303150Y-194488D02*
D03*
X326496Y-159134D02*
D03*
X301575Y-192913D02*
D03*
X296850Y-188189D02*
D03*
X306811Y-178819D02*
D03*
X308780Y-176850D02*
D03*
X316653Y-168976D02*
D03*
X322559Y-163071D02*
D03*
X324528Y-161102D02*
D03*
X295276Y-77953D02*
D03*
X308071Y-28543D02*
D03*
X266932Y-138583D02*
D03*
X272157Y-143384D02*
D03*
X273652Y-133435D02*
D03*
X295276Y-165354D02*
D03*
Y-118110D02*
D03*
X322559Y-68583D02*
D03*
X386496Y-82362D02*
D03*
X314685Y-76457D02*
D03*
X326496Y-64646D02*
D03*
X308780Y-82362D02*
D03*
X301575Y-98425D02*
D03*
X312717Y-78425D02*
D03*
X324528Y-66614D02*
D03*
X300000Y-96850D02*
D03*
X304842Y-86299D02*
D03*
X342717Y-63779D02*
D03*
X316653Y-74488D02*
D03*
X310748Y-80394D02*
D03*
X303150Y-100000D02*
D03*
X320590Y-70551D02*
D03*
X318622Y-72520D02*
D03*
X298425Y-95276D02*
D03*
X340748Y-65748D02*
D03*
X306811Y-84331D02*
D03*
X296850Y-93701D02*
D03*
X354528Y-51968D02*
D03*
X368779Y-64646D02*
D03*
X388465Y-84331D02*
D03*
X390433Y-86299D02*
D03*
X336811Y-69685D02*
D03*
X384527Y-80394D02*
D03*
X382559Y-78425D02*
D03*
X380591Y-76457D02*
D03*
X378622Y-74488D02*
D03*
X376654Y-72520D02*
D03*
X374685Y-70551D02*
D03*
X372716Y-68583D02*
D03*
X370748Y-66614D02*
D03*
X358465Y-54331D02*
D03*
X356496Y-53150D02*
D03*
X352559Y-50787D02*
D03*
X338779Y-67716D02*
D03*
X296850Y-46457D02*
D03*
Y-140945D02*
D03*
X298425Y-142520D02*
D03*
Y-48031D02*
D03*
X303150Y-52756D02*
D03*
Y-147244D02*
D03*
X301575Y-51181D02*
D03*
Y-145669D02*
D03*
X300000Y-49606D02*
D03*
Y-144095D02*
D03*
X388465Y-37087D02*
D03*
X338779Y-20472D02*
D03*
X378622Y-27244D02*
D03*
X318622Y-25276D02*
D03*
X350590Y-39173D02*
D03*
X372716Y-21339D02*
D03*
X336811Y-22441D02*
D03*
X352559Y-3543D02*
D03*
X322559Y-21339D02*
D03*
X390433Y-39055D02*
D03*
X340748Y-18504D02*
D03*
X374685Y-23307D02*
D03*
X358465Y-7087D02*
D03*
X354528Y-4724D02*
D03*
X342717Y-16535D02*
D03*
X382559Y-31181D02*
D03*
X356496Y-5906D02*
D03*
X380591Y-29213D02*
D03*
X314685D02*
D03*
X370748Y-19370D02*
D03*
X326496Y-17402D02*
D03*
X376654Y-25276D02*
D03*
X320590Y-23307D02*
D03*
X306811Y-37087D02*
D03*
X308780Y-35118D02*
D03*
X386496D02*
D03*
X368779Y-17402D02*
D03*
X384527Y-33150D02*
D03*
X312717Y-31181D02*
D03*
X304842Y-39055D02*
D03*
X310748Y-33150D02*
D03*
X316653Y-27244D02*
D03*
X324528Y-19370D02*
D03*
X142520Y-73032D02*
D03*
X388465Y-131575D02*
D03*
X324528Y-113858D02*
D03*
X310748Y-127638D02*
D03*
X340748Y-112992D02*
D03*
X390433Y-133543D02*
D03*
X336811Y-116929D02*
D03*
X304842Y-133543D02*
D03*
X368779Y-111890D02*
D03*
X372716Y-115827D02*
D03*
X314685Y-123701D02*
D03*
X358490Y-101736D02*
D03*
X338779Y-114961D02*
D03*
X386496Y-129606D02*
D03*
X306811Y-131575D02*
D03*
X342717Y-111024D02*
D03*
X384527Y-127638D02*
D03*
X326496Y-111890D02*
D03*
X382559Y-125669D02*
D03*
X380591Y-123701D02*
D03*
X322559Y-115827D02*
D03*
X378622Y-121732D02*
D03*
X356496Y-100394D02*
D03*
X376654Y-119764D02*
D03*
X312717Y-125669D02*
D03*
X352559Y-98032D02*
D03*
X308780Y-129606D02*
D03*
X354528Y-99213D02*
D03*
X320590Y-117795D02*
D03*
X370748Y-113858D02*
D03*
X374685Y-117795D02*
D03*
X318622Y-119764D02*
D03*
X316653Y-121732D02*
D03*
M02*
