G04*
G04 #@! TF.GenerationSoftware,Altium Limited,Altium Designer,21.3.2 (30)*
G04*
G04 Layer_Color=2752767*
%FSLAX25Y25*%
%MOIN*%
G70*
G04*
G04 #@! TF.SameCoordinates,35EDE252-B6D9-4C08-81A6-3FFBFD5BE296*
G04*
G04*
G04 #@! TF.FilePolarity,Positive*
G04*
G01*
G75*
%ADD65C,0.00200*%
%ADD66C,0.00267*%
D65*
X15027Y-142769D02*
Y-141168D01*
X16627D01*
Y-142769D01*
X15027D01*
X75027Y-22769D02*
Y-21169D01*
X76627D01*
Y-22769D01*
X75027D01*
Y-162768D02*
Y-161169D01*
X76627D01*
Y-162768D01*
X75027D01*
Y-152769D02*
Y-151169D01*
X76627D01*
Y-152769D01*
X75027D01*
Y-142769D02*
Y-141168D01*
X76627D01*
Y-142769D01*
X75027D01*
Y-2768D02*
Y-1168D01*
X76627D01*
Y-2768D01*
X75027D01*
Y-12768D02*
Y-11169D01*
X76627D01*
Y-12768D01*
X75027D01*
Y-172768D02*
Y-171168D01*
X76627D01*
Y-172768D01*
X75027D01*
Y-182768D02*
Y-181168D01*
X76627D01*
Y-182768D01*
X75027D01*
Y-192769D02*
Y-191168D01*
X76627D01*
Y-192769D01*
X75027D01*
Y-202768D02*
Y-201168D01*
X76627D01*
Y-202768D01*
X75027D01*
Y-212769D02*
Y-211169D01*
X76627D01*
Y-212769D01*
X75027D01*
Y-222768D02*
Y-221168D01*
X76627D01*
Y-222768D01*
X75027D01*
Y-232769D02*
Y-231169D01*
X76627D01*
Y-232769D01*
X75027D01*
X15027D02*
Y-231169D01*
X16627D01*
Y-232769D01*
X15027D01*
Y-222768D02*
Y-221168D01*
X16627D01*
Y-222768D01*
X15027D01*
Y-212769D02*
Y-211169D01*
X16627D01*
Y-212769D01*
X15027D01*
Y-202768D02*
Y-201168D01*
X16627D01*
Y-202768D01*
X15027D01*
Y-192769D02*
Y-191168D01*
X16627D01*
Y-192769D01*
X15027D01*
Y-182768D02*
Y-181168D01*
X16627D01*
Y-182768D01*
X15027D01*
Y-172768D02*
Y-171168D01*
X16627D01*
Y-172768D01*
X15027D01*
Y-162768D02*
Y-161169D01*
X16627D01*
Y-162768D01*
X15027D01*
Y-152769D02*
Y-151169D01*
X16627D01*
Y-152769D01*
X15027D01*
X75027Y-32768D02*
Y-31168D01*
X76627D01*
Y-32768D01*
X75027D01*
Y-42768D02*
Y-41168D01*
X76627D01*
Y-42768D01*
X75027D01*
Y-52768D02*
Y-51169D01*
X76627D01*
Y-52768D01*
X75027D01*
Y-62769D02*
Y-61168D01*
X76627D01*
Y-62769D01*
X75027D01*
Y-72768D02*
Y-71169D01*
X76627D01*
Y-72768D01*
X75027D01*
Y-82768D02*
Y-81169D01*
X76627D01*
Y-82768D01*
X75027D01*
Y-92769D02*
Y-91168D01*
X76627D01*
Y-92769D01*
X75027D01*
Y-102769D02*
Y-101169D01*
X76627D01*
Y-102769D01*
X75027D01*
Y-112768D02*
Y-111169D01*
X76627D01*
Y-112768D01*
X75027D01*
Y-122768D02*
Y-121168D01*
X76627D01*
Y-122768D01*
X75027D01*
Y-132768D02*
Y-131168D01*
X76627D01*
Y-132768D01*
X75027D01*
X15027D02*
Y-131168D01*
X16627D01*
Y-132768D01*
X15027D01*
Y-122768D02*
Y-121168D01*
X16627D01*
Y-122768D01*
X15027D01*
Y-112768D02*
Y-111169D01*
X16627D01*
Y-112768D01*
X15027D01*
Y-102769D02*
Y-101169D01*
X16627D01*
Y-102769D01*
X15027D01*
Y-92769D02*
Y-91168D01*
X16627D01*
Y-92769D01*
X15027D01*
Y-82768D02*
Y-81169D01*
X16627D01*
Y-82768D01*
X15027D01*
Y-72768D02*
Y-71169D01*
X16627D01*
Y-72768D01*
X15027D01*
Y-62769D02*
Y-61168D01*
X16627D01*
Y-62769D01*
X15027D01*
Y-52768D02*
Y-51169D01*
X16627D01*
Y-52768D01*
X15027D01*
Y-42768D02*
Y-41168D01*
X16627D01*
Y-42768D01*
X15027D01*
Y-32768D02*
Y-31168D01*
X16627D01*
Y-32768D01*
X15027D01*
Y-22769D02*
Y-21169D01*
X16627D01*
Y-22769D01*
X15027D01*
Y-12768D02*
Y-11169D01*
X16627D01*
Y-12768D01*
X15027D01*
Y-2768D02*
Y-1168D01*
X16627D01*
Y-2768D01*
X15027D01*
X96457Y-69698D02*
X95657Y-68098D01*
X97257D01*
X96457Y-69698D01*
X120866Y-10643D02*
X120066Y-9042D01*
X121666D01*
X120866Y-10643D01*
X-11811Y-12611D02*
X-11411Y-12211D01*
X-11011D01*
X-11411Y-11811D01*
X-11011Y-11411D01*
X-11411D01*
X-11811Y-11011D01*
X-12211Y-11411D01*
X-12611D01*
X-12211Y-11811D01*
X-12611Y-12211D01*
X-12211D01*
X-11811Y-12611D01*
Y-264580D02*
X-11411Y-264179D01*
X-11011D01*
X-11411Y-263779D01*
X-11011Y-263380D01*
X-11411D01*
X-11811Y-262980D01*
X-12211Y-263380D01*
X-12611D01*
X-12211Y-263779D01*
X-12611Y-264179D01*
X-12211D01*
X-11811Y-264580D01*
X409449Y-12611D02*
X409849Y-12211D01*
X410249D01*
X409849Y-11811D01*
X410249Y-11411D01*
X409849D01*
X409449Y-11011D01*
X409049Y-11411D01*
X408649D01*
X409049Y-11811D01*
X408649Y-12211D01*
X409049D01*
X409449Y-12611D01*
Y-264580D02*
X409849Y-264179D01*
X410249D01*
X409849Y-263779D01*
X410249Y-263380D01*
X409849D01*
X409449Y-262980D01*
X409049Y-263380D01*
X408649D01*
X409049Y-263779D01*
X408649Y-264179D01*
X409049D01*
X409449Y-264580D01*
X140735Y-249028D02*
X141135Y-248228D01*
X140735Y-247428D01*
X141535Y-247828D01*
X142335Y-247428D01*
X141935Y-248228D01*
X142335Y-249028D01*
X141535Y-248628D01*
X140735Y-249028D01*
X180893D02*
X181293Y-248228D01*
X180893Y-247428D01*
X181693Y-247828D01*
X182493Y-247428D01*
X182093Y-248228D01*
X182493Y-249028D01*
X181693Y-248628D01*
X180893Y-249028D01*
X148025Y-78943D02*
Y-79343D01*
X148825D01*
Y-78943D01*
X149225D01*
Y-78143D01*
X148825D01*
Y-77743D01*
X148025D01*
Y-78143D01*
X147625D01*
Y-78943D01*
X148025D01*
X196936Y-182493D02*
X197336D01*
X197736Y-182093D01*
X198136Y-182493D01*
X198536D01*
Y-182093D01*
X198136Y-181693D01*
X198536Y-181293D01*
Y-180893D01*
X198136D01*
X197736Y-181293D01*
X197336Y-180893D01*
X196936D01*
Y-181293D01*
X197336Y-181693D01*
X196936Y-182093D01*
Y-182493D01*
X259043Y-127769D02*
X259442D01*
X259842Y-127368D01*
X260243Y-127769D01*
X260643D01*
Y-127368D01*
X260243Y-126969D01*
X260643Y-126568D01*
Y-126169D01*
X260243D01*
X259842Y-126568D01*
X259442Y-126169D01*
X259043D01*
Y-126568D01*
X259442Y-126969D01*
X259043Y-127368D01*
Y-127769D01*
X183452Y-209842D02*
X184252Y-209043D01*
X185052Y-209842D01*
X184252Y-210643D01*
X183452Y-209842D01*
X297232Y-233465D02*
X298031Y-232665D01*
X298832Y-233465D01*
X298031Y-234265D01*
X297232Y-233465D01*
X364161Y-90564D02*
X364561D01*
X364961Y-90164D01*
X365361Y-90564D01*
X365761D01*
Y-90164D01*
X365361Y-89764D01*
X365761Y-89364D01*
Y-88964D01*
X365361D01*
X364961Y-89364D01*
X364561Y-88964D01*
X364161D01*
Y-89364D01*
X364561Y-89764D01*
X364161Y-90164D01*
Y-90564D01*
X266129Y-46850D02*
X266929Y-46050D01*
X267729Y-46850D01*
X266929Y-47650D01*
X266129Y-46850D01*
X139613Y-134765D02*
X140013D01*
X140413Y-134365D01*
X140813Y-134765D01*
X141213D01*
Y-134365D01*
X140813Y-133965D01*
X141213Y-133565D01*
Y-133165D01*
X140813D01*
X140413Y-133565D01*
X140013Y-133165D01*
X139613D01*
Y-133565D01*
X140013Y-133965D01*
X139613Y-134365D01*
Y-134765D01*
X107474Y-142526D02*
Y-142926D01*
X108274D01*
Y-142526D01*
X108674D01*
Y-141726D01*
X108274D01*
Y-141326D01*
X107474D01*
Y-141726D01*
X107074D01*
Y-142526D01*
X107474D01*
X234633Y-48044D02*
X235033D01*
X235433Y-47644D01*
X235833Y-48044D01*
X236233D01*
Y-47644D01*
X235833Y-47244D01*
X236233Y-46844D01*
Y-46444D01*
X235833D01*
X235433Y-46844D01*
X235033Y-46444D01*
X234633D01*
Y-46844D01*
X235033Y-47244D01*
X234633Y-47644D01*
Y-48044D01*
X240633Y-48139D02*
X241033D01*
X241433Y-47739D01*
X241833Y-48139D01*
X242233D01*
Y-47739D01*
X241833Y-47339D01*
X242233Y-46939D01*
Y-46539D01*
X241833D01*
X241433Y-46939D01*
X241033Y-46539D01*
X240633D01*
Y-46939D01*
X241033Y-47339D01*
X240633Y-47739D01*
Y-48139D01*
X234317Y-60524D02*
X234717D01*
X235117Y-60124D01*
X235517Y-60524D01*
X235917D01*
Y-60124D01*
X235517Y-59724D01*
X235917Y-59324D01*
Y-58924D01*
X235517D01*
X235117Y-59324D01*
X234717Y-58924D01*
X234317D01*
Y-59324D01*
X234717Y-59724D01*
X234317Y-60124D01*
Y-60524D01*
X234389Y-75359D02*
X234789D01*
X235189Y-74959D01*
X235589Y-75359D01*
X235989D01*
Y-74959D01*
X235589Y-74559D01*
X235989Y-74159D01*
Y-73759D01*
X235589D01*
X235189Y-74159D01*
X234789Y-73759D01*
X234389D01*
Y-74159D01*
X234789Y-74559D01*
X234389Y-74959D01*
Y-75359D01*
X240389Y-75454D02*
X240789D01*
X241189Y-75054D01*
X241589Y-75454D01*
X241989D01*
Y-75054D01*
X241589Y-74654D01*
X241989Y-74253D01*
Y-73853D01*
X241589D01*
X241189Y-74253D01*
X240789Y-73853D01*
X240389D01*
Y-74253D01*
X240789Y-74654D01*
X240389Y-75054D01*
Y-75454D01*
X275775Y-69698D02*
X276175D01*
X276575Y-69298D01*
X276975Y-69698D01*
X277375D01*
Y-69298D01*
X276975Y-68898D01*
X277375Y-68498D01*
Y-68098D01*
X276975D01*
X276575Y-68498D01*
X276175Y-68098D01*
X275775D01*
Y-68498D01*
X276175Y-68898D01*
X275775Y-69298D01*
Y-69698D01*
X253924Y-800D02*
X254324D01*
X254724Y-400D01*
X255124Y-800D01*
X255524D01*
Y-400D01*
X255124Y0D01*
X255524Y400D01*
Y800D01*
X255124D01*
X254724Y400D01*
X254324Y800D01*
X253924D01*
Y400D01*
X254324Y0D01*
X253924Y-400D01*
Y-800D01*
X231484Y-25997D02*
X231884D01*
X232283Y-25597D01*
X232683Y-25997D01*
X233084D01*
Y-25597D01*
X232683Y-25197D01*
X233084Y-24797D01*
Y-24397D01*
X232683D01*
X232283Y-24797D01*
X231884Y-24397D01*
X231484D01*
Y-24797D01*
X231884Y-25197D01*
X231484Y-25597D01*
Y-25997D01*
X349791Y-129724D02*
X350590Y-128924D01*
X351391Y-129724D01*
X350590Y-130524D01*
X349791Y-129724D01*
X371917Y-163071D02*
X372716Y-162271D01*
X373517Y-163071D01*
X372716Y-163871D01*
X371917Y-163071D01*
X351759Y-145276D02*
X352559Y-144476D01*
X353359Y-145276D01*
X352559Y-146076D01*
X351759Y-145276D01*
X355696Y-147638D02*
X356496Y-146838D01*
X357296Y-147638D01*
X356496Y-148438D01*
X355696Y-147638D01*
X299200Y-191339D02*
X300000Y-190539D01*
X300800Y-191339D01*
X300000Y-192139D01*
X299200Y-191339D01*
X367980Y-159134D02*
X368779Y-158334D01*
X369580Y-159134D01*
X368779Y-159934D01*
X367980Y-159134D01*
X336011Y-164173D02*
X336811Y-163373D01*
X337611Y-164173D01*
X336811Y-164973D01*
X336011Y-164173D01*
X387665Y-178764D02*
X388465Y-177964D01*
X389265Y-178764D01*
X388465Y-179564D01*
X387665Y-178764D01*
X383728Y-174882D02*
X384527Y-174082D01*
X385328Y-174882D01*
X384527Y-175682D01*
X383728Y-174882D01*
X381759Y-172913D02*
X382559Y-172113D01*
X383359Y-172913D01*
X382559Y-173713D01*
X381759Y-172913D01*
X339948Y-160236D02*
X340748Y-159436D01*
X341548Y-160236D01*
X340748Y-161036D01*
X339948Y-160236D01*
X337980Y-162205D02*
X338779Y-161405D01*
X339580Y-162205D01*
X338779Y-163005D01*
X337980Y-162205D01*
X341916Y-158268D02*
X342717Y-157468D01*
X343516Y-158268D01*
X342717Y-159068D01*
X341916Y-158268D01*
X377822Y-168976D02*
X378622Y-168176D01*
X379422Y-168976D01*
X378622Y-169776D01*
X377822Y-168976D01*
X385696Y-176850D02*
X386496Y-176050D01*
X387296Y-176850D01*
X386496Y-177650D01*
X385696Y-176850D01*
X309948Y-174882D02*
X310748Y-174082D01*
X311548Y-174882D01*
X310748Y-175682D01*
X309948Y-174882D01*
X373885Y-165039D02*
X374685Y-164239D01*
X375485Y-165039D01*
X374685Y-165839D01*
X373885Y-165039D01*
X319791D02*
X320590Y-164239D01*
X321391Y-165039D01*
X320590Y-165839D01*
X319791Y-165039D01*
X357665Y-148819D02*
X358465Y-148019D01*
X359265Y-148819D01*
X358465Y-149619D01*
X357665Y-148819D01*
X353728Y-146457D02*
X354528Y-145657D01*
X355328Y-146457D01*
X354528Y-147257D01*
X353728Y-146457D01*
X317822Y-167008D02*
X318622Y-166208D01*
X319422Y-167008D01*
X318622Y-167808D01*
X317822Y-167008D01*
X375853D02*
X376654Y-166208D01*
X377453Y-167008D01*
X376654Y-167808D01*
X375853Y-167008D01*
X369948Y-161102D02*
X370748Y-160302D01*
X371548Y-161102D01*
X370748Y-161902D01*
X369948Y-161102D01*
X379790Y-170945D02*
X380591Y-170145D01*
X381391Y-170945D01*
X380591Y-171745D01*
X379790Y-170945D01*
X389633Y-180787D02*
X390433Y-179987D01*
X391233Y-180787D01*
X390433Y-181587D01*
X389633Y-180787D01*
X304043D02*
X304842Y-179987D01*
X305643Y-180787D01*
X304842Y-181587D01*
X304043Y-180787D01*
X361169Y-186378D02*
X361968Y-185578D01*
X362769Y-186378D01*
X361968Y-187178D01*
X361169Y-186378D01*
X364554Y-187414D02*
X364954D01*
X365354Y-187014D01*
X365754Y-187414D01*
X366154D01*
Y-187014D01*
X365754Y-186614D01*
X366154Y-186214D01*
Y-185814D01*
X365754D01*
X365354Y-186214D01*
X364954Y-185814D01*
X364554D01*
Y-186214D01*
X364954Y-186614D01*
X364554Y-187014D01*
Y-187414D01*
X311916Y-172913D02*
X312717Y-172113D01*
X313516Y-172913D01*
X312717Y-173713D01*
X311916Y-172913D01*
X297625Y-189764D02*
X298425Y-188964D01*
X299225Y-189764D01*
X298425Y-190564D01*
X297625Y-189764D01*
X313885Y-170945D02*
X314685Y-170145D01*
X315485Y-170945D01*
X314685Y-171745D01*
X313885Y-170945D01*
X302350Y-194488D02*
X303150Y-193688D01*
X303950Y-194488D01*
X303150Y-195288D01*
X302350Y-194488D01*
X325696Y-159134D02*
X326496Y-158334D01*
X327296Y-159134D01*
X326496Y-159934D01*
X325696Y-159134D01*
X300775Y-192913D02*
X301575Y-192113D01*
X302375Y-192913D01*
X301575Y-193713D01*
X300775Y-192913D01*
X296050Y-188189D02*
X296850Y-187389D01*
X297650Y-188189D01*
X296850Y-188989D01*
X296050Y-188189D01*
X333609Y-186378D02*
X334409Y-185578D01*
X335209Y-186378D01*
X334409Y-187178D01*
X333609Y-186378D01*
X306011Y-178819D02*
X306811Y-178019D01*
X307611Y-178819D01*
X306811Y-179619D01*
X306011Y-178819D01*
X307979Y-176850D02*
X308780Y-176050D01*
X309579Y-176850D01*
X308780Y-177650D01*
X307979Y-176850D01*
X315854Y-168976D02*
X316653Y-168176D01*
X317454Y-168976D01*
X316653Y-169776D01*
X315854Y-168976D01*
X321759Y-163071D02*
X322559Y-162271D01*
X323359Y-163071D01*
X322559Y-163871D01*
X321759Y-163071D01*
X323728Y-161102D02*
X324528Y-160302D01*
X325328Y-161102D01*
X324528Y-161902D01*
X323728Y-161102D01*
X106483Y-169107D02*
X106884D01*
X107283Y-168707D01*
X107684Y-169107D01*
X108083D01*
Y-168707D01*
X107684Y-168307D01*
X108083Y-167907D01*
Y-167507D01*
X107684D01*
X107283Y-167907D01*
X106884Y-167507D01*
X106483D01*
Y-167907D01*
X106884Y-168307D01*
X106483Y-168707D01*
Y-169107D01*
X102547Y-191745D02*
X102946D01*
X103347Y-191345D01*
X103746Y-191745D01*
X104147D01*
Y-191345D01*
X103746Y-190945D01*
X104147Y-190545D01*
Y-190145D01*
X103746D01*
X103347Y-190545D01*
X102946Y-190145D01*
X102547D01*
Y-190545D01*
X102946Y-190945D01*
X102547Y-191345D01*
Y-191745D01*
Y-187808D02*
X102946D01*
X103347Y-187408D01*
X103746Y-187808D01*
X104147D01*
Y-187408D01*
X103746Y-187008D01*
X104147Y-186608D01*
Y-186208D01*
X103746D01*
X103347Y-186608D01*
X102946Y-186208D01*
X102547D01*
Y-186608D01*
X102946Y-187008D01*
X102547Y-187408D01*
Y-187808D01*
X291326Y-3162D02*
X291726D01*
X292126Y-2762D01*
X292526Y-3162D01*
X292926D01*
Y-2762D01*
X292526Y-2362D01*
X292926Y-1962D01*
Y-1562D01*
X292526D01*
X292126Y-1962D01*
X291726Y-1562D01*
X291326D01*
Y-1962D01*
X291726Y-2362D01*
X291326Y-2762D01*
Y-3162D01*
X333452Y-104724D02*
X334252Y-103924D01*
X335052Y-104724D01*
X334252Y-105524D01*
X333452Y-104724D01*
X294082Y-64567D02*
X294882Y-63767D01*
X295682Y-64567D01*
X294882Y-65367D01*
X294082Y-64567D01*
X294476Y-77953D02*
X295276Y-77153D01*
X296076Y-77953D01*
X295276Y-78753D01*
X294476Y-77953D01*
X310322Y-9265D02*
X310722D01*
X311122Y-8865D01*
X311522Y-9265D01*
X311922D01*
Y-8865D01*
X311522Y-8465D01*
X311922Y-8065D01*
Y-7665D01*
X311522D01*
X311122Y-8065D01*
X310722Y-7665D01*
X310322D01*
Y-8065D01*
X310722Y-8465D01*
X310322Y-8865D01*
Y-9265D01*
X304712Y-18910D02*
X305112D01*
X305512Y-18510D01*
X305912Y-18910D01*
X306312D01*
Y-18510D01*
X305912Y-18110D01*
X306312Y-17710D01*
Y-17310D01*
X305912D01*
X305512Y-17710D01*
X305112Y-17310D01*
X304712D01*
Y-17710D01*
X305112Y-18110D01*
X304712Y-18510D01*
Y-18910D01*
X265342Y-127178D02*
X265742D01*
X266142Y-126778D01*
X266542Y-127178D01*
X266942D01*
Y-126778D01*
X266542Y-126378D01*
X266942Y-125978D01*
Y-125578D01*
X266542D01*
X266142Y-125978D01*
X265742Y-125578D01*
X265342D01*
Y-125978D01*
X265742Y-126378D01*
X265342Y-126778D01*
Y-127178D01*
X255105Y-115948D02*
X255505D01*
X255906Y-115548D01*
X256306Y-115948D01*
X256705D01*
Y-115548D01*
X256306Y-115148D01*
X256705Y-114748D01*
Y-114348D01*
X256306D01*
X255906Y-114748D01*
X255505Y-114348D01*
X255105D01*
Y-114748D01*
X255505Y-115148D01*
X255105Y-115548D01*
Y-115948D01*
X242507Y-34265D02*
X242907D01*
X243307Y-33865D01*
X243707Y-34265D01*
X244107D01*
Y-33865D01*
X243707Y-33465D01*
X244107Y-33065D01*
Y-32665D01*
X243707D01*
X243307Y-33065D01*
X242907Y-32665D01*
X242507D01*
Y-33065D01*
X242907Y-33465D01*
X242507Y-33865D01*
Y-34265D01*
X224791Y-11824D02*
X225190D01*
X225590Y-11424D01*
X225991Y-11824D01*
X226391D01*
Y-11424D01*
X225991Y-11024D01*
X226391Y-10624D01*
Y-10224D01*
X225991D01*
X225590Y-10624D01*
X225190Y-10224D01*
X224791D01*
Y-10624D01*
X225190Y-11024D01*
X224791Y-11424D01*
Y-11824D01*
X262192Y-129147D02*
X262592D01*
X262992Y-128746D01*
X263392Y-129147D01*
X263792D01*
Y-128746D01*
X263392Y-128347D01*
X263792Y-127946D01*
Y-127547D01*
X263392D01*
X262992Y-127946D01*
X262592Y-127547D01*
X262192D01*
Y-127946D01*
X262592Y-128347D01*
X262192Y-128746D01*
Y-129147D01*
X239357Y-133674D02*
X239757D01*
X240158Y-133274D01*
X240558Y-133674D01*
X240957D01*
Y-133274D01*
X240558Y-132874D01*
X240957Y-132474D01*
Y-132074D01*
X240558D01*
X240158Y-132474D01*
X239757Y-132074D01*
X239357D01*
Y-132474D01*
X239757Y-132874D01*
X239357Y-133274D01*
Y-133674D01*
X183255Y-23438D02*
X183655D01*
X184055Y-23038D01*
X184455Y-23438D01*
X184855D01*
Y-23038D01*
X184455Y-22638D01*
X184855Y-22238D01*
Y-21838D01*
X184455D01*
X184055Y-22238D01*
X183655Y-21838D01*
X183255D01*
Y-22238D01*
X183655Y-22638D01*
X183255Y-23038D01*
Y-23438D01*
X286602Y-39195D02*
X287002D01*
X287402Y-38795D01*
X287802Y-39195D01*
X288202D01*
Y-38795D01*
X287802Y-38395D01*
X288202Y-37995D01*
Y-37595D01*
X287802D01*
X287402Y-37995D01*
X287002Y-37595D01*
X286602D01*
Y-37995D01*
X287002Y-38395D01*
X286602Y-38795D01*
Y-39195D01*
X270853Y-121063D02*
X271654Y-120263D01*
X272453Y-121063D01*
X271654Y-121863D01*
X270853Y-121063D01*
X297428Y-6706D02*
X297828D01*
X298228Y-6306D01*
X298628Y-6706D01*
X299028D01*
Y-6306D01*
X298628Y-5906D01*
X299028Y-5505D01*
Y-5105D01*
X298628D01*
X298228Y-5505D01*
X297828Y-5105D01*
X297428D01*
Y-5505D01*
X297828Y-5906D01*
X297428Y-6306D01*
Y-6706D01*
X307271Y-28543D02*
X308071Y-27743D01*
X308871Y-28543D01*
X308071Y-29343D01*
X307271Y-28543D01*
X353531Y-800D02*
X353931D01*
X354331Y-400D01*
X354731Y-800D01*
X355131D01*
Y-400D01*
X354731Y0D01*
X355131Y400D01*
Y800D01*
X354731D01*
X354331Y400D01*
X353931Y800D01*
X353531D01*
Y400D01*
X353931Y0D01*
X353531Y-400D01*
Y-800D01*
X62980Y-134658D02*
X63380D01*
X63779Y-134258D01*
X64179Y-134658D01*
X64579D01*
Y-134258D01*
X64179Y-133858D01*
X64579Y-133458D01*
Y-133058D01*
X64179D01*
X63779Y-133458D01*
X63380Y-133058D01*
X62980D01*
Y-133458D01*
X63380Y-133858D01*
X62980Y-134258D01*
Y-134658D01*
X266132Y-138583D02*
X266932Y-137783D01*
X267732Y-138583D01*
X266932Y-139383D01*
X266132Y-138583D01*
X271357Y-143384D02*
X272157Y-142584D01*
X272957Y-143384D01*
X272157Y-144184D01*
X271357Y-143384D01*
X272852Y-133435D02*
X273652Y-132635D01*
X274452Y-133435D01*
X273652Y-134235D01*
X272852Y-133435D01*
X181287Y-113989D02*
X181687D01*
X182087Y-113589D01*
X182487Y-113989D01*
X182887D01*
Y-113589D01*
X182487Y-113189D01*
X182887Y-112789D01*
Y-112389D01*
X182487D01*
X182087Y-112789D01*
X181687Y-112389D01*
X181287D01*
Y-112789D01*
X181687Y-113189D01*
X181287Y-113589D01*
Y-113989D01*
X294476Y-165354D02*
X295276Y-164554D01*
X296076Y-165354D01*
X295276Y-166154D01*
X294476Y-165354D01*
Y-118110D02*
X295276Y-117310D01*
X296076Y-118110D01*
X295276Y-118910D01*
X294476Y-118110D01*
X321759Y-68583D02*
X322559Y-67783D01*
X323359Y-68583D01*
X322559Y-69383D01*
X321759Y-68583D01*
X385696Y-82362D02*
X386496Y-81562D01*
X387296Y-82362D01*
X386496Y-83162D01*
X385696Y-82362D01*
X313885Y-76457D02*
X314685Y-75657D01*
X315485Y-76457D01*
X314685Y-77257D01*
X313885Y-76457D01*
X325696Y-64646D02*
X326496Y-63846D01*
X327296Y-64646D01*
X326496Y-65446D01*
X325696Y-64646D01*
X307979Y-82362D02*
X308780Y-81562D01*
X309579Y-82362D01*
X308780Y-83162D01*
X307979Y-82362D01*
X300775Y-98425D02*
X301575Y-97625D01*
X302375Y-98425D01*
X301575Y-99225D01*
X300775Y-98425D01*
X311916Y-78425D02*
X312717Y-77625D01*
X313516Y-78425D01*
X312717Y-79225D01*
X311916Y-78425D01*
X323728Y-66614D02*
X324528Y-65814D01*
X325328Y-66614D01*
X324528Y-67414D01*
X323728Y-66614D01*
X299200Y-96850D02*
X300000Y-96050D01*
X300800Y-96850D01*
X300000Y-97650D01*
X299200Y-96850D01*
X304043Y-86299D02*
X304842Y-85499D01*
X305643Y-86299D01*
X304842Y-87099D01*
X304043Y-86299D01*
X341916Y-63779D02*
X342717Y-62980D01*
X343516Y-63779D01*
X342717Y-64579D01*
X341916Y-63779D01*
X315854Y-74488D02*
X316653Y-73688D01*
X317454Y-74488D01*
X316653Y-75288D01*
X315854Y-74488D01*
X309948Y-80394D02*
X310748Y-79594D01*
X311548Y-80394D01*
X310748Y-81194D01*
X309948Y-80394D01*
X302350Y-100000D02*
X303150Y-99200D01*
X303950Y-100000D01*
X303150Y-100800D01*
X302350Y-100000D01*
X333609Y-91890D02*
X334409Y-91090D01*
X335209Y-91890D01*
X334409Y-92690D01*
X333609Y-91890D01*
X319791Y-70551D02*
X320590Y-69751D01*
X321391Y-70551D01*
X320590Y-71351D01*
X319791Y-70551D01*
X317822Y-72520D02*
X318622Y-71720D01*
X319422Y-72520D01*
X318622Y-73320D01*
X317822Y-72520D01*
X297625Y-95276D02*
X298425Y-94476D01*
X299225Y-95276D01*
X298425Y-96076D01*
X297625Y-95276D01*
X339948Y-65748D02*
X340748Y-64948D01*
X341548Y-65748D01*
X340748Y-66548D01*
X339948Y-65748D01*
X306011Y-84331D02*
X306811Y-83531D01*
X307611Y-84331D01*
X306811Y-85131D01*
X306011Y-84331D01*
X296050Y-93701D02*
X296850Y-92901D01*
X297650Y-93701D01*
X296850Y-94501D01*
X296050Y-93701D01*
X353728Y-51968D02*
X354528Y-51169D01*
X355328Y-51968D01*
X354528Y-52768D01*
X353728Y-51968D01*
X367980Y-64646D02*
X368779Y-63846D01*
X369580Y-64646D01*
X368779Y-65446D01*
X367980Y-64646D01*
X361169Y-91890D02*
X361968Y-91090D01*
X362769Y-91890D01*
X361968Y-92690D01*
X361169Y-91890D01*
X387665Y-84331D02*
X388465Y-83531D01*
X389265Y-84331D01*
X388465Y-85131D01*
X387665Y-84331D01*
X389633Y-86299D02*
X390433Y-85499D01*
X391233Y-86299D01*
X390433Y-87099D01*
X389633Y-86299D01*
X336011Y-69685D02*
X336811Y-68885D01*
X337611Y-69685D01*
X336811Y-70485D01*
X336011Y-69685D01*
X383728Y-80394D02*
X384527Y-79594D01*
X385328Y-80394D01*
X384527Y-81194D01*
X383728Y-80394D01*
X381759Y-78425D02*
X382559Y-77625D01*
X383359Y-78425D01*
X382559Y-79225D01*
X381759Y-78425D01*
X379790Y-76457D02*
X380591Y-75657D01*
X381391Y-76457D01*
X380591Y-77257D01*
X379790Y-76457D01*
X377822Y-74488D02*
X378622Y-73688D01*
X379422Y-74488D01*
X378622Y-75288D01*
X377822Y-74488D01*
X375853Y-72520D02*
X376654Y-71720D01*
X377453Y-72520D01*
X376654Y-73320D01*
X375853Y-72520D01*
X373885Y-70551D02*
X374685Y-69751D01*
X375485Y-70551D01*
X374685Y-71351D01*
X373885Y-70551D01*
X371917Y-68583D02*
X372716Y-67783D01*
X373517Y-68583D01*
X372716Y-69383D01*
X371917Y-68583D01*
X369948Y-66614D02*
X370748Y-65814D01*
X371548Y-66614D01*
X370748Y-67414D01*
X369948Y-66614D01*
X357665Y-54331D02*
X358465Y-53531D01*
X359265Y-54331D01*
X358465Y-55131D01*
X357665Y-54331D01*
X355696Y-53150D02*
X356496Y-52350D01*
X357296Y-53150D01*
X356496Y-53950D01*
X355696Y-53150D01*
X351759Y-50787D02*
X352559Y-49987D01*
X353359Y-50787D01*
X352559Y-51587D01*
X351759Y-50787D01*
X337980Y-67716D02*
X338779Y-66917D01*
X339580Y-67716D01*
X338779Y-68516D01*
X337980Y-67716D01*
X296050Y-46457D02*
X296850Y-45657D01*
X297650Y-46457D01*
X296850Y-47257D01*
X296050Y-46457D01*
Y-140945D02*
X296850Y-140145D01*
X297650Y-140945D01*
X296850Y-141745D01*
X296050Y-140945D01*
X297625Y-142520D02*
X298425Y-141720D01*
X299225Y-142520D01*
X298425Y-143320D01*
X297625Y-142520D01*
Y-48031D02*
X298425Y-47232D01*
X299225Y-48031D01*
X298425Y-48831D01*
X297625Y-48031D01*
X302350Y-52756D02*
X303150Y-51956D01*
X303950Y-52756D01*
X303150Y-53556D01*
X302350Y-52756D01*
Y-147244D02*
X303150Y-146444D01*
X303950Y-147244D01*
X303150Y-148044D01*
X302350Y-147244D01*
X300775Y-51181D02*
X301575Y-50381D01*
X302375Y-51181D01*
X301575Y-51981D01*
X300775Y-51181D01*
Y-145669D02*
X301575Y-144869D01*
X302375Y-145669D01*
X301575Y-146469D01*
X300775Y-145669D01*
X299200Y-49606D02*
X300000Y-48806D01*
X300800Y-49606D01*
X300000Y-50406D01*
X299200Y-49606D01*
Y-144095D02*
X300000Y-143295D01*
X300800Y-144095D01*
X300000Y-144895D01*
X299200Y-144095D01*
X293688Y-59461D02*
X294088D01*
X294488Y-59061D01*
X294888Y-59461D01*
X295288D01*
Y-59061D01*
X294888Y-58661D01*
X295288Y-58261D01*
Y-57861D01*
X294888D01*
X294488Y-58261D01*
X294088Y-57861D01*
X293688D01*
Y-58261D01*
X294088Y-58661D01*
X293688Y-59061D01*
Y-59461D01*
X292120Y-153156D02*
Y-153556D01*
X292920D01*
Y-153156D01*
X293320D01*
Y-152356D01*
X292920D01*
Y-151956D01*
X292120D01*
Y-152356D01*
X291720D01*
Y-153156D01*
X292120D01*
X180696Y-74028D02*
X181096D01*
X181496Y-73628D01*
X181896Y-74028D01*
X182296D01*
Y-73628D01*
X181896Y-73228D01*
X182296Y-72828D01*
Y-72428D01*
X181896D01*
X181496Y-72828D01*
X181096Y-72428D01*
X180696D01*
Y-72828D01*
X181096Y-73228D01*
X180696Y-73628D01*
Y-74028D01*
X166533Y-16122D02*
X166933D01*
X167333Y-15722D01*
X167733Y-16122D01*
X168133D01*
Y-15722D01*
X167733Y-15322D01*
X168133Y-14922D01*
Y-14522D01*
X167733D01*
X167333Y-14922D01*
X166933Y-14522D01*
X166533D01*
Y-14922D01*
X166933Y-15322D01*
X166533Y-15722D01*
Y-16122D01*
X180696Y-34265D02*
X181096D01*
X181496Y-33865D01*
X181896Y-34265D01*
X182296D01*
Y-33865D01*
X181896Y-33465D01*
X182296Y-33065D01*
Y-32665D01*
X181896D01*
X181496Y-33065D01*
X181096Y-32665D01*
X180696D01*
Y-33065D01*
X181096Y-33465D01*
X180696Y-33865D01*
Y-34265D01*
X166523Y-118910D02*
X166923D01*
X167323Y-118510D01*
X167723Y-118910D01*
X168123D01*
Y-118510D01*
X167723Y-118110D01*
X168123Y-117710D01*
Y-117310D01*
X167723D01*
X167323Y-117710D01*
X166923Y-117310D01*
X166523D01*
Y-117710D01*
X166923Y-118110D01*
X166523Y-118510D01*
Y-118910D01*
X166917Y-79146D02*
X167316D01*
X167717Y-78746D01*
X168116Y-79146D01*
X168517D01*
Y-78746D01*
X168116Y-78347D01*
X168517Y-77947D01*
Y-77547D01*
X168116D01*
X167717Y-77947D01*
X167316Y-77547D01*
X166917D01*
Y-77947D01*
X167316Y-78347D01*
X166917Y-78746D01*
Y-79146D01*
X162586Y-42139D02*
X162986D01*
X163386Y-41739D01*
X163786Y-42139D01*
X164186D01*
Y-41739D01*
X163786Y-41339D01*
X164186Y-40939D01*
Y-40539D01*
X163786D01*
X163386Y-40939D01*
X162986Y-40539D01*
X162586D01*
Y-40939D01*
X162986Y-41339D01*
X162586Y-41739D01*
Y-42139D01*
X243688Y-143713D02*
X244088D01*
X244488Y-143313D01*
X244888Y-143713D01*
X245288D01*
Y-143313D01*
X244888Y-142913D01*
X245288Y-142513D01*
Y-142113D01*
X244888D01*
X244488Y-142513D01*
X244088Y-142113D01*
X243688D01*
Y-142513D01*
X244088Y-142913D01*
X243688Y-143313D01*
Y-143713D01*
X300381Y-9461D02*
X300781D01*
X301181Y-9061D01*
X301581Y-9461D01*
X301981D01*
Y-9061D01*
X301581Y-8661D01*
X301981Y-8261D01*
Y-7861D01*
X301581D01*
X301181Y-8261D01*
X300781Y-7861D01*
X300381D01*
Y-8261D01*
X300781Y-8661D01*
X300381Y-9061D01*
Y-9461D01*
X260224Y-139383D02*
X260624D01*
X261024Y-138983D01*
X261424Y-139383D01*
X261824D01*
Y-138983D01*
X261424Y-138583D01*
X261824Y-138183D01*
Y-137783D01*
X261424D01*
X261024Y-138183D01*
X260624Y-137783D01*
X260224D01*
Y-138183D01*
X260624Y-138583D01*
X260224Y-138983D01*
Y-139383D01*
X255893Y-44501D02*
X256293D01*
X256693Y-44101D01*
X257093Y-44501D01*
X257493D01*
Y-44101D01*
X257093Y-43701D01*
X257493Y-43301D01*
Y-42901D01*
X257093D01*
X256693Y-43301D01*
X256293Y-42901D01*
X255893D01*
Y-43301D01*
X256293Y-43701D01*
X255893Y-44101D01*
Y-44501D01*
X262192Y-106312D02*
X262592D01*
X262992Y-105912D01*
X263392Y-106312D01*
X263792D01*
Y-105912D01*
X263392Y-105512D01*
X263792Y-105112D01*
Y-104712D01*
X263392D01*
X262992Y-105112D01*
X262592Y-104712D01*
X262192D01*
Y-105112D01*
X262592Y-105512D01*
X262192Y-105912D01*
Y-106312D01*
Y-94107D02*
X262592D01*
X262992Y-93707D01*
X263392Y-94107D01*
X263792D01*
Y-93707D01*
X263392Y-93307D01*
X263792Y-92907D01*
Y-92507D01*
X263392D01*
X262992Y-92907D01*
X262592Y-92507D01*
X262192D01*
Y-92907D01*
X262592Y-93307D01*
X262192Y-93707D01*
Y-94107D01*
X286208Y-106705D02*
X286608D01*
X287008Y-106306D01*
X287408Y-106705D01*
X287808D01*
Y-106306D01*
X287408Y-105905D01*
X287808Y-105506D01*
Y-105105D01*
X287408D01*
X287008Y-105506D01*
X286608Y-105105D01*
X286208D01*
Y-105506D01*
X286608Y-105905D01*
X286208Y-106306D01*
Y-106705D01*
X261798Y-25210D02*
X262198D01*
X262598Y-24810D01*
X262998Y-25210D01*
X263398D01*
Y-24810D01*
X262998Y-24409D01*
X263398Y-24010D01*
Y-23609D01*
X262998D01*
X262598Y-24010D01*
X262198Y-23609D01*
X261798D01*
Y-24010D01*
X262198Y-24409D01*
X261798Y-24810D01*
Y-25210D01*
X310224Y-4737D02*
X310624D01*
X311024Y-4337D01*
X311424Y-4737D01*
X311824D01*
Y-4337D01*
X311424Y-3937D01*
X311824Y-3537D01*
Y-3137D01*
X311424D01*
X311024Y-3537D01*
X310624Y-3137D01*
X310224D01*
Y-3537D01*
X310624Y-3937D01*
X310224Y-4337D01*
Y-4737D01*
X371247Y-208661D02*
X372047Y-207861D01*
X372847Y-208661D01*
X372047Y-209461D01*
X371247Y-208661D01*
X235302Y-99894D02*
X235702D01*
X236102Y-99494D01*
X236502Y-99894D01*
X236902D01*
Y-99494D01*
X236502Y-99094D01*
X236902Y-98694D01*
Y-98294D01*
X236502D01*
X236102Y-98694D01*
X235702Y-98294D01*
X235302D01*
Y-98694D01*
X235702Y-99094D01*
X235302Y-99494D01*
Y-99894D01*
X235007Y-211056D02*
X235407D01*
X235807Y-210656D01*
X236207Y-211056D01*
X236607D01*
Y-210656D01*
X236207Y-210256D01*
X236607Y-209856D01*
Y-209456D01*
X236207D01*
X235807Y-209856D01*
X235407Y-209456D01*
X235007D01*
Y-209856D01*
X235407Y-210256D01*
X235007Y-210656D01*
Y-211056D01*
X142901Y-37808D02*
X143301D01*
X143701Y-37408D01*
X144101Y-37808D01*
X144501D01*
Y-37408D01*
X144101Y-37008D01*
X144501Y-36608D01*
Y-36208D01*
X144101D01*
X143701Y-36608D01*
X143301Y-36208D01*
X142901D01*
Y-36608D01*
X143301Y-37008D01*
X142901Y-37408D01*
Y-37808D01*
X228728Y-149225D02*
X229128D01*
X229528Y-148825D01*
X229928Y-149225D01*
X230328D01*
Y-148825D01*
X229928Y-148425D01*
X230328Y-148025D01*
Y-147625D01*
X229928D01*
X229528Y-148025D01*
X229128Y-147625D01*
X228728D01*
Y-148025D01*
X229128Y-148425D01*
X228728Y-148825D01*
Y-149225D01*
X387665Y-37087D02*
X388465Y-36287D01*
X389265Y-37087D01*
X388465Y-37887D01*
X387665Y-37087D01*
X337980Y-20472D02*
X338779Y-19672D01*
X339580Y-20472D01*
X338779Y-21272D01*
X337980Y-20472D01*
X333609Y-44646D02*
X334409Y-43846D01*
X335209Y-44646D01*
X334409Y-45446D01*
X333609Y-44646D01*
X377822Y-27244D02*
X378622Y-26444D01*
X379422Y-27244D01*
X378622Y-28044D01*
X377822Y-27244D01*
X317822Y-25276D02*
X318622Y-24476D01*
X319422Y-25276D01*
X318622Y-26076D01*
X317822Y-25276D01*
X349791Y-39173D02*
X350590Y-38373D01*
X351391Y-39173D01*
X350590Y-39973D01*
X349791Y-39173D01*
X371917Y-21339D02*
X372716Y-20539D01*
X373517Y-21339D01*
X372716Y-22139D01*
X371917Y-21339D01*
X336011Y-22441D02*
X336811Y-21641D01*
X337611Y-22441D01*
X336811Y-23241D01*
X336011Y-22441D01*
X351759Y-3543D02*
X352559Y-2743D01*
X353359Y-3543D01*
X352559Y-4343D01*
X351759Y-3543D01*
X321759Y-21339D02*
X322559Y-20539D01*
X323359Y-21339D01*
X322559Y-22139D01*
X321759Y-21339D01*
X389633Y-39055D02*
X390433Y-38255D01*
X391233Y-39055D01*
X390433Y-39855D01*
X389633Y-39055D01*
X339948Y-18504D02*
X340748Y-17704D01*
X341548Y-18504D01*
X340748Y-19304D01*
X339948Y-18504D01*
X373885Y-23307D02*
X374685Y-22507D01*
X375485Y-23307D01*
X374685Y-24107D01*
X373885Y-23307D01*
X357665Y-7087D02*
X358465Y-6287D01*
X359265Y-7087D01*
X358465Y-7887D01*
X357665Y-7087D01*
X353728Y-4724D02*
X354528Y-3924D01*
X355328Y-4724D01*
X354528Y-5524D01*
X353728Y-4724D01*
X341916Y-16535D02*
X342717Y-15735D01*
X343516Y-16535D01*
X342717Y-17335D01*
X341916Y-16535D01*
X381759Y-31181D02*
X382559Y-30381D01*
X383359Y-31181D01*
X382559Y-31981D01*
X381759Y-31181D01*
X355696Y-5906D02*
X356496Y-5105D01*
X357296Y-5906D01*
X356496Y-6706D01*
X355696Y-5906D01*
X379790Y-29213D02*
X380591Y-28413D01*
X381391Y-29213D01*
X380591Y-30013D01*
X379790Y-29213D01*
X313885D02*
X314685Y-28413D01*
X315485Y-29213D01*
X314685Y-30013D01*
X313885Y-29213D01*
X369948Y-19370D02*
X370748Y-18570D01*
X371548Y-19370D01*
X370748Y-20170D01*
X369948Y-19370D01*
X325696Y-17402D02*
X326496Y-16602D01*
X327296Y-17402D01*
X326496Y-18202D01*
X325696Y-17402D01*
X361169Y-44646D02*
X361968Y-43846D01*
X362769Y-44646D01*
X361968Y-45446D01*
X361169Y-44646D01*
X375853Y-25276D02*
X376654Y-24476D01*
X377453Y-25276D01*
X376654Y-26076D01*
X375853Y-25276D01*
X319791Y-23307D02*
X320590Y-22507D01*
X321391Y-23307D01*
X320590Y-24107D01*
X319791Y-23307D01*
X306011Y-37087D02*
X306811Y-36287D01*
X307611Y-37087D01*
X306811Y-37887D01*
X306011Y-37087D01*
X307979Y-35118D02*
X308780Y-34318D01*
X309579Y-35118D01*
X308780Y-35918D01*
X307979Y-35118D01*
X385696D02*
X386496Y-34318D01*
X387296Y-35118D01*
X386496Y-35918D01*
X385696Y-35118D01*
X367980Y-17402D02*
X368779Y-16602D01*
X369580Y-17402D01*
X368779Y-18202D01*
X367980Y-17402D01*
X383728Y-33150D02*
X384527Y-32350D01*
X385328Y-33150D01*
X384527Y-33950D01*
X383728Y-33150D01*
X311916Y-31181D02*
X312717Y-30381D01*
X313516Y-31181D01*
X312717Y-31981D01*
X311916Y-31181D01*
X304043Y-39055D02*
X304842Y-38255D01*
X305643Y-39055D01*
X304842Y-39855D01*
X304043Y-39055D01*
X309948Y-33150D02*
X310748Y-32350D01*
X311548Y-33150D01*
X310748Y-33950D01*
X309948Y-33150D01*
X315854Y-27244D02*
X316653Y-26444D01*
X317454Y-27244D01*
X316653Y-28044D01*
X315854Y-27244D01*
X323728Y-19370D02*
X324528Y-18570D01*
X325328Y-19370D01*
X324528Y-20170D01*
X323728Y-19370D01*
X130702Y-35833D02*
Y-36233D01*
X131502D01*
Y-35833D01*
X131902D01*
Y-35033D01*
X131502D01*
Y-34633D01*
X130702D01*
Y-35033D01*
X130302D01*
Y-35833D01*
X130702D01*
X174791Y-149225D02*
X175190D01*
X175591Y-148825D01*
X175990Y-149225D01*
X176391D01*
Y-148825D01*
X175990Y-148425D01*
X176391Y-148025D01*
Y-147625D01*
X175990D01*
X175591Y-148025D01*
X175190Y-147625D01*
X174791D01*
Y-148025D01*
X175190Y-148425D01*
X174791Y-148825D01*
Y-149225D01*
X161255Y-109611D02*
X161655D01*
X162055Y-109211D01*
X162455Y-109611D01*
X162855D01*
Y-109211D01*
X162455Y-108811D01*
X162855Y-108411D01*
Y-108011D01*
X162455D01*
X162055Y-108411D01*
X161655Y-108011D01*
X161255D01*
Y-108411D01*
X161655Y-108811D01*
X161255Y-109211D01*
Y-109611D01*
X155302Y-97650D02*
X155702D01*
X156102Y-97250D01*
X156502Y-97650D01*
X156902D01*
Y-97250D01*
X156502Y-96850D01*
X156902Y-96450D01*
Y-96050D01*
X156502D01*
X156102Y-96450D01*
X155702Y-96050D01*
X155302D01*
Y-96450D01*
X155702Y-96850D01*
X155302Y-97250D01*
Y-97650D01*
X150972Y-137611D02*
X151372D01*
X151772Y-137211D01*
X152172Y-137611D01*
X152572D01*
Y-137211D01*
X152172Y-136811D01*
X152572Y-136411D01*
Y-136011D01*
X152172D01*
X151772Y-136411D01*
X151372Y-136011D01*
X150972D01*
Y-136411D01*
X151372Y-136811D01*
X150972Y-137211D01*
Y-137611D01*
X141159Y-99196D02*
X141559D01*
X141959Y-98796D01*
X142359Y-99196D01*
X142759D01*
Y-98796D01*
X142359Y-98396D01*
X142759Y-97996D01*
Y-97596D01*
X142359D01*
X141959Y-97996D01*
X141559Y-97596D01*
X141159D01*
Y-97996D01*
X141559Y-98396D01*
X141159Y-98796D01*
Y-99196D01*
X173609Y-187808D02*
X174009D01*
X174409Y-187408D01*
X174809Y-187808D01*
X175209D01*
Y-187408D01*
X174809Y-187008D01*
X175209Y-186608D01*
Y-186208D01*
X174809D01*
X174409Y-186608D01*
X174009Y-186208D01*
X173609D01*
Y-186608D01*
X174009Y-187008D01*
X173609Y-187408D01*
Y-187808D01*
X204121Y-175013D02*
X204521D01*
X204921Y-174613D01*
X205321Y-175013D01*
X205721D01*
Y-174613D01*
X205321Y-174213D01*
X205721Y-173813D01*
Y-173413D01*
X205321D01*
X204921Y-173813D01*
X204521Y-173413D01*
X204121D01*
Y-173813D01*
X204521Y-174213D01*
X204121Y-174613D01*
Y-175013D01*
X212783Y-184658D02*
X213183D01*
X213583Y-184258D01*
X213983Y-184658D01*
X214383D01*
Y-184258D01*
X213983Y-183858D01*
X214383Y-183458D01*
Y-183058D01*
X213983D01*
X213583Y-183458D01*
X213183Y-183058D01*
X212783D01*
Y-183458D01*
X213183Y-183858D01*
X212783Y-184258D01*
Y-184658D01*
X203137Y-216351D02*
X203537D01*
X203937Y-215951D01*
X204337Y-216351D01*
X204737D01*
Y-215951D01*
X204337Y-215551D01*
X204737Y-215151D01*
Y-214751D01*
X204337D01*
X203937Y-215151D01*
X203537Y-214751D01*
X203137D01*
Y-215151D01*
X203537Y-215551D01*
X203137Y-215951D01*
Y-216351D01*
X211011Y-206509D02*
X211411D01*
X211811Y-206109D01*
X212211Y-206509D01*
X212611D01*
Y-206109D01*
X212211Y-205709D01*
X212611Y-205309D01*
Y-204909D01*
X212211D01*
X211811Y-205309D01*
X211411Y-204909D01*
X211011D01*
Y-205309D01*
X211411Y-205709D01*
X211011Y-206109D01*
Y-206509D01*
X264161Y-237020D02*
X264561D01*
X264961Y-236620D01*
X265361Y-237020D01*
X265761D01*
Y-236620D01*
X265361Y-236221D01*
X265761Y-235821D01*
Y-235420D01*
X265361D01*
X264961Y-235821D01*
X264561Y-235420D01*
X264161D01*
Y-235821D01*
X264561Y-236221D01*
X264161Y-236620D01*
Y-237020D01*
X300381Y-242139D02*
X300781D01*
X301181Y-241739D01*
X301581Y-242139D01*
X301981D01*
Y-241739D01*
X301581Y-241339D01*
X301981Y-240939D01*
Y-240539D01*
X301581D01*
X301181Y-240939D01*
X300781Y-240539D01*
X300381D01*
Y-240939D01*
X300781Y-241339D01*
X300381Y-241739D01*
Y-242139D01*
X300334Y-219060D02*
X300734D01*
X301134Y-218660D01*
X301534Y-219060D01*
X301934D01*
Y-218660D01*
X301534Y-218260D01*
X301934Y-217860D01*
Y-217460D01*
X301534D01*
X301134Y-217860D01*
X300734Y-217460D01*
X300334D01*
Y-217860D01*
X300734Y-218260D01*
X300334Y-218660D01*
Y-219060D01*
X300428Y-225060D02*
X300828D01*
X301228Y-224660D01*
X301628Y-225060D01*
X302028D01*
Y-224660D01*
X301628Y-224260D01*
X302028Y-223860D01*
Y-223460D01*
X301628D01*
X301228Y-223860D01*
X300828Y-223460D01*
X300428D01*
Y-223860D01*
X300828Y-224260D01*
X300428Y-224660D01*
Y-225060D01*
X285271Y-196123D02*
X285671D01*
X286071Y-195723D01*
X286471Y-196123D01*
X286871D01*
Y-195723D01*
X286471Y-195323D01*
X286871Y-194923D01*
Y-194523D01*
X286471D01*
X286071Y-194923D01*
X285671Y-194523D01*
X285271D01*
Y-194923D01*
X285671Y-195323D01*
X285271Y-195723D01*
Y-196123D01*
X275972Y-195682D02*
X276372D01*
X276772Y-195282D01*
X277172Y-195682D01*
X277572D01*
Y-195282D01*
X277172Y-194882D01*
X277572Y-194482D01*
Y-194082D01*
X277172D01*
X276772Y-194482D01*
X276372Y-194082D01*
X275972D01*
Y-194482D01*
X276372Y-194882D01*
X275972Y-195282D01*
Y-195682D01*
X255499Y-157099D02*
X255899D01*
X256299Y-156699D01*
X256699Y-157099D01*
X257099D01*
Y-156699D01*
X256699Y-156299D01*
X257099Y-155899D01*
Y-155499D01*
X256699D01*
X256299Y-155899D01*
X255899Y-155499D01*
X255499D01*
Y-155899D01*
X255899Y-156299D01*
X255499Y-156699D01*
Y-157099D01*
X259830Y-170485D02*
X260230D01*
X260630Y-170085D01*
X261030Y-170485D01*
X261430D01*
Y-170085D01*
X261030Y-169685D01*
X261430Y-169285D01*
Y-168885D01*
X261030D01*
X260630Y-169285D01*
X260230Y-168885D01*
X259830D01*
Y-169285D01*
X260230Y-169685D01*
X259830Y-170085D01*
Y-170485D01*
X263964Y-182690D02*
X264364D01*
X264764Y-182290D01*
X265164Y-182690D01*
X265564D01*
Y-182290D01*
X265164Y-181890D01*
X265564Y-181490D01*
Y-181090D01*
X265164D01*
X264764Y-181490D01*
X264364Y-181090D01*
X263964D01*
Y-181490D01*
X264364Y-181890D01*
X263964Y-182290D01*
Y-182690D01*
X239208Y-144847D02*
X239608D01*
X240008Y-144447D01*
X240408Y-144847D01*
X240808D01*
Y-144447D01*
X240408Y-144047D01*
X240808Y-143647D01*
Y-143247D01*
X240408D01*
X240008Y-143647D01*
X239608Y-143247D01*
X239208D01*
Y-143647D01*
X239608Y-144047D01*
X239208Y-144447D01*
Y-144847D01*
X235814Y-109265D02*
X236214D01*
X236614Y-108865D01*
X237014Y-109265D01*
X237414D01*
Y-108865D01*
X237014Y-108465D01*
X237414Y-108065D01*
Y-107665D01*
X237014D01*
X236614Y-108065D01*
X236214Y-107665D01*
X235814D01*
Y-108065D01*
X236214Y-108465D01*
X235814Y-108865D01*
Y-109265D01*
X226168Y-113292D02*
X226569D01*
X226969Y-112892D01*
X227368Y-113292D01*
X227768D01*
Y-112892D01*
X227368Y-112492D01*
X227768Y-112092D01*
Y-111692D01*
X227368D01*
X226969Y-112092D01*
X226569Y-111692D01*
X226168D01*
Y-112092D01*
X226569Y-112492D01*
X226168Y-112892D01*
Y-113292D01*
X236208Y-91942D02*
X236608D01*
X237008Y-91542D01*
X237408Y-91942D01*
X237808D01*
Y-91542D01*
X237408Y-91142D01*
X237808Y-90742D01*
Y-90342D01*
X237408D01*
X237008Y-90742D01*
X236608Y-90342D01*
X236208D01*
Y-90742D01*
X236608Y-91142D01*
X236208Y-91542D01*
Y-91942D01*
X225972Y-88202D02*
X226372D01*
X226772Y-87802D01*
X227172Y-88202D01*
X227572D01*
Y-87802D01*
X227172Y-87402D01*
X227572Y-87002D01*
Y-86602D01*
X227172D01*
X226772Y-87002D01*
X226372Y-86602D01*
X225972D01*
Y-87002D01*
X226372Y-87402D01*
X225972Y-87802D01*
Y-88202D01*
X281877Y-2768D02*
X282277D01*
X282677Y-2369D01*
X283077Y-2768D01*
X283477D01*
Y-2369D01*
X283077Y-1969D01*
X283477Y-1568D01*
Y-1168D01*
X283077D01*
X282677Y-1568D01*
X282277Y-1168D01*
X281877D01*
Y-1568D01*
X282277Y-1969D01*
X281877Y-2369D01*
Y-2768D01*
X166131Y-9254D02*
Y-9654D01*
X166931D01*
Y-9254D01*
X167331D01*
Y-8454D01*
X166931D01*
Y-8054D01*
X166131D01*
Y-8454D01*
X165731D01*
Y-9254D01*
X166131D01*
X147452Y-14195D02*
Y-14595D01*
X148252D01*
Y-14195D01*
X148652D01*
Y-13395D01*
X148252D01*
Y-12995D01*
X147452D01*
Y-13395D01*
X147052D01*
Y-14195D01*
X147452D01*
X333609Y-139134D02*
X334409Y-138334D01*
X335209Y-139134D01*
X334409Y-139934D01*
X333609Y-139134D01*
X361169D02*
X361968Y-138334D01*
X362769Y-139134D01*
X361968Y-139934D01*
X361169Y-139134D01*
X156293Y-63589D02*
Y-63989D01*
X157093D01*
Y-63589D01*
X157493D01*
Y-62789D01*
X157093D01*
Y-62389D01*
X156293D01*
Y-62789D01*
X155893D01*
Y-63589D01*
X156293D01*
X157868Y-47447D02*
Y-47847D01*
X158668D01*
Y-47447D01*
X159068D01*
Y-46647D01*
X158668D01*
Y-46247D01*
X157868D01*
Y-46647D01*
X157468D01*
Y-47447D01*
X157868D01*
X130309D02*
Y-47847D01*
X131109D01*
Y-47447D01*
X131509D01*
Y-46647D01*
X131109D01*
Y-46247D01*
X130309D01*
Y-46647D01*
X129909D01*
Y-47447D01*
X130309D01*
X140151D02*
Y-47847D01*
X140951D01*
Y-47447D01*
X141351D01*
Y-46647D01*
X140951D01*
Y-46247D01*
X140151D01*
Y-46647D01*
X139751D01*
Y-47447D01*
X140151D01*
X141720Y-73032D02*
X142520Y-72232D01*
X143320Y-73032D01*
X142520Y-73831D01*
X141720Y-73032D01*
X387665Y-131575D02*
X388465Y-130775D01*
X389265Y-131575D01*
X388465Y-132375D01*
X387665Y-131575D01*
X323728Y-113858D02*
X324528Y-113058D01*
X325328Y-113858D01*
X324528Y-114658D01*
X323728Y-113858D01*
X309948Y-127638D02*
X310748Y-126838D01*
X311548Y-127638D01*
X310748Y-128438D01*
X309948Y-127638D01*
X339948Y-112992D02*
X340748Y-112192D01*
X341548Y-112992D01*
X340748Y-113792D01*
X339948Y-112992D01*
X389633Y-133543D02*
X390433Y-132743D01*
X391233Y-133543D01*
X390433Y-134343D01*
X389633Y-133543D01*
X336011Y-116929D02*
X336811Y-116129D01*
X337611Y-116929D01*
X336811Y-117729D01*
X336011Y-116929D01*
X304043Y-133543D02*
X304842Y-132743D01*
X305643Y-133543D01*
X304842Y-134343D01*
X304043Y-133543D01*
X367980Y-111890D02*
X368779Y-111090D01*
X369580Y-111890D01*
X368779Y-112690D01*
X367980Y-111890D01*
X371917Y-115827D02*
X372716Y-115027D01*
X373517Y-115827D01*
X372716Y-116627D01*
X371917Y-115827D01*
X313885Y-123701D02*
X314685Y-122901D01*
X315485Y-123701D01*
X314685Y-124501D01*
X313885Y-123701D01*
X357690Y-101736D02*
X358490Y-100936D01*
X359290Y-101736D01*
X358490Y-102536D01*
X357690Y-101736D01*
X337980Y-114961D02*
X338779Y-114161D01*
X339580Y-114961D01*
X338779Y-115761D01*
X337980Y-114961D01*
X385696Y-129606D02*
X386496Y-128806D01*
X387296Y-129606D01*
X386496Y-130406D01*
X385696Y-129606D01*
X306011Y-131575D02*
X306811Y-130775D01*
X307611Y-131575D01*
X306811Y-132375D01*
X306011Y-131575D01*
X341916Y-111024D02*
X342717Y-110224D01*
X343516Y-111024D01*
X342717Y-111824D01*
X341916Y-111024D01*
X383728Y-127638D02*
X384527Y-126838D01*
X385328Y-127638D01*
X384527Y-128438D01*
X383728Y-127638D01*
X325696Y-111890D02*
X326496Y-111090D01*
X327296Y-111890D01*
X326496Y-112690D01*
X325696Y-111890D01*
X381759Y-125669D02*
X382559Y-124869D01*
X383359Y-125669D01*
X382559Y-126469D01*
X381759Y-125669D01*
X379790Y-123701D02*
X380591Y-122901D01*
X381391Y-123701D01*
X380591Y-124501D01*
X379790Y-123701D01*
X321759Y-115827D02*
X322559Y-115027D01*
X323359Y-115827D01*
X322559Y-116627D01*
X321759Y-115827D01*
X377822Y-121732D02*
X378622Y-120932D01*
X379422Y-121732D01*
X378622Y-122532D01*
X377822Y-121732D01*
X355696Y-100394D02*
X356496Y-99594D01*
X357296Y-100394D01*
X356496Y-101194D01*
X355696Y-100394D01*
X375853Y-119764D02*
X376654Y-118964D01*
X377453Y-119764D01*
X376654Y-120564D01*
X375853Y-119764D01*
X311916Y-125669D02*
X312717Y-124869D01*
X313516Y-125669D01*
X312717Y-126469D01*
X311916Y-125669D01*
X351759Y-98032D02*
X352559Y-97232D01*
X353359Y-98032D01*
X352559Y-98831D01*
X351759Y-98032D01*
X307979Y-129606D02*
X308780Y-128806D01*
X309579Y-129606D01*
X308780Y-130406D01*
X307979Y-129606D01*
X353728Y-99213D02*
X354528Y-98413D01*
X355328Y-99213D01*
X354528Y-100013D01*
X353728Y-99213D01*
X319791Y-117795D02*
X320590Y-116995D01*
X321391Y-117795D01*
X320590Y-118595D01*
X319791Y-117795D01*
X369948Y-113858D02*
X370748Y-113058D01*
X371548Y-113858D01*
X370748Y-114658D01*
X369948Y-113858D01*
X373885Y-117795D02*
X374685Y-116995D01*
X375485Y-117795D01*
X374685Y-118595D01*
X373885Y-117795D01*
X317822Y-119764D02*
X318622Y-118964D01*
X319422Y-119764D01*
X318622Y-120564D01*
X317822Y-119764D01*
X315854Y-121732D02*
X316653Y-120932D01*
X317454Y-121732D01*
X316653Y-122532D01*
X315854Y-121732D01*
D66*
X227375Y-138937D02*
G03*
X227375Y-138937I-800J0D01*
G01*
Y-128937D02*
G03*
X227375Y-128937I-800J0D01*
G01*
X290564Y-121890D02*
G03*
X290564Y-121890I-800J0D01*
G01*
Y-131890D02*
G03*
X290564Y-131890I-800J0D01*
G01*
X224422Y-212598D02*
G03*
X224422Y-212598I-800J0D01*
G01*
Y-202598D02*
G03*
X224422Y-202598I-800J0D01*
G01*
X194895Y-128937D02*
G03*
X194895Y-128937I-800J0D01*
G01*
Y-138937D02*
G03*
X194895Y-138937I-800J0D01*
G01*
X105131Y-88583D02*
G03*
X105131Y-88583I-800J0D01*
G01*
X115131D02*
G03*
X115131Y-88583I-800J0D01*
G01*
X238989Y-229173D02*
G03*
X238989Y-229173I-800J0D01*
G01*
X248989D02*
G03*
X248989Y-229173I-800J0D01*
G01*
X238989Y-239173D02*
G03*
X238989Y-239173I-800J0D01*
G01*
X248989D02*
G03*
X248989Y-239173I-800J0D01*
G01*
X238989Y-249173D02*
G03*
X238989Y-249173I-800J0D01*
G01*
X248989D02*
G03*
X248989Y-249173I-800J0D01*
G01*
X219698Y-30472D02*
G03*
X219698Y-30472I-800J0D01*
G01*
X209698D02*
G03*
X209698Y-30472I-800J0D01*
G01*
X219698Y-20472D02*
G03*
X219698Y-20472I-800J0D01*
G01*
X209698D02*
G03*
X209698Y-20472I-800J0D01*
G01*
X219698Y-10472D02*
G03*
X219698Y-10472I-800J0D01*
G01*
X209698D02*
G03*
X209698Y-10472I-800J0D01*
G01*
X219698Y-110000D02*
G03*
X219698Y-110000I-800J0D01*
G01*
X209698D02*
G03*
X209698Y-110000I-800J0D01*
G01*
X219698Y-100000D02*
G03*
X219698Y-100000I-800J0D01*
G01*
X209698D02*
G03*
X209698Y-100000I-800J0D01*
G01*
X219698Y-90000D02*
G03*
X219698Y-90000I-800J0D01*
G01*
X209698D02*
G03*
X209698Y-90000I-800J0D01*
G01*
X219698Y-70236D02*
G03*
X219698Y-70236I-800J0D01*
G01*
X209698D02*
G03*
X209698Y-70236I-800J0D01*
G01*
X219698Y-60236D02*
G03*
X219698Y-60236I-800J0D01*
G01*
X209698D02*
G03*
X209698Y-60236I-800J0D01*
G01*
X219698Y-50236D02*
G03*
X219698Y-50236I-800J0D01*
G01*
X209698D02*
G03*
X209698Y-50236I-800J0D01*
G01*
X108910Y-218661D02*
G03*
X108910Y-218661I-800J0D01*
G01*
Y-208661D02*
G03*
X108910Y-208661I-800J0D01*
G01*
X118910Y-218661D02*
G03*
X118910Y-218661I-800J0D01*
G01*
Y-208661D02*
G03*
X118910Y-208661I-800J0D01*
G01*
X105131Y-55118D02*
G03*
X105131Y-55118I-800J0D01*
G01*
Y-39370D02*
G03*
X105131Y-39370I-800J0D01*
G01*
Y-23622D02*
G03*
X105131Y-23622I-800J0D01*
G01*
X405879Y-42795D02*
G03*
X405879Y-42795I-800J0D01*
G01*
X415879D02*
G03*
X415879Y-42795I-800J0D01*
G01*
X405879Y-52795D02*
G03*
X405879Y-52795I-800J0D01*
G01*
X415879D02*
G03*
X415879Y-52795I-800J0D01*
G01*
X405879Y-62795D02*
G03*
X405879Y-62795I-800J0D01*
G01*
X415879D02*
G03*
X415879Y-62795I-800J0D01*
G01*
X405879Y-72795D02*
G03*
X405879Y-72795I-800J0D01*
G01*
X415879D02*
G03*
X415879Y-72795I-800J0D01*
G01*
X405879Y-82795D02*
G03*
X405879Y-82795I-800J0D01*
G01*
X415879D02*
G03*
X415879Y-82795I-800J0D01*
G01*
X405879Y-92795D02*
G03*
X405879Y-92795I-800J0D01*
G01*
X415879D02*
G03*
X415879Y-92795I-800J0D01*
G01*
X405879Y-102795D02*
G03*
X405879Y-102795I-800J0D01*
G01*
X415879D02*
G03*
X415879Y-102795I-800J0D01*
G01*
X405879Y-112795D02*
G03*
X405879Y-112795I-800J0D01*
G01*
X415879D02*
G03*
X415879Y-112795I-800J0D01*
G01*
X405879Y-122795D02*
G03*
X405879Y-122795I-800J0D01*
G01*
X415879D02*
G03*
X415879Y-122795I-800J0D01*
G01*
X405879Y-132795D02*
G03*
X405879Y-132795I-800J0D01*
G01*
X415879D02*
G03*
X415879Y-132795I-800J0D01*
G01*
X405879Y-142795D02*
G03*
X405879Y-142795I-800J0D01*
G01*
X415879D02*
G03*
X415879Y-142795I-800J0D01*
G01*
X405879Y-152795D02*
G03*
X405879Y-152795I-800J0D01*
G01*
X415879D02*
G03*
X415879Y-152795I-800J0D01*
G01*
X405879Y-162795D02*
G03*
X405879Y-162795I-800J0D01*
G01*
X415879D02*
G03*
X415879Y-162795I-800J0D01*
G01*
X405879Y-172795D02*
G03*
X405879Y-172795I-800J0D01*
G01*
X415879D02*
G03*
X415879Y-172795I-800J0D01*
G01*
X405879Y-182795D02*
G03*
X405879Y-182795I-800J0D01*
G01*
X415879D02*
G03*
X415879Y-182795I-800J0D01*
G01*
X405879Y-192795D02*
G03*
X405879Y-192795I-800J0D01*
G01*
X415879D02*
G03*
X415879Y-192795I-800J0D01*
G01*
X405879Y-202795D02*
G03*
X405879Y-202795I-800J0D01*
G01*
X415879D02*
G03*
X415879Y-202795I-800J0D01*
G01*
X405879Y-212795D02*
G03*
X405879Y-212795I-800J0D01*
G01*
X415879D02*
G03*
X415879Y-212795I-800J0D01*
G01*
X6627Y-1969D02*
G03*
X6627Y-1969I-800J0D01*
G01*
Y-231968D02*
G03*
X6627Y-231968I-800J0D01*
G01*
Y-221969D02*
G03*
X6627Y-221969I-800J0D01*
G01*
Y-211968D02*
G03*
X6627Y-211968I-800J0D01*
G01*
Y-201969D02*
G03*
X6627Y-201969I-800J0D01*
G01*
Y-191969D02*
G03*
X6627Y-191969I-800J0D01*
G01*
Y-181968D02*
G03*
X6627Y-181968I-800J0D01*
G01*
Y-171968D02*
G03*
X6627Y-171968I-800J0D01*
G01*
Y-161969D02*
G03*
X6627Y-161969I-800J0D01*
G01*
Y-151969D02*
G03*
X6627Y-151969I-800J0D01*
G01*
Y-141969D02*
G03*
X6627Y-141969I-800J0D01*
G01*
Y-131968D02*
G03*
X6627Y-131968I-800J0D01*
G01*
Y-121968D02*
G03*
X6627Y-121968I-800J0D01*
G01*
Y-111969D02*
G03*
X6627Y-111969I-800J0D01*
G01*
Y-101969D02*
G03*
X6627Y-101969I-800J0D01*
G01*
Y-91969D02*
G03*
X6627Y-91969I-800J0D01*
G01*
Y-81968D02*
G03*
X6627Y-81968I-800J0D01*
G01*
Y-71969D02*
G03*
X6627Y-71969I-800J0D01*
G01*
Y-61968D02*
G03*
X6627Y-61968I-800J0D01*
G01*
Y-51968D02*
G03*
X6627Y-51968I-800J0D01*
G01*
Y-41969D02*
G03*
X6627Y-41969I-800J0D01*
G01*
Y-31969D02*
G03*
X6627Y-31969I-800J0D01*
G01*
Y-21969D02*
G03*
X6627Y-21969I-800J0D01*
G01*
Y-11969D02*
G03*
X6627Y-11969I-800J0D01*
G01*
X86627Y-1969D02*
G03*
X86627Y-1969I-800J0D01*
G01*
Y-231968D02*
G03*
X86627Y-231968I-800J0D01*
G01*
Y-221969D02*
G03*
X86627Y-221969I-800J0D01*
G01*
Y-211968D02*
G03*
X86627Y-211968I-800J0D01*
G01*
Y-201969D02*
G03*
X86627Y-201969I-800J0D01*
G01*
Y-191969D02*
G03*
X86627Y-191969I-800J0D01*
G01*
Y-181968D02*
G03*
X86627Y-181968I-800J0D01*
G01*
Y-171968D02*
G03*
X86627Y-171968I-800J0D01*
G01*
Y-161969D02*
G03*
X86627Y-161969I-800J0D01*
G01*
Y-151969D02*
G03*
X86627Y-151969I-800J0D01*
G01*
Y-141969D02*
G03*
X86627Y-141969I-800J0D01*
G01*
Y-131968D02*
G03*
X86627Y-131968I-800J0D01*
G01*
Y-121968D02*
G03*
X86627Y-121968I-800J0D01*
G01*
Y-111969D02*
G03*
X86627Y-111969I-800J0D01*
G01*
Y-101969D02*
G03*
X86627Y-101969I-800J0D01*
G01*
Y-91969D02*
G03*
X86627Y-91969I-800J0D01*
G01*
Y-81968D02*
G03*
X86627Y-81968I-800J0D01*
G01*
Y-71969D02*
G03*
X86627Y-71969I-800J0D01*
G01*
Y-61968D02*
G03*
X86627Y-61968I-800J0D01*
G01*
Y-51968D02*
G03*
X86627Y-51968I-800J0D01*
G01*
Y-41969D02*
G03*
X86627Y-41969I-800J0D01*
G01*
Y-31969D02*
G03*
X86627Y-31969I-800J0D01*
G01*
Y-21969D02*
G03*
X86627Y-21969I-800J0D01*
G01*
Y-11969D02*
G03*
X86627Y-11969I-800J0D01*
G01*
X172257Y-228150D02*
G03*
X172257Y-228150I-800J0D01*
G01*
X162414D02*
G03*
X162414Y-228150I-800J0D01*
G01*
M02*
