G04*
G04 #@! TF.GenerationSoftware,Altium Limited,Altium Designer,21.3.2 (30)*
G04*
G04 Layer_Color=16711935*
%FSLAX25Y25*%
%MOIN*%
G70*
G04*
G04 #@! TF.SameCoordinates,35EDE252-B6D9-4C08-81A6-3FFBFD5BE296*
G04*
G04*
G04 #@! TF.FilePolarity,Negative*
G04*
G01*
G75*
%ADD41C,0.06800*%
%ADD42C,0.06706*%
%ADD43R,0.06706X0.06706*%
%ADD44R,0.06706X0.06706*%
%ADD45C,0.05906*%
%ADD46C,0.07480*%
%ADD47C,0.11811*%
%ADD48C,0.13792*%
%ADD49C,0.05800*%
%ADD50C,0.02769*%
%ADD51C,0.02178*%
%ADD52C,0.01902*%
D41*
X15827Y-141969D02*
D03*
X75827Y-21969D02*
D03*
Y-161969D02*
D03*
Y-151969D02*
D03*
Y-141969D02*
D03*
Y-1969D02*
D03*
Y-11969D02*
D03*
Y-171968D02*
D03*
Y-181968D02*
D03*
Y-191969D02*
D03*
Y-201969D02*
D03*
Y-211968D02*
D03*
Y-221969D02*
D03*
Y-231968D02*
D03*
X15827D02*
D03*
Y-221969D02*
D03*
Y-211968D02*
D03*
Y-201969D02*
D03*
Y-191969D02*
D03*
Y-181968D02*
D03*
Y-171968D02*
D03*
Y-161969D02*
D03*
Y-151969D02*
D03*
X75827Y-31969D02*
D03*
Y-41969D02*
D03*
Y-51968D02*
D03*
Y-61968D02*
D03*
Y-71969D02*
D03*
Y-81968D02*
D03*
Y-91969D02*
D03*
Y-101969D02*
D03*
Y-111969D02*
D03*
Y-121968D02*
D03*
Y-131968D02*
D03*
X15827D02*
D03*
Y-121968D02*
D03*
Y-111969D02*
D03*
Y-101969D02*
D03*
Y-91969D02*
D03*
Y-81968D02*
D03*
Y-71969D02*
D03*
Y-61968D02*
D03*
Y-51968D02*
D03*
Y-41969D02*
D03*
Y-31969D02*
D03*
Y-21969D02*
D03*
Y-11969D02*
D03*
Y-1969D02*
D03*
D42*
X226575Y-138937D02*
D03*
X289764Y-121890D02*
D03*
X223622Y-212598D02*
D03*
X194095Y-128937D02*
D03*
X104331Y-88583D02*
D03*
X248189Y-229173D02*
D03*
X238189Y-239173D02*
D03*
X248189D02*
D03*
X238189Y-249173D02*
D03*
X248189D02*
D03*
X208898Y-30472D02*
D03*
X218898Y-20472D02*
D03*
X208898D02*
D03*
X218898Y-10472D02*
D03*
X208898D02*
D03*
X208898Y-110000D02*
D03*
X218898Y-100000D02*
D03*
X208898D02*
D03*
X218898Y-90000D02*
D03*
X208898D02*
D03*
X208898Y-70236D02*
D03*
X218898Y-60236D02*
D03*
X208898D02*
D03*
X218898Y-50236D02*
D03*
X208898D02*
D03*
X108110Y-208661D02*
D03*
X118110Y-218661D02*
D03*
Y-208661D02*
D03*
X405079Y-42795D02*
D03*
X415079D02*
D03*
X405079Y-52795D02*
D03*
X415079D02*
D03*
X405079Y-62795D02*
D03*
X415079D02*
D03*
X405079Y-72795D02*
D03*
X415079D02*
D03*
X405079Y-82795D02*
D03*
X415079D02*
D03*
X405079Y-92795D02*
D03*
X415079D02*
D03*
X405079Y-102795D02*
D03*
X415079D02*
D03*
X405079Y-112795D02*
D03*
X415079D02*
D03*
X405079Y-122795D02*
D03*
X415079D02*
D03*
X405079Y-132795D02*
D03*
X415079D02*
D03*
X405079Y-142795D02*
D03*
X415079D02*
D03*
X405079Y-152795D02*
D03*
X415079D02*
D03*
X405079Y-162795D02*
D03*
X415079D02*
D03*
X405079Y-172795D02*
D03*
X415079D02*
D03*
X405079Y-182795D02*
D03*
X415079D02*
D03*
X405079Y-192795D02*
D03*
X415079D02*
D03*
X405079Y-202795D02*
D03*
X415079D02*
D03*
X405079Y-212795D02*
D03*
X5827Y-231968D02*
D03*
Y-221969D02*
D03*
Y-211968D02*
D03*
Y-201969D02*
D03*
Y-191969D02*
D03*
Y-181968D02*
D03*
Y-171968D02*
D03*
Y-161969D02*
D03*
Y-151969D02*
D03*
Y-141969D02*
D03*
Y-131968D02*
D03*
Y-121968D02*
D03*
Y-111969D02*
D03*
Y-101969D02*
D03*
Y-91969D02*
D03*
Y-81968D02*
D03*
Y-71969D02*
D03*
Y-61968D02*
D03*
Y-51968D02*
D03*
Y-41969D02*
D03*
Y-31969D02*
D03*
Y-21969D02*
D03*
Y-11969D02*
D03*
X85827Y-231968D02*
D03*
Y-221969D02*
D03*
Y-211968D02*
D03*
Y-201969D02*
D03*
Y-191969D02*
D03*
Y-181968D02*
D03*
Y-171968D02*
D03*
Y-161969D02*
D03*
Y-151969D02*
D03*
Y-141969D02*
D03*
Y-131968D02*
D03*
Y-121968D02*
D03*
Y-111969D02*
D03*
Y-101969D02*
D03*
Y-91969D02*
D03*
Y-81968D02*
D03*
Y-71969D02*
D03*
Y-61968D02*
D03*
Y-51968D02*
D03*
Y-41969D02*
D03*
Y-31969D02*
D03*
Y-21969D02*
D03*
Y-11969D02*
D03*
X171457Y-228150D02*
D03*
D43*
X226575Y-128937D02*
D03*
X289764Y-131890D02*
D03*
X223622Y-202598D02*
D03*
X194095Y-138937D02*
D03*
X238189Y-229173D02*
D03*
X218898Y-30472D02*
D03*
X218898Y-110000D02*
D03*
X218898Y-70236D02*
D03*
X415079Y-212795D02*
D03*
X5827Y-1969D02*
D03*
X85827D02*
D03*
X161614Y-228150D02*
D03*
D44*
X114331Y-88583D02*
D03*
X108110Y-218661D02*
D03*
D45*
X104331Y-55118D02*
D03*
Y-39370D02*
D03*
Y-23622D02*
D03*
D46*
X96457Y-68898D02*
D03*
X120866Y-9843D02*
D03*
D47*
X-11811Y-11811D02*
D03*
Y-263779D02*
D03*
X409449Y-11811D02*
D03*
Y-263779D02*
D03*
D48*
X141535Y-248228D02*
D03*
X181693D02*
D03*
D49*
X148425Y-78543D02*
D03*
X107874Y-142126D02*
D03*
X292520Y-152756D02*
D03*
X131102Y-35433D02*
D03*
X166531Y-8854D02*
D03*
X147852Y-13795D02*
D03*
X156693Y-63189D02*
D03*
X158268Y-47047D02*
D03*
X130709D02*
D03*
X140551D02*
D03*
D50*
X197736Y-181693D02*
D03*
X259842Y-126969D02*
D03*
X364961Y-89764D02*
D03*
X140413Y-133965D02*
D03*
X235433Y-47244D02*
D03*
X241433Y-47339D02*
D03*
X235117Y-59724D02*
D03*
X235189Y-74559D02*
D03*
X241189Y-74654D02*
D03*
X276575Y-68898D02*
D03*
X254724Y0D02*
D03*
X232283Y-25197D02*
D03*
X365354Y-186614D02*
D03*
X107283Y-168307D02*
D03*
X103347Y-190945D02*
D03*
Y-187008D02*
D03*
X292126Y-2362D02*
D03*
X311122Y-8465D02*
D03*
X305512Y-18110D02*
D03*
X266142Y-126378D02*
D03*
X255906Y-115148D02*
D03*
X243307Y-33465D02*
D03*
X225590Y-11024D02*
D03*
X262992Y-128347D02*
D03*
X240158Y-132874D02*
D03*
X184055Y-22638D02*
D03*
X287402Y-38395D02*
D03*
X298228Y-5906D02*
D03*
X354331Y0D02*
D03*
X63779Y-133858D02*
D03*
X182087Y-113189D02*
D03*
X294488Y-58661D02*
D03*
X181496Y-73228D02*
D03*
X167333Y-15322D02*
D03*
X181496Y-33465D02*
D03*
X167323Y-118110D02*
D03*
X167717Y-78347D02*
D03*
X163386Y-41339D02*
D03*
X244488Y-142913D02*
D03*
X301181Y-8661D02*
D03*
X261024Y-138583D02*
D03*
X256693Y-43701D02*
D03*
X262992Y-105512D02*
D03*
Y-93307D02*
D03*
X287008Y-105905D02*
D03*
X262598Y-24409D02*
D03*
X311024Y-3937D02*
D03*
X236102Y-99094D02*
D03*
X235807Y-210256D02*
D03*
X143701Y-37008D02*
D03*
X229528Y-148425D02*
D03*
X175591Y-148425D02*
D03*
X162055Y-108811D02*
D03*
X156102Y-96850D02*
D03*
X151772Y-136811D02*
D03*
X141959Y-98396D02*
D03*
X174409Y-187008D02*
D03*
X204921Y-174213D02*
D03*
X213583Y-183858D02*
D03*
X203937Y-215551D02*
D03*
X211811Y-205709D02*
D03*
X264961Y-236221D02*
D03*
X301181Y-241339D02*
D03*
X301134Y-218260D02*
D03*
X301228Y-224260D02*
D03*
X286071Y-195323D02*
D03*
X276772Y-194882D02*
D03*
X256299Y-156299D02*
D03*
X260630Y-169685D02*
D03*
X264764Y-181890D02*
D03*
X240008Y-144047D02*
D03*
X236614Y-108465D02*
D03*
X226969Y-112492D02*
D03*
X237008Y-91142D02*
D03*
X226772Y-87402D02*
D03*
X282677Y-1969D02*
D03*
D51*
X184252Y-209842D02*
D03*
X298031Y-233465D02*
D03*
X266929Y-46850D02*
D03*
X361968Y-186378D02*
D03*
X334409D02*
D03*
X334252Y-104724D02*
D03*
X294882Y-64567D02*
D03*
X271654Y-121063D02*
D03*
X334409Y-91890D02*
D03*
X361968D02*
D03*
X334409Y-44646D02*
D03*
X361968D02*
D03*
X334409Y-139134D02*
D03*
X361968D02*
D03*
D52*
X350590Y-129724D02*
D03*
X352559Y-145276D02*
D03*
X356496Y-147638D02*
D03*
X300000Y-191339D02*
D03*
X310748Y-174882D02*
D03*
X320590Y-165039D02*
D03*
X358465Y-148819D02*
D03*
X354528Y-146457D02*
D03*
X318622Y-167008D02*
D03*
X304842Y-180787D02*
D03*
X312717Y-172913D02*
D03*
X298425Y-189764D02*
D03*
X314685Y-170945D02*
D03*
X303150Y-194488D02*
D03*
X326496Y-159134D02*
D03*
X301575Y-192913D02*
D03*
X296850Y-188189D02*
D03*
X306811Y-178819D02*
D03*
X308780Y-176850D02*
D03*
X316653Y-168976D02*
D03*
X322559Y-163071D02*
D03*
X324528Y-161102D02*
D03*
X295276Y-77953D02*
D03*
X308071Y-28543D02*
D03*
X266932Y-138583D02*
D03*
X272157Y-143384D02*
D03*
X273652Y-133435D02*
D03*
X295276Y-165354D02*
D03*
Y-118110D02*
D03*
X322559Y-68583D02*
D03*
X314685Y-76457D02*
D03*
X326496Y-64646D02*
D03*
X308780Y-82362D02*
D03*
X301575Y-98425D02*
D03*
X312717Y-78425D02*
D03*
X324528Y-66614D02*
D03*
X300000Y-96850D02*
D03*
X304842Y-86299D02*
D03*
X316653Y-74488D02*
D03*
X310748Y-80394D02*
D03*
X303150Y-100000D02*
D03*
X320590Y-70551D02*
D03*
X318622Y-72520D02*
D03*
X298425Y-95276D02*
D03*
X306811Y-84331D02*
D03*
X296850Y-93701D02*
D03*
X354528Y-51968D02*
D03*
X358465Y-54331D02*
D03*
X356496Y-53150D02*
D03*
X352559Y-50787D02*
D03*
X296850Y-46457D02*
D03*
Y-140945D02*
D03*
X298425Y-142520D02*
D03*
Y-48031D02*
D03*
X303150Y-52756D02*
D03*
Y-147244D02*
D03*
X301575Y-51181D02*
D03*
Y-145669D02*
D03*
X300000Y-49606D02*
D03*
Y-144095D02*
D03*
X388465Y-37087D02*
D03*
X378622Y-27244D02*
D03*
X318622Y-25276D02*
D03*
X350590Y-39173D02*
D03*
X372716Y-21339D02*
D03*
X352559Y-3543D02*
D03*
X322559Y-21339D02*
D03*
X390433Y-39055D02*
D03*
X374685Y-23307D02*
D03*
X358465Y-7087D02*
D03*
X354528Y-4724D02*
D03*
X382559Y-31181D02*
D03*
X356496Y-5906D02*
D03*
X380591Y-29213D02*
D03*
X314685D02*
D03*
X370748Y-19370D02*
D03*
X326496Y-17402D02*
D03*
X376654Y-25276D02*
D03*
X320590Y-23307D02*
D03*
X306811Y-37087D02*
D03*
X308780Y-35118D02*
D03*
X386496D02*
D03*
X368779Y-17402D02*
D03*
X384527Y-33150D02*
D03*
X312717Y-31181D02*
D03*
X304842Y-39055D02*
D03*
X310748Y-33150D02*
D03*
X316653Y-27244D02*
D03*
X324528Y-19370D02*
D03*
X142520Y-73032D02*
D03*
X324528Y-113858D02*
D03*
X310748Y-127638D02*
D03*
X304842Y-133543D02*
D03*
X314685Y-123701D02*
D03*
X358490Y-101736D02*
D03*
X306811Y-131575D02*
D03*
X326496Y-111890D02*
D03*
X322559Y-115827D02*
D03*
X356496Y-100394D02*
D03*
X312717Y-125669D02*
D03*
X352559Y-98032D02*
D03*
X308780Y-129606D02*
D03*
X354528Y-99213D02*
D03*
X320590Y-117795D02*
D03*
X318622Y-119764D02*
D03*
X316653Y-121732D02*
D03*
M02*
