G04*
G04 #@! TF.GenerationSoftware,Altium Limited,Altium Designer,21.3.2 (30)*
G04*
G04 Layer_Color=255*
%FSLAX25Y25*%
%MOIN*%
G70*
G04*
G04 #@! TF.SameCoordinates,35EDE252-B6D9-4C08-81A6-3FFBFD5BE296*
G04*
G04*
G04 #@! TF.FilePolarity,Positive*
G04*
G01*
G75*
%ADD45C,0.05906*%
%ADD46C,0.07480*%
%ADD47C,0.11811*%
%ADD57C,0.06000*%
%ADD58R,0.05906X0.05906*%
%ADD59R,0.05906X0.05906*%
%ADD60C,0.12992*%
D45*
X226575Y-138937D02*
D03*
X289764Y-121890D02*
D03*
X223622Y-212598D02*
D03*
X194095Y-128937D02*
D03*
X104331Y-88583D02*
D03*
X248189Y-229173D02*
D03*
X238189Y-239173D02*
D03*
X248189D02*
D03*
X238189Y-249173D02*
D03*
X248189D02*
D03*
X208898Y-30472D02*
D03*
X218898Y-20472D02*
D03*
X208898D02*
D03*
X218898Y-10472D02*
D03*
X208898D02*
D03*
X208898Y-110000D02*
D03*
X218898Y-100000D02*
D03*
X208898D02*
D03*
X218898Y-90000D02*
D03*
X208898D02*
D03*
X208898Y-70236D02*
D03*
X218898Y-60236D02*
D03*
X208898D02*
D03*
X218898Y-50236D02*
D03*
X208898D02*
D03*
X108110Y-208661D02*
D03*
X118110Y-218661D02*
D03*
Y-208661D02*
D03*
X104331Y-55118D02*
D03*
Y-39370D02*
D03*
Y-23622D02*
D03*
X405079Y-42795D02*
D03*
X415079D02*
D03*
X405079Y-52795D02*
D03*
X415079D02*
D03*
X405079Y-62795D02*
D03*
X415079D02*
D03*
X405079Y-72795D02*
D03*
X415079D02*
D03*
X405079Y-82795D02*
D03*
X415079D02*
D03*
X405079Y-92795D02*
D03*
X415079D02*
D03*
X405079Y-102795D02*
D03*
X415079D02*
D03*
X405079Y-112795D02*
D03*
X415079D02*
D03*
X405079Y-122795D02*
D03*
X415079D02*
D03*
X405079Y-132795D02*
D03*
X415079D02*
D03*
X405079Y-142795D02*
D03*
X415079D02*
D03*
X405079Y-152795D02*
D03*
X415079D02*
D03*
X405079Y-162795D02*
D03*
X415079D02*
D03*
X405079Y-172795D02*
D03*
X415079D02*
D03*
X405079Y-182795D02*
D03*
X415079D02*
D03*
X405079Y-192795D02*
D03*
X415079D02*
D03*
X405079Y-202795D02*
D03*
X415079D02*
D03*
X405079Y-212795D02*
D03*
X5827Y-231968D02*
D03*
Y-221969D02*
D03*
Y-211968D02*
D03*
Y-201969D02*
D03*
Y-191969D02*
D03*
Y-181968D02*
D03*
Y-171968D02*
D03*
Y-161969D02*
D03*
Y-151969D02*
D03*
Y-141969D02*
D03*
Y-131968D02*
D03*
Y-121968D02*
D03*
Y-111969D02*
D03*
Y-101969D02*
D03*
Y-91969D02*
D03*
Y-81968D02*
D03*
Y-71969D02*
D03*
Y-61968D02*
D03*
Y-51968D02*
D03*
Y-41969D02*
D03*
Y-31969D02*
D03*
Y-21969D02*
D03*
Y-11969D02*
D03*
X85827Y-231968D02*
D03*
Y-221969D02*
D03*
Y-211968D02*
D03*
Y-201969D02*
D03*
Y-191969D02*
D03*
Y-181968D02*
D03*
Y-171968D02*
D03*
Y-161969D02*
D03*
Y-151969D02*
D03*
Y-141969D02*
D03*
Y-131968D02*
D03*
Y-121968D02*
D03*
Y-111969D02*
D03*
Y-101969D02*
D03*
Y-91969D02*
D03*
Y-81968D02*
D03*
Y-71969D02*
D03*
Y-61968D02*
D03*
Y-51968D02*
D03*
Y-41969D02*
D03*
Y-31969D02*
D03*
Y-21969D02*
D03*
Y-11969D02*
D03*
X171457Y-228150D02*
D03*
D46*
X96457Y-68898D02*
D03*
X120866Y-9843D02*
D03*
D47*
X-11811Y-11811D02*
D03*
Y-263779D02*
D03*
X409449Y-11811D02*
D03*
Y-263779D02*
D03*
D57*
X15827Y-141969D02*
D03*
X75827Y-21969D02*
D03*
Y-161969D02*
D03*
Y-151969D02*
D03*
Y-141969D02*
D03*
Y-1969D02*
D03*
Y-11969D02*
D03*
Y-171968D02*
D03*
Y-181968D02*
D03*
Y-191969D02*
D03*
Y-201969D02*
D03*
Y-211968D02*
D03*
Y-221969D02*
D03*
Y-231968D02*
D03*
X15827D02*
D03*
Y-221969D02*
D03*
Y-211968D02*
D03*
Y-201969D02*
D03*
Y-191969D02*
D03*
Y-181968D02*
D03*
Y-171968D02*
D03*
Y-161969D02*
D03*
Y-151969D02*
D03*
X75827Y-31969D02*
D03*
Y-41969D02*
D03*
Y-51968D02*
D03*
Y-61968D02*
D03*
Y-71969D02*
D03*
Y-81968D02*
D03*
Y-91969D02*
D03*
Y-101969D02*
D03*
Y-111969D02*
D03*
Y-121968D02*
D03*
Y-131968D02*
D03*
X15827D02*
D03*
Y-121968D02*
D03*
Y-111969D02*
D03*
Y-101969D02*
D03*
Y-91969D02*
D03*
Y-81968D02*
D03*
Y-71969D02*
D03*
Y-61968D02*
D03*
Y-51968D02*
D03*
Y-41969D02*
D03*
Y-31969D02*
D03*
Y-21969D02*
D03*
Y-11969D02*
D03*
Y-1969D02*
D03*
D58*
X226575Y-128937D02*
D03*
X289764Y-131890D02*
D03*
X223622Y-202598D02*
D03*
X194095Y-138937D02*
D03*
X238189Y-229173D02*
D03*
X218898Y-30472D02*
D03*
X218898Y-110000D02*
D03*
X218898Y-70236D02*
D03*
X415079Y-212795D02*
D03*
X5827Y-1969D02*
D03*
X85827D02*
D03*
X161614Y-228150D02*
D03*
D59*
X114331Y-88583D02*
D03*
X108110Y-218661D02*
D03*
D60*
X141535Y-248228D02*
D03*
X181693D02*
D03*
M02*
