G04*
G04 #@! TF.GenerationSoftware,Altium Limited,Altium Designer,21.3.2 (30)*
G04*
G04 Layer_Color=8421504*
%FSLAX25Y25*%
%MOIN*%
G70*
G04*
G04 #@! TF.SameCoordinates,35EDE252-B6D9-4C08-81A6-3FFBFD5BE296*
G04*
G04*
G04 #@! TF.FilePolarity,Positive*
G04*
G01*
G75*
%ADD13C,0.01000*%
%ADD21R,0.03443X0.02656*%
%ADD22R,0.00984X0.03937*%
G04:AMPARAMS|DCode=23|XSize=65mil|YSize=40mil|CornerRadius=4mil|HoleSize=0mil|Usage=FLASHONLY|Rotation=90.000|XOffset=0mil|YOffset=0mil|HoleType=Round|Shape=RoundedRectangle|*
%AMROUNDEDRECTD23*
21,1,0.06500,0.03200,0,0,90.0*
21,1,0.05700,0.04000,0,0,90.0*
1,1,0.00800,0.01600,0.02850*
1,1,0.00800,0.01600,-0.02850*
1,1,0.00800,-0.01600,-0.02850*
1,1,0.00800,-0.01600,0.02850*
%
%ADD23ROUNDEDRECTD23*%
%ADD24R,0.02200X0.06550*%
G04:AMPARAMS|DCode=25|XSize=58.66mil|YSize=11.02mil|CornerRadius=2.76mil|HoleSize=0mil|Usage=FLASHONLY|Rotation=270.000|XOffset=0mil|YOffset=0mil|HoleType=Round|Shape=RoundedRectangle|*
%AMROUNDEDRECTD25*
21,1,0.05866,0.00551,0,0,270.0*
21,1,0.05315,0.01102,0,0,270.0*
1,1,0.00551,-0.00276,-0.02657*
1,1,0.00551,-0.00276,0.02657*
1,1,0.00551,0.00276,0.02657*
1,1,0.00551,0.00276,-0.02657*
%
%ADD25ROUNDEDRECTD25*%
G04:AMPARAMS|DCode=26|XSize=58.66mil|YSize=11.02mil|CornerRadius=2.76mil|HoleSize=0mil|Usage=FLASHONLY|Rotation=180.000|XOffset=0mil|YOffset=0mil|HoleType=Round|Shape=RoundedRectangle|*
%AMROUNDEDRECTD26*
21,1,0.05866,0.00551,0,0,180.0*
21,1,0.05315,0.01102,0,0,180.0*
1,1,0.00551,-0.02657,0.00276*
1,1,0.00551,0.02657,0.00276*
1,1,0.00551,0.02657,-0.00276*
1,1,0.00551,-0.02657,-0.00276*
%
%ADD26ROUNDEDRECTD26*%
%ADD27R,0.05900X0.01575*%
%ADD28R,0.01181X0.05956*%
%ADD29R,0.05906X0.05512*%
%ADD30R,0.02400X0.06400*%
%ADD31R,0.01397X0.05756*%
%ADD32R,0.02656X0.03443*%
%ADD33R,0.03347X0.02362*%
%ADD34R,0.06550X0.02200*%
%ADD35R,0.07874X0.07087*%
G36*
X149506Y-59742D02*
X151094Y-61331D01*
X151094Y-65742D01*
Y-65842D01*
X151018Y-66025D01*
X150878Y-66166D01*
X150694Y-66242D01*
X144495D01*
X144311Y-66166D01*
X144171Y-66025D01*
X144095Y-65842D01*
Y-65742D01*
Y-60242D01*
Y-60143D01*
X144171Y-59959D01*
X144311Y-59818D01*
X144495Y-59742D01*
X144595D01*
X149506Y-59742D01*
D02*
G37*
D13*
X144488Y-58967D02*
G03*
X145177Y-60630I2352J0D01*
G01*
X140551Y-69095D02*
Y-65551D01*
D21*
X188976Y-203693D02*
D03*
Y-209693D02*
D03*
X158268Y-114811D02*
D03*
Y-108811D02*
D03*
Y-125835D02*
D03*
Y-119835D02*
D03*
X264961Y-232921D02*
D03*
Y-226921D02*
D03*
Y-214811D02*
D03*
Y-208811D02*
D03*
X262598Y-20717D02*
D03*
Y-14717D02*
D03*
X292913Y-112055D02*
D03*
Y-106055D02*
D03*
X253937Y-62598D02*
D03*
Y-68598D02*
D03*
X259842D02*
D03*
Y-62598D02*
D03*
X311024Y-17567D02*
D03*
Y-11567D02*
D03*
X293307Y-168654D02*
D03*
Y-174653D02*
D03*
X295669Y-73866D02*
D03*
Y-67866D02*
D03*
X302362Y-235677D02*
D03*
Y-229677D02*
D03*
X244488Y-139220D02*
D03*
Y-133221D02*
D03*
X162205Y-69732D02*
D03*
Y-63732D02*
D03*
X125591Y-16094D02*
D03*
Y-22095D02*
D03*
X162205Y-52709D02*
D03*
Y-58709D02*
D03*
X200000Y-171110D02*
D03*
Y-165110D02*
D03*
X211811Y-202606D02*
D03*
Y-196606D02*
D03*
X130315Y-60189D02*
D03*
Y-66189D02*
D03*
X260630Y-181890D02*
D03*
Y-175890D02*
D03*
Y-156299D02*
D03*
Y-162299D02*
D03*
X297244Y-218260D02*
D03*
Y-224260D02*
D03*
X228346Y-25543D02*
D03*
Y-31543D02*
D03*
X301181Y-28984D02*
D03*
Y-22984D02*
D03*
X229528Y-12449D02*
D03*
Y-6449D02*
D03*
X244488Y-122591D02*
D03*
Y-128591D02*
D03*
X301181Y-11961D02*
D03*
Y-17961D02*
D03*
D22*
X150394Y-69095D02*
D03*
X148425D02*
D03*
X146457D02*
D03*
X144488D02*
D03*
X142520D02*
D03*
X140551D02*
D03*
X138583D02*
D03*
Y-56890D02*
D03*
X140551D02*
D03*
X142520D02*
D03*
X144488D02*
D03*
X146457D02*
D03*
X150394D02*
D03*
X148425D02*
D03*
D23*
X146094Y-62990D02*
D03*
X140094D02*
D03*
D24*
X267697Y-76479D02*
D03*
X272697D02*
D03*
X277697D02*
D03*
X282697D02*
D03*
Y-54229D02*
D03*
X277697D02*
D03*
X272697D02*
D03*
X267697D02*
D03*
X235807Y-217818D02*
D03*
X240807D02*
D03*
X245807D02*
D03*
X250807D02*
D03*
Y-195568D02*
D03*
X245807D02*
D03*
X240807D02*
D03*
X235807D02*
D03*
X274390Y-231991D02*
D03*
X279390D02*
D03*
X284390D02*
D03*
X289390D02*
D03*
Y-209741D02*
D03*
X284390D02*
D03*
X279390D02*
D03*
X274390D02*
D03*
X285472Y-157671D02*
D03*
X280472D02*
D03*
X275472D02*
D03*
X270472D02*
D03*
Y-179921D02*
D03*
X275472D02*
D03*
X280472D02*
D03*
X285472D02*
D03*
X235807Y-180023D02*
D03*
X240807D02*
D03*
X245807D02*
D03*
X250807D02*
D03*
Y-157773D02*
D03*
X245807D02*
D03*
X240807D02*
D03*
X235807D02*
D03*
X135413Y-128251D02*
D03*
X140413D02*
D03*
X145413D02*
D03*
X150413D02*
D03*
Y-106001D02*
D03*
X145413D02*
D03*
X140413D02*
D03*
X135413D02*
D03*
D25*
X336811Y-153543D02*
D03*
X338779D02*
D03*
X340748D02*
D03*
X342717D02*
D03*
X344685D02*
D03*
X346654D02*
D03*
X348622D02*
D03*
X350590D02*
D03*
X352559D02*
D03*
X354527D02*
D03*
X356496D02*
D03*
X358465D02*
D03*
Y-186378D02*
D03*
X356496D02*
D03*
X354527D02*
D03*
X352559D02*
D03*
X350590D02*
D03*
X348622D02*
D03*
X346654D02*
D03*
X344685D02*
D03*
X342717D02*
D03*
X340748D02*
D03*
X338779D02*
D03*
X336811D02*
D03*
Y-91890D02*
D03*
X338779D02*
D03*
X340748D02*
D03*
X342717D02*
D03*
X344685D02*
D03*
X346654D02*
D03*
X348622D02*
D03*
X350590D02*
D03*
X352559D02*
D03*
X354527D02*
D03*
X356496D02*
D03*
X358465D02*
D03*
Y-59055D02*
D03*
X356496D02*
D03*
X354527D02*
D03*
X352559D02*
D03*
X350590D02*
D03*
X348622D02*
D03*
X346654D02*
D03*
X344685D02*
D03*
X342717D02*
D03*
X340748D02*
D03*
X338779D02*
D03*
X336811D02*
D03*
Y-106299D02*
D03*
X338779D02*
D03*
X340748D02*
D03*
X342717D02*
D03*
X344685D02*
D03*
X346654D02*
D03*
X348622D02*
D03*
X350590D02*
D03*
X352559D02*
D03*
X354527D02*
D03*
X356496D02*
D03*
X358465D02*
D03*
Y-139134D02*
D03*
X356496D02*
D03*
X354527D02*
D03*
X352559D02*
D03*
X350590D02*
D03*
X348622D02*
D03*
X346654D02*
D03*
X344685D02*
D03*
X342717D02*
D03*
X340748D02*
D03*
X338779D02*
D03*
X336811D02*
D03*
Y-44646D02*
D03*
X338779D02*
D03*
X340748D02*
D03*
X342717D02*
D03*
X344685D02*
D03*
X346654D02*
D03*
X348622D02*
D03*
X350590D02*
D03*
X352559D02*
D03*
X354527D02*
D03*
X356496D02*
D03*
X358465D02*
D03*
Y-11811D02*
D03*
X356496D02*
D03*
X354527D02*
D03*
X352559D02*
D03*
X350590D02*
D03*
X348622D02*
D03*
X346654D02*
D03*
X344685D02*
D03*
X342717D02*
D03*
X340748D02*
D03*
X338779D02*
D03*
X336811D02*
D03*
D26*
X364055Y-159134D02*
D03*
Y-161102D02*
D03*
Y-163071D02*
D03*
Y-165039D02*
D03*
Y-167008D02*
D03*
Y-168976D02*
D03*
Y-170945D02*
D03*
Y-172913D02*
D03*
Y-174882D02*
D03*
Y-176850D02*
D03*
Y-178819D02*
D03*
Y-180787D02*
D03*
X331221D02*
D03*
Y-178819D02*
D03*
Y-176850D02*
D03*
Y-174882D02*
D03*
Y-172913D02*
D03*
Y-170945D02*
D03*
Y-168976D02*
D03*
Y-167008D02*
D03*
Y-165039D02*
D03*
Y-163071D02*
D03*
Y-161102D02*
D03*
Y-159134D02*
D03*
Y-64646D02*
D03*
Y-66614D02*
D03*
Y-68583D02*
D03*
Y-70551D02*
D03*
Y-72520D02*
D03*
Y-74488D02*
D03*
Y-76457D02*
D03*
Y-78425D02*
D03*
Y-80394D02*
D03*
Y-82362D02*
D03*
Y-84331D02*
D03*
Y-86299D02*
D03*
X364055D02*
D03*
Y-84331D02*
D03*
Y-82362D02*
D03*
Y-80394D02*
D03*
Y-78425D02*
D03*
Y-76457D02*
D03*
Y-74488D02*
D03*
Y-72520D02*
D03*
Y-70551D02*
D03*
Y-68583D02*
D03*
Y-66614D02*
D03*
Y-64646D02*
D03*
Y-111890D02*
D03*
Y-113858D02*
D03*
Y-115827D02*
D03*
Y-117795D02*
D03*
Y-119764D02*
D03*
Y-121732D02*
D03*
Y-123701D02*
D03*
Y-125669D02*
D03*
Y-127638D02*
D03*
Y-129606D02*
D03*
Y-131575D02*
D03*
Y-133543D02*
D03*
X331221D02*
D03*
Y-131575D02*
D03*
Y-129606D02*
D03*
Y-127638D02*
D03*
Y-125669D02*
D03*
Y-123701D02*
D03*
Y-121732D02*
D03*
Y-119764D02*
D03*
Y-117795D02*
D03*
Y-115827D02*
D03*
Y-113858D02*
D03*
Y-111890D02*
D03*
Y-17402D02*
D03*
Y-19370D02*
D03*
Y-21339D02*
D03*
Y-23307D02*
D03*
Y-25276D02*
D03*
Y-27244D02*
D03*
Y-29213D02*
D03*
Y-31181D02*
D03*
Y-33150D02*
D03*
Y-35118D02*
D03*
Y-37087D02*
D03*
Y-39055D02*
D03*
X364055D02*
D03*
Y-37087D02*
D03*
Y-35118D02*
D03*
Y-33150D02*
D03*
Y-31181D02*
D03*
Y-29213D02*
D03*
Y-27244D02*
D03*
Y-25276D02*
D03*
Y-23307D02*
D03*
Y-21339D02*
D03*
Y-19370D02*
D03*
Y-17402D02*
D03*
D27*
X247183Y-104194D02*
D03*
Y-101694D02*
D03*
Y-99094D02*
D03*
Y-96594D02*
D03*
X229983D02*
D03*
Y-99094D02*
D03*
Y-101694D02*
D03*
Y-104194D02*
D03*
X237463Y-32540D02*
D03*
Y-30040D02*
D03*
Y-27440D02*
D03*
Y-24940D02*
D03*
X254663D02*
D03*
Y-27440D02*
D03*
Y-30040D02*
D03*
Y-32540D02*
D03*
X246789Y-64824D02*
D03*
Y-62324D02*
D03*
Y-59724D02*
D03*
Y-57224D02*
D03*
X229589D02*
D03*
Y-59724D02*
D03*
Y-62324D02*
D03*
Y-64824D02*
D03*
X237463Y-13249D02*
D03*
Y-10749D02*
D03*
Y-8149D02*
D03*
Y-5649D02*
D03*
X254663D02*
D03*
Y-8149D02*
D03*
Y-10749D02*
D03*
Y-13249D02*
D03*
D28*
X203937Y-191056D02*
D03*
X201969D02*
D03*
X200000D02*
D03*
X198031D02*
D03*
X196063D02*
D03*
Y-208156D02*
D03*
X198031D02*
D03*
X200000D02*
D03*
X201969D02*
D03*
X203937D02*
D03*
D29*
X161417Y-153543D02*
D03*
X133465D02*
D03*
X161417Y-165354D02*
D03*
X133465D02*
D03*
D30*
X178543Y-95600D02*
D03*
X171063D02*
D03*
X174803Y-104400D02*
D03*
X178543Y-55836D02*
D03*
X171063D02*
D03*
X174803Y-64636D02*
D03*
X178543Y-16072D02*
D03*
X171063D02*
D03*
X174803Y-24872D02*
D03*
D31*
X277264Y-32360D02*
D03*
X279823D02*
D03*
X282382D02*
D03*
X284941D02*
D03*
X287500D02*
D03*
X290059D02*
D03*
X292618D02*
D03*
X295177D02*
D03*
Y-10160D02*
D03*
X292618D02*
D03*
X290059D02*
D03*
X287500D02*
D03*
X284941D02*
D03*
X282382D02*
D03*
X279823D02*
D03*
X277264D02*
D03*
X250886Y-143384D02*
D03*
X253445D02*
D03*
X256004D02*
D03*
X258563D02*
D03*
X261122D02*
D03*
X263681D02*
D03*
X266240D02*
D03*
X268799D02*
D03*
Y-121184D02*
D03*
X266240D02*
D03*
X263681D02*
D03*
X261122D02*
D03*
X258563D02*
D03*
X256004D02*
D03*
X253445D02*
D03*
X250886D02*
D03*
D32*
X268354Y-112598D02*
D03*
X262354D02*
D03*
X248276Y-39370D02*
D03*
X254276D02*
D03*
X177803Y-78347D02*
D03*
X171803D02*
D03*
X241732Y-112598D02*
D03*
X247732D02*
D03*
X248031Y-87402D02*
D03*
X242032D02*
D03*
X297094Y-241339D02*
D03*
X291094D02*
D03*
X279677Y-148819D02*
D03*
X285677D02*
D03*
X177803Y-118110D02*
D03*
X171803D02*
D03*
X177803Y-38583D02*
D03*
X171803D02*
D03*
X259150Y-99213D02*
D03*
X253150D02*
D03*
X303000Y-1969D02*
D03*
X297000D02*
D03*
X315898Y-3937D02*
D03*
X321898D02*
D03*
X300937Y-58661D02*
D03*
X306937D02*
D03*
X298181Y-106299D02*
D03*
X304181D02*
D03*
X301331Y-152559D02*
D03*
X307331D02*
D03*
X139716Y-179134D02*
D03*
X145717D02*
D03*
X139716Y-185039D02*
D03*
X145717D02*
D03*
X139716Y-190945D02*
D03*
X145717D02*
D03*
X140795Y-80709D02*
D03*
X134795D02*
D03*
X109205Y-228346D02*
D03*
X115205D02*
D03*
X97394D02*
D03*
X103394D02*
D03*
X298969Y-118898D02*
D03*
X304969D02*
D03*
X345520Y-3937D02*
D03*
X339520D02*
D03*
X134795Y-86614D02*
D03*
X140795D02*
D03*
X177803Y-112992D02*
D03*
X171803D02*
D03*
X253150Y-105512D02*
D03*
X259150D02*
D03*
X253150Y-93307D02*
D03*
X259150D02*
D03*
X179283Y-148425D02*
D03*
X185283D02*
D03*
X203842Y-177953D02*
D03*
X209842D02*
D03*
X203842Y-183858D02*
D03*
X209842D02*
D03*
X284890Y-241339D02*
D03*
X278890D02*
D03*
X177803Y-73228D02*
D03*
X171803D02*
D03*
X177803Y-33465D02*
D03*
X171803D02*
D03*
X154724Y-41142D02*
D03*
X148724D02*
D03*
X143551D02*
D03*
X137551D02*
D03*
X124559Y-54921D02*
D03*
X130559D02*
D03*
X240008Y-148425D02*
D03*
X234008D02*
D03*
X280071Y-201181D02*
D03*
X286071D02*
D03*
X280315Y-189764D02*
D03*
X286315D02*
D03*
X237158Y-39370D02*
D03*
X243158D02*
D03*
X230614Y-112598D02*
D03*
X236614D02*
D03*
X231008Y-87402D02*
D03*
X237008D02*
D03*
X235189Y-70866D02*
D03*
X241189D02*
D03*
X142866Y-136811D02*
D03*
X148866D02*
D03*
X235433Y-50787D02*
D03*
X241433D02*
D03*
X146063Y-96850D02*
D03*
X152063D02*
D03*
X109205Y-234252D02*
D03*
X115205D02*
D03*
X333709Y-3937D02*
D03*
X327709D02*
D03*
X318748Y-58661D02*
D03*
X312748D02*
D03*
X315992Y-106299D02*
D03*
X309992D02*
D03*
X317998Y-152530D02*
D03*
X311998D02*
D03*
X243063Y0D02*
D03*
X249063D02*
D03*
X95425Y-141969D02*
D03*
X101425D02*
D03*
D33*
X154626Y-186811D02*
D03*
X160335D02*
D03*
Y-183268D02*
D03*
X154626D02*
D03*
D34*
X135546Y-8854D02*
D03*
Y-13854D02*
D03*
Y-18854D02*
D03*
Y-23854D02*
D03*
X157796D02*
D03*
Y-18854D02*
D03*
Y-13854D02*
D03*
Y-8854D02*
D03*
D35*
X190945Y-159921D02*
D03*
X174409D02*
D03*
X190945Y-179921D02*
D03*
X174409D02*
D03*
M02*
