M48
;Layer_Color=9474304
;FILE_FORMAT=2:5
INCH,LZ
;TYPE=PLATED
T1F00S00C0.00787
T2F00S00C0.01181
T3F00S00C0.02800
T4F00S00C0.03543
T5F00S00C0.04000
T6F00S00C0.05512
T7F00S00C0.07874
T8F00S00C0.11811
%
T01
X0184252Y-0209842
X0298031Y-0233465
X0372047Y-0208661
X0361968Y-0186378
X0334409
X0336811Y-0164173
X0338779Y-0162205
X0340748Y-0160236
X0342717Y-0158268
X0326496Y-0159134
X0324528Y-0161102
X0322559Y-0163071
X032059Y-0165039
X0318622Y-0167008
X0316653Y-0168976
X0314685Y-0170945
X0312717Y-0172913
X0310748Y-0174882
X030878Y-017685
X0306811Y-0178819
X0304842Y-0180787
X029685Y-0188189
X0298425Y-0189764
X03Y-0191339
X0301575Y-0192913
X030315Y-0194488
X0295276Y-0165354
X030315Y-0147244
X0301575Y-0145669
X03Y-0144095
X0298425Y-014252
X029685Y-0140945
X0304842Y-0133543
X0306811Y-0131575
X030878Y-0129606
X0310748Y-0127638
X0312717Y-0125669
X0314685Y-0123701
X0316653Y-0121732
X0318622Y-0119764
X032059Y-0117795
X0322559Y-0115827
X0324528Y-0113858
X0326496Y-011189
X0334252Y-0104724
X0334409Y-009189
X0352559Y-0098032
X0354528Y-0099213
X0356496Y-0100394
X035849Y-0101736
X0361968Y-009189
X0368779Y-011189
X0370748Y-0113858
X0372716Y-0115827
X0374685Y-0117795
X0376654Y-0119764
X0378622Y-0121732
X0380591Y-0123701
X0382559Y-0125669
X0384527Y-0127638
X0386496Y-0129606
X0388465Y-0131575
X0390433Y-0133543
X0361968Y-0139134
X0358465Y-0148819
X0356496Y-0147638
X0354528Y-0146457
X0352559Y-0145276
X035059Y-0129724
X0334409Y-0139134
X0336811Y-0116929
X0338779Y-0114961
X0340748Y-0112992
X0342717Y-0111024
Y-0063779
X0340748Y-0065748
X0338779Y-0067716
X0336811Y-0069685
X0322559Y-0068583
X032059Y-0070551
X0318622Y-007252
X0316653Y-0074488
X0314685Y-0076457
X0312717Y-0078425
X0310748Y-0080394
X030878Y-0082362
X0306811Y-0084331
X0304842Y-0086299
X029685Y-0093701
X0298425Y-0095276
X03Y-009685
X0301575Y-0098425
X030315Y-01
X0295276Y-011811
X0271654Y-0121063
X0273652Y-0133435
X0272157Y-0143384
X0266932Y-0138583
X0295276Y-0077953
X0294882Y-0064567
X030315Y-0052756
X0301575Y-0051181
X03Y-0049606
X0298425Y-0048031
X029685Y-0046457
X0266929Y-004685
X0326496Y-0064646
X0324528Y-0066614
X0352559Y-0050787
X0354528Y-0051968
X0356496Y-005315
X0358465Y-0054331
X0368779Y-0064646
X0370748Y-0066614
X0372716Y-0068583
X0374685Y-0070551
X0376654Y-007252
X0378622Y-0074488
X0380591Y-0076457
X0382559Y-0078425
X0384527Y-0080394
X0386496Y-0082362
X0388465Y-0084331
X0390433Y-0086299
X0388465Y-0178764
X0386496Y-017685
X0384527Y-0174882
X0382559Y-0172913
X0380591Y-0170945
X0378622Y-0168976
X0376654Y-0167008
X0374685Y-0165039
X0372716Y-0163071
X0370748Y-0161102
X0368779Y-0159134
X0390433Y-0180787
X014252Y-0073032
X0304842Y-0039055
X0306811Y-0037087
X030878Y-0035118
X0310748Y-003315
X0312717Y-0031181
X0314685Y-0029213
X0316653Y-0027244
X0318622Y-0025276
X032059Y-0023307
X0322559Y-0021339
X0324528Y-001937
X0326496Y-0017402
X0338779Y-0020472
X0336811Y-0022441
X0340748Y-0018504
X0342717Y-0016535
X0352559Y-0003543
X0354528Y-0004724
X0356496Y-0005906
X0358465Y-0007087
X0368779Y-0017402
X0370748Y-001937
X0372716Y-0021339
X0374685Y-0023307
X0376654Y-0025276
X0378622Y-0027244
X0380591Y-0029213
X0382559Y-0031181
X0384527Y-003315
X0386496Y-0035118
X0388465Y-0037087
X0390433Y-0039055
X0361968Y-0044646
X035059Y-0039173
X0334409Y-0044646
X0308071Y-0028543
T02
X0203937Y-0215551
X0211811Y-0205709
X0235807Y-0210256
X0264961Y-0236221
X0301181Y-0241339
X0301228Y-022426
X0301134Y-021826
X0286071Y-0195323
X0276772Y-0194882
X0264764Y-018189
X026063Y-0169685
X0256299Y-0156299
X0261024Y-0138583
X0262992Y-0128347
X0259842Y-0126969
X0266142Y-0126378
X0255906Y-0115148
X0262992Y-0105512
Y-0093307
X0287008Y-0105905
X0276575Y-0068898
X0294488Y-0058661
X0364961Y-0089764
X0365354Y-0186614
X0244488Y-0142913
X0240008Y-0144047
X0240158Y-0132874
X0229528Y-0148425
X0226969Y-0112492
X0236614Y-0108465
X0236102Y-0099094
X0237008Y-0091142
X0226772Y-0087402
X0235189Y-0074559
X0241189Y-0074654
X0235117Y-0059724
X0235433Y-0047244
X0241433Y-0047339
X0181496Y-0073228
X0167717Y-0078347
X0156102Y-009685
X0141959Y-0098396
X0162055Y-0108811
X0167323Y-011811
X0182087Y-0113189
X0175591Y-0148425
X0151772Y-0136811
X0140413Y-0133965
X0107283Y-0168307
X0103347Y-0187008
Y-0190945
X0174409Y-0187008
X0197736Y-0181693
X0204921Y-0174213
X0213583Y-0183858
X0063779Y-0133858
X0143701Y-0037008
X0163386Y-0041339
X0181496Y-0033465
X0184055Y-0022638
X0167333Y-0015322
X022559Y-0011024
X0232283Y-0025197
X0243307Y-0033465
X0256693Y-0043701
X0262598Y-0024409
X0254724Y0
X0282677Y-0001969
X0292126Y-0002362
X0298228Y-0005906
X0301181Y-0008661
X0311122Y-0008465
X0311024Y-0003937
X0305512Y-001811
X0287402Y-0038395
X0354331Y0
T03
X029252Y-0152756
X0107874Y-0142126
X0148425Y-0078543
X0156693Y-0063189
X0158268Y-0047047
X0140551
X0130709
X0131102Y-0035433
X0147852Y-0013795
X0166531Y-0008854
T04
X0005827Y-0231968
Y-0221969
Y-0211968
X0085827
Y-0221969
Y-0231968
X010811Y-0218661
Y-0208661
X011811
Y-0218661
X0161614Y-022815
X0171457
X0223622Y-0212598
Y-0202598
X0238189Y-0229173
Y-0239173
Y-0249173
X0248189
Y-0239173
Y-0229173
X0405079Y-0212795
Y-0202795
X0415079
Y-0212795
Y-0192795
Y-0182795
Y-0172795
Y-0162795
Y-0152795
Y-0142795
Y-0132795
Y-0122795
Y-0112795
Y-0102795
Y-0092795
Y-0082795
Y-0072795
Y-0062795
Y-0052795
X0405079
Y-0062795
Y-0072795
Y-0082795
Y-0092795
Y-0102795
Y-0112795
Y-0122795
Y-0132795
Y-0142795
Y-0152795
Y-0162795
Y-0172795
Y-0182795
Y-0192795
X0289764Y-013189
Y-012189
X0226575Y-0128937
Y-0138937
X0194095
Y-0128937
X0208898Y-011
X0218898
Y-01
X0208898
Y-009
X0218898
X0218898Y-0070236
X0208898
Y-0060236
X0218898
Y-0050236
X0208898
X0104331Y-0055118
Y-0088583
X0114331
X0085827Y-0091969
Y-0101969
Y-0111969
Y-0121968
Y-0131968
Y-0141969
Y-0151969
Y-0161969
Y-0171968
Y-0181968
Y-0191969
Y-0201969
X0005827
Y-0191969
Y-0181968
Y-0171968
Y-0161969
Y-0151969
Y-0141969
Y-0131968
Y-0121968
Y-0111969
Y-0101969
Y-0091969
Y-0081968
Y-0071969
Y-0061968
Y-0051968
X0085827
Y-0061968
Y-0071969
Y-0081968
Y-0041969
Y-0031969
Y-0021969
Y-0011969
Y-0001969
X0005827
Y-0011969
Y-0021969
Y-0031969
Y-0041969
X0104331Y-003937
Y-0023622
X0208898Y-0020472
Y-0030472
X0218898
Y-0020472
Y-0010472
X0208898
X0405079Y-0042795
X0415079
T05
X0015827Y-0231968
Y-0221969
Y-0211968
X0075827
Y-0221969
Y-0231968
Y-0201969
Y-0191969
Y-0181968
Y-0171968
Y-0161969
Y-0151969
Y-0141969
Y-0131968
Y-0121968
Y-0111969
Y-0101969
Y-0091969
Y-0081968
Y-0071969
Y-0061968
Y-0051968
X0015827
Y-0061968
Y-0071969
Y-0081968
Y-0091969
Y-0101969
Y-0111969
Y-0121968
Y-0131968
Y-0141969
Y-0151969
Y-0161969
Y-0171968
Y-0181968
Y-0191969
Y-0201969
Y-0041969
Y-0031969
Y-0021969
Y-0011969
Y-0001969
X0075827
Y-0011969
Y-0021969
Y-0031969
Y-0041969
T06
X0096457Y-0068898
X0120866Y-0009843
T07
X0141535Y-0248228
X0181693
T08
X-0011811Y-0263779
X0409449
X-0011811Y-0011811
X0409449
M30
